<?xml version="1.0" encoding="utf-8"?>
<!-- Generator: Adobe Illustrator 15.0.0, SVG Export Plug-In . SVG Version: 6.00 Build 0)  -->
<!DOCTYPE svg PUBLIC "-//W3C//DTD SVG 1.1//EN" "http://www.w3.org/Graphics/SVG/1.1/DTD/svg11.dtd">
<svg version="1.1" id="Layer_1" xmlns="http://www.w3.org/2000/svg" xmlns:xlink="http://www.w3.org/1999/xlink" x="0px" y="0px"
	 width="244px" height="163px" viewBox="0 0 244 163" enable-background="new 0 0 244 163" xml:space="preserve">
<path fill="#69B7E5" d="M97.72,35.077c0,0-12.661-7.436-28.171,16.784c-1.674,2.614-2.943,5.085-3.909,7.429
	c0.445,0.342,0.892,0.683,1.358,1.022c3.728-9.425,12.261-19.033,18.871-22.841c8.578-4.945,17.57,3.537,20.41,6.509
	c0.271,0.264,0.543,0.528,0.812,0.812c0.288,0.412-0.029,0.008-0.812-0.812c-10.516-10.163-20.847-4.236-20.847-4.236
	c-9.84,7.32-14.863,15.196-17.43,21.28c3.474,2.434,7.46,4.763,11.882,6.932c12.214,0.76,24.746-0.788,36.958-4.638
	c-1.127-7.784-3.855-13.428-5.931-17.193C106.931,38.902,97.72,35.077,97.72,35.077 M110.724,17.538
	c-1.638,1.309-1.953,3.201-1.608,5.203c1.97-1.107,4.025-2.247,6.114-3.387c0.691-0.377,1.363-0.72,2.023-1.045
	c-1.485-0.805-2.972-1.583-4.467-2.327C112.12,16.459,111.441,16.966,110.724,17.538 M67.6,66.402
	c0.122,0.024,0.243,0.04,0.363,0.064c-0.219-0.16-0.432-0.322-0.649-0.483c-0.189-0.139-0.381-0.28-0.566-0.421
	c-0.558-0.423-1.098-0.851-1.631-1.279c-0.19-0.155-0.383-0.311-0.571-0.468c-0.524-0.433-1.04-0.869-1.535-1.308
	c-0.149-0.132-0.291-0.265-0.437-0.396c-0.428-0.385-0.844-0.773-1.248-1.159c-0.121-0.119-0.249-0.237-0.37-0.355
	c-0.466-0.456-0.911-0.916-1.346-1.376c-0.136-0.144-0.27-0.286-0.4-0.431c-0.425-0.463-0.836-0.927-1.229-1.393
	c-0.099-0.117-0.191-0.236-0.289-0.354c-0.354-0.431-0.694-0.864-1.019-1.296c-0.066-0.089-0.136-0.177-0.2-0.266
	c-0.355-0.485-0.69-0.971-1.006-1.459c-0.082-0.126-0.165-0.251-0.244-0.378c-0.309-0.484-0.597-0.972-0.865-1.456
	c-0.059-0.106-0.11-0.211-0.168-0.316c-0.251-0.472-0.487-0.942-0.701-1.415c-0.025-0.055-0.054-0.109-0.078-0.164
	c-0.223-0.505-0.421-1.011-0.601-1.516c-0.038-0.11-0.08-0.218-0.116-0.327c-0.167-0.497-0.316-0.994-0.44-1.489
	c-0.022-0.097-0.043-0.192-0.066-0.288c-0.116-0.5-0.218-0.998-0.289-1.495c-0.002-0.025-0.01-0.049-0.011-0.074
	c-0.072-0.512-0.112-1.023-0.133-1.533c-0.002-0.096-0.01-0.195-0.011-0.29c-0.012-0.496,0-0.99,0.037-1.481
	c0.007-0.092,0.015-0.183,0.025-0.275c0.047-0.511,0.113-1.021,0.215-1.529c0.148-0.757,0.371-1.492,0.636-2.215
	c1.128-3.883,4.101-7.187,8.513-9.826c6.291-3.76,15.512-6.163,26.487-6.981c0.057,4.118,0.123,8.222,0.195,12.287
	c4.916-3.428,10.189-6.282,15.647-8.492c-1.379-4.183,0.482-8.022,4.167-11.211c-6.768-3.036-13.556-5.431-20.189-7.096
	c0.042,4.241,0.095,8.48,0.154,12.702C64.176,20.325,47.015,27.89,44.61,39.996c-1.859,9.362,5.48,19.585,18.709,28.381
	c-1.166,13.485,9.037,20.564,11.588,20.877c3.444,0.428,8.238,1.489,24.789,7.65c3.11,1.158,5.623,1.641,7.66,1.563
	c-9.838-5.895-19.774-13.256-29.482-22.084C74.416,73.239,70.984,69.919,67.6,66.402 M65.321,71.554
	c-0.116-0.653-0.174-1.325-0.196-2.01c0.121,0.078,0.245,0.155,0.365,0.231C65.331,70.91,65.321,71.554,65.321,71.554 M97.94,93.521
	c0,0-2.382-2.117-10.056-4.233c-7.673-2.118-15.26-2.937-19.847-9.262c0,0,10.424,5.97,14.95,6.748
	C90.289,88.027,96.618,91.934,97.94,93.521"/>
<path fill="#00468B" d="M87.144,153.769c0,0.843,0,1.875,0.094,2.903c-0.468-1.028-0.935-1.965-1.499-2.903l-3.468-6.464h-2.06
	v11.057h1.404v-6.371c0-0.846,0-1.875-0.092-2.91c0.467,1.035,0.936,1.972,1.499,2.91l3.466,6.371h2.062v-11.057h-1.406V153.769z
	 M56.367,148.33c0.749,0,1.5,0.19,2.157,0.381l0.185-1.221c-0.749-0.283-1.593-0.377-2.435-0.377c-2.813,0-4.404,1.125-4.404,5.813
	c0,4.685,1.406,5.717,4.309,5.717c0.844,0,1.781-0.188,2.53-0.375l-0.185-1.218c-0.75,0.186-1.501,0.277-2.157,0.277
	c-1.968,0-2.906-0.56-2.906-4.498C53.46,148.988,54.398,148.33,56.367,148.33 M68.896,147.113c-2.81,0-4.405,1.125-4.405,5.813
	c0,4.778,1.501,5.717,4.311,5.717h0.094c2.718,0,4.313-1.126,4.313-5.813C73.209,148.053,71.802,147.113,68.896,147.113
	 M68.896,157.425c-1.875,0-2.81-0.753-2.81-4.595c0-3.75,0.935-4.5,2.81-4.5c1.781,0,2.718,0.75,2.718,4.597
	C71.615,156.672,70.678,157.425,68.896,157.425 M99.393,152.082c-2.062-0.938-2.435-1.312-2.435-2.25s0.656-1.502,2.248-1.502
	c0.938,0,1.595,0.19,2.343,0.381l0.188-1.221c-0.653-0.186-1.5-0.377-2.436-0.377c-2.719,0-3.843,1.125-3.843,2.907
	c0,1.593,0.75,2.249,2.811,3.279c2.063,1.032,2.532,1.312,2.532,2.344c0,1.125-0.751,1.781-2.439,1.781
	c-0.936,0-1.78-0.188-2.623-0.374l-0.187,1.218c0.937,0.187,1.779,0.375,2.81,0.375c2.626,0,3.938-1.219,3.938-3.188
	C102.3,153.769,101.644,153.203,99.393,152.082 M147.865,158.361h1.594v-11.057h-1.594V158.361z M115.39,154.143
	c0,2.251-0.466,3.282-2.435,3.282c-2.062,0-2.529-1.031-2.529-3.282v-6.838h-1.595v6.838c0,3.094,0.938,4.501,4.03,4.501
	c3.094,0,4.126-1.501,4.126-4.595v-6.744h-1.597V154.143z M163.863,153.769c0,0.843,0.096,1.875,0.189,2.903
	c-0.564-1.028-1.035-1.965-1.5-2.903l-3.469-6.464h-2.062v11.057h1.404v-6.371c0-0.846-0.092-1.875-0.092-2.91
	c0.469,1.035,0.939,1.972,1.404,2.91l3.467,6.371h2.062v-11.057h-1.404V153.769z M176.205,153.393h2.25v3.658
	c-0.375,0.186-1.029,0.277-1.684,0.277c-1.971,0-2.814-0.656-2.814-4.498s1.029-4.5,3.092-4.5c0.844,0,1.688,0.19,2.531,0.381
	l0.188-1.221c-0.844-0.186-1.781-0.377-2.812-0.377c-2.906,0-4.59,1.125-4.59,5.813c0,4.685,1.309,5.717,4.406,5.717
	c1.121,0,2.432-0.282,3.277-0.565v-5.996h-3.844V153.393z M133.743,148.615h3.184v9.746h1.594v-9.746h3.094v-1.311h-7.871V148.615z
	 M125.732,147.305h-1.578v11.057h5.775v-1.219h-4.197V147.305z M12.698,110.884l-8.212,26.362h3.724l2.196-7.068h9.934l2.196,7.068
	h4.012l-8.309-26.362H12.698z M11.074,127.215l2.102-6.78c0.86-2.58,1.433-4.585,2.101-7.069h0.096v0.096
	c0.669,2.389,1.338,4.394,2.1,6.879l2.197,6.875H11.074z M35.43,118.044h-0.19c-5.062,0-7.546,1.911-7.546,6.784
	c0,2.863,0.858,4.394,2.1,5.35c-1.143,0.764-1.812,1.623-1.812,2.866c0,1.336,0.859,2.196,2.292,2.77
	c-1.91,0.955-3.439,2.388-3.439,4.775c0,3.341,2.199,5.347,8.31,5.347h0.285c6.114-0.092,8.597-2.578,8.597-6.207
	c0-2.58-1.242-3.818-4.297-4.488l-4.3-0.955l-0.954-0.191c-2.485-0.479-2.866-0.954-2.866-1.624c0-0.574,0.286-0.954,0.957-1.337
	c0.572,0.286,1.526,0.383,2.673,0.383h0.19c4.967,0,7.355-1.91,7.355-6.785c0-1.812-0.38-2.769-0.954-3.435l3.056-0.384v-2.293
	h-5.73C38.296,118.238,37.153,118.044,35.43,118.044 M33.424,136.865l2.006,0.381l2.58,0.572c1.624,0.383,2.387,1.051,2.387,2.293
	c0,1.719-1.24,3.151-4.967,3.246h-0.19c-3.819,0-4.775-1.238-4.775-3.148C30.465,138.393,31.706,137.438,33.424,136.865
	 M35.43,128.936h-0.19c-2.865,0-3.915-0.956-3.915-4.205c0-3.15,1.05-4.104,3.915-4.104h0.19c2.676,0,3.727,1.05,3.727,4.201
	C39.157,127.885,38.105,128.936,35.43,128.936 M193.252,137.246h3.725v-27.987h-3.725V137.246z M183.045,118.044h-0.385
	c-4.678,0.099-7.734,2.296-7.734,9.936c0,7.931,2.863,9.552,7.734,9.648h0.385c2.291,0,4.201-0.287,6.107-0.763l-0.287-2.771
	c-1.811,0.383-3.242,0.667-5.057,0.667h-1.148c-2.674-0.188-3.914-1.336-4.01-5.92h11.355c0-0.861,0.096-1.435,0.096-2.196
	C190.102,119.861,188.012,118.044,183.045,118.044 M178.746,126.355c0.094-4.298,1.434-5.443,3.914-5.443h0.193
	c2.676,0,3.82,0.955,3.82,5.443H178.746z M202.994,110.214c-1.721,0-2.297,0.477-2.297,2.194c0,1.722,0.576,2.198,2.297,2.198
	c1.814,0,2.293-0.477,2.293-2.198C205.287,110.69,204.809,110.214,202.994,110.214 M216.184,118.044h-0.385
	c-4.686,0.099-7.744,2.296-7.744,9.936c0,7.931,2.867,9.552,7.744,9.648h0.385c2.293,0,4.203-0.287,6.115-0.763l-0.285-2.771
	c-1.816,0.383-3.248,0.667-5.16,0.667h-1.055c-2.777-0.188-3.922-1.336-4.02-5.92h11.381c0-0.861,0.092-1.435,0.092-2.196
	C223.252,119.861,221.059,118.044,216.184,118.044 M211.779,126.355c0.191-4.298,1.529-5.443,4.02-5.443h0.189
	c2.682,0,3.826,0.955,3.826,5.443H211.779z M233.855,111.65c1.242,0,2.293,0.188,3.25,0.379l0.383-2.771
	c-1.146-0.287-2.582-0.478-4.012-0.478c-4.49,0-6.594,1.625-6.594,6.877v2.961h-2.867v2.771h2.867v15.856h3.729V121.39h5.73v-2.771
	h-5.73v-3.152C230.611,112.602,231.756,111.65,233.855,111.65 M201.18,137.246h3.723v-18.627h-3.723V137.246z M46.799,137.246h3.725
	v-18.627h-3.725V137.246z M68.958,118.044h-0.382c-4.775,0.099-7.834,2.296-7.834,9.936c0,7.931,2.962,9.552,7.834,9.648h0.382
	c2.198,0,4.109-0.287,6.116-0.763l-0.289-2.771c-1.814,0.383-3.342,0.667-5.158,0.667h-1.051c-2.772-0.188-4.013-1.336-4.013-5.92
	h11.273c0.095-0.861,0.095-1.435,0.095-2.196C75.931,119.861,73.829,118.044,68.958,118.044 M64.562,126.355
	c0.097-4.298,1.53-5.443,4.013-5.443h0.19c2.677,0,3.727,0.955,3.821,5.443H64.562z M166.902,124.637
	c4.775-0.572,6.684-2.675,6.684-6.973c0-5.062-2.193-6.592-8.307-6.686c-0.289,0-0.479-0.095-0.766-0.095h-7.641v26.362h3.82
	v-12.133h2.291l2.295,3.918l4.678,8.215h4.49L166.902,124.637z M164.418,122.25h-3.725v-8.406h4.586
	c3.438,0.096,4.582,1.049,4.582,3.917c0,2.866-1.047,4.201-4.582,4.394C164.99,122.154,164.705,122.25,164.418,122.25
	 M94.65,110.979c-0.189,0-0.476-0.095-0.667-0.095h-7.356v26.362h3.726v-11.08h4.297c5.638-0.288,8.121-2.579,8.121-8.023
	C102.771,112.408,100.383,111.072,94.65,110.979 M94.65,123.3h-4.297v-9.456h4.297c3.154,0.191,4.396,1.146,4.396,4.49
	C99.046,121.486,97.708,123.011,94.65,123.3 M125.375,118.619h-3.693v18.627h3.693V118.619z M123.492,114.606
	c1.789,0,2.357-0.477,2.357-2.198c0-1.718-0.568-2.194-2.357-2.194c-1.711,0-2.189,0.477-2.189,2.194
	C121.303,114.13,121.781,114.606,123.492,114.606 M111.178,118.143h-0.861c-1.91,0.096-3.629,0.383-5.349,0.764l0.382,2.771
	c1.624-0.287,3.249-0.574,4.967-0.668h0.193c2.482,0,3.533,1.049,3.533,3.151v1.814h-1.72c-0.668,0-1.433,0.096-2.006,0.096
	c-5.157,0.478-7.163,2.577-7.163,6.113c0,3.727,2.293,5.444,5.253,5.444c0.668,0,1.337-0.097,1.91-0.19
	c1.527-0.289,2.771-1.052,4.108-1.91l0.19,1.719h3.153V123.97C117.768,120.052,115.953,118.143,111.178,118.143 M114.042,132.947
	c-1.434,0.955-2.578,1.529-3.726,1.813c-0.381,0-0.669,0.099-1.052,0.099c-1.525,0-2.672-0.863-2.672-2.867
	c0-1.912,0.859-3.057,3.724-3.438c0.573,0,1.338-0.097,2.196-0.097h1.53V132.947z M48.614,110.214c-1.72,0-2.293,0.477-2.293,2.194
	c0,1.722,0.573,2.198,2.293,2.198c1.813,0,2.292-0.477,2.292-2.198C50.906,110.69,50.427,110.214,48.614,110.214 M139.871,118.238
	c-2.483,0-4.681,0.857-6.972,2.291l-0.196-1.91h-3.146v18.627h3.724v-14.041c2.1-1.338,3.818-2.008,5.445-2.008
	c2.002,0,3.055,0.957,3.055,3.822v12.227h3.724V124.35C145.504,120.052,143.691,118.238,139.871,118.238 M58.451,109.259h-3.725
	v27.987h3.725V109.259z M115.229,51.862c1.101,3.488,1.918,7.3,2.48,11.192c3.863-1.255,7.662-2.74,11.417-4.458
	c-1.654,7.484-3.32,14.918-4.989,22.311c5.624,0.765,11.111,1.189,16.342,1.296c7.757-6.659,17.806-15.595,19.31-16.913
	c1.432-1.254,11.127-13.538,5.604-27.217c-0.174-0.427-0.365-0.856-0.57-1.287c-0.033-0.069-0.066-0.139-0.1-0.208
	c-0.205-0.427-0.424-0.853-0.664-1.28c-3.771-6.791-11.594-13.76-26.257-19.767c0,0-1.834-0.988-5.387-1.103
	c-2.888-4.462-7.85-9.246-15.103-6.4c-3.765,1.473-7.13,3.35-9.647,5.53c-3.685,3.189-5.546,7.029-4.167,11.211
	c0.102,0.315,0.219,0.63,0.359,0.95c-6.396,3.658-10.949,6.383-10.949,6.383S109.492,33.698,115.229,51.862 M150.736,31.173
	c0,0,3.326,3.342,4.613,9.174c0,0-1.076,1.538-3.482,4.309c1.838,4.947,2.014,8.896,2.014,8.896
	c-4.035,8.071-11.737,12.472-11.737,12.472c-0.068-3.717-0.484-7.127-1.121-10.229c-2.164,2.029-4.588,4.218-7.328,6.568
	c0,0-1.01-7.576-5.513-16.043l7.542-5.069c-2.578-4.684-4.952-7.138-4.952-7.138l7.704-5.135c2.949,1.549,5.329,3.471,7.261,5.552
	L150.736,31.173z M138.536,16.805l2.922,1.275L107.1,37.628l-2.252-2.126l3.205-1.416l0.402-0.227
	c0.822,1.135,1.221,1.44,1.221,1.44l4.588-2.752c0,0-0.436-0.521-1.057-1.377l17.594-9.987c0.186,0.45,0.369,0.909,0.553,1.388
	l4.11-1.967c0,0-0.218-0.663-0.66-1.686L138.536,16.805z M124.869,8.865c5.281,2.576,9.636,11.34,9.636,11.34
	c-5.938-9.667-8.796-10.304-11.331-11.048c-3.106-0.903-10.772,3.187-10.772,3.187S119.585,6.288,124.869,8.865 M110.724,17.538
	c0.717-0.571,1.396-1.079,2.062-1.556c7.096-5.101,11.325-4.936,14.501-1.143c-2.795,0.51-6.137,1.555-10.034,3.47
	c-0.661,0.325-1.332,0.668-2.024,1.045c-2.089,1.14-4.143,2.281-6.114,3.387C108.771,20.739,109.086,18.847,110.724,17.538
	 M104.848,18.612c0,0-2.049,4.964,4.857,15.39C109.705,34.002,101.323,24.259,104.848,18.612 M146.225,83.594
	c-1.094,0.035-2.205,0.048-3.325,0.053c-0.373,0.001-0.746,0-1.119-0.003c-0.771-0.004-1.547-0.015-2.33-0.034
	c-0.432-0.01-0.861-0.017-1.299-0.033c-1.021-0.033-2.051-0.076-3.09-0.135c-0.645-0.035-1.299-0.084-1.951-0.129
	c-0.463-0.031-0.927-0.064-1.392-0.102c-0.75-0.061-1.502-0.124-2.252-0.196c-0.277-0.025-0.557-0.056-0.834-0.083
	c-1.596-0.161-3.209-0.35-4.821-0.566c-0.175-0.024-0.349-0.044-0.521-0.067l-1.815-0.258c-0.019-0.003-0.037-0.006-0.055-0.008
	c1.462-6.43,2.89-12.832,4.298-19.181c-13.223,5.154-27.295,7.856-41.041,7.856c-0.935,0-1.867-0.04-2.8-0.064
	c-2.125-0.973-4.149-1.986-6.089-3.028c-1.239-0.663-2.446-1.338-3.603-2.026c-0.054-0.033-0.111-0.066-0.165-0.099
	c-0.692-0.415-1.368-0.832-2.029-1.253c-0.038-0.025-0.075-0.049-0.113-0.072c-2.081-1.332-4.003-2.701-5.755-4.096
	c-0.099-0.079-0.194-0.156-0.29-0.234c-0.462-0.372-0.91-0.746-1.347-1.122c-0.124-0.106-0.245-0.212-0.369-0.319
	c-0.418-0.366-0.824-0.733-1.218-1.104c-0.101-0.096-0.208-0.191-0.309-0.287c-0.97-0.926-1.865-1.858-2.679-2.795
	c-0.091-0.104-0.173-0.209-0.261-0.313c-0.301-0.354-0.594-0.71-0.87-1.067c-0.121-0.151-0.233-0.306-0.349-0.46
	c-0.235-0.311-0.461-0.625-0.677-0.938c-0.11-0.164-0.224-0.324-0.331-0.489c-0.211-0.322-0.41-0.644-0.602-0.966
	c-0.088-0.145-0.179-0.289-0.262-0.435c-0.262-0.463-0.51-0.924-0.731-1.387c-1.503-3.144-2.039-6.28-1.437-9.306
	c0.071-0.36,0.163-0.715,0.265-1.067c-0.265,0.723-0.487,1.458-0.636,2.215c-0.102,0.509-0.168,1.018-0.215,1.529
	c-0.009,0.092-0.018,0.183-0.025,0.275c-0.037,0.491-0.048,0.985-0.037,1.481c0.001,0.096,0.009,0.194,0.012,0.29
	c0.02,0.51,0.06,1.021,0.132,1.533c0.001,0.026,0.009,0.05,0.012,0.074c0.07,0.498,0.172,0.996,0.288,1.495
	c0.023,0.096,0.044,0.192,0.067,0.288c0.123,0.495,0.272,0.992,0.44,1.489c0.035,0.109,0.077,0.218,0.115,0.327
	c0.18,0.505,0.378,1.011,0.601,1.516c0.024,0.055,0.054,0.109,0.078,0.164c0.214,0.473,0.45,0.944,0.701,1.415
	c0.058,0.105,0.11,0.21,0.169,0.316c0.267,0.485,0.555,0.972,0.864,1.456c0.079,0.127,0.162,0.252,0.244,0.379
	c0.316,0.487,0.651,0.973,1.006,1.459c0.064,0.088,0.135,0.176,0.201,0.265c0.324,0.432,0.664,0.865,1.018,1.297
	c0.098,0.117,0.191,0.237,0.289,0.353c0.393,0.467,0.804,0.93,1.229,1.393c0.131,0.144,0.264,0.287,0.401,0.431
	c0.435,0.46,0.879,0.92,1.345,1.376c0.121,0.119,0.249,0.236,0.37,0.355c0.404,0.387,0.82,0.774,1.248,1.16
	c0.146,0.13,0.288,0.264,0.437,0.395c0.495,0.439,1.011,0.876,1.536,1.309c0.188,0.156,0.38,0.312,0.57,0.467
	c0.533,0.429,1.073,0.856,1.631,1.279c0.185,0.141,0.377,0.282,0.566,0.422c0.217,0.16,0.43,0.322,0.65,0.482
	c2.663,1.936,5.608,3.814,8.805,5.608c12.79,11.852,26.492,21.722,40.277,28.971c1.059-4.57,2.11-9.135,3.156-13.694
	c0.795,0.156,1.591,0.296,2.378,0.438c-0.539,2.367-1.083,4.731-1.627,7.089c3.607-1.626,7.542-3.509,9.973-4.993
	c0.379-0.23,0.725-0.453,1.023-0.661c0,0,0.004-0.001,0.004-0.003c0.622,0.078,1.243,0.159,1.86,0.227
	c0.066,0.008,0.133,0.014,0.199,0.022c1.043,0.115,2.082,0.22,3.115,0.313c0.238,0.022,0.471,0.037,0.709,0.058
	c0.859,0.073,1.719,0.147,2.57,0.207c0.531,0.036,1.049,0.062,1.574,0.093c0.556,0.034,1.119,0.071,1.673,0.1
	c1.084,0.051,2.156,0.092,3.223,0.121c22.707-0.627,40.047-7.084,44.77-17.784c0.451-1.015,0.793-2.066,1.012-3.156
	c0.094-0.478,0.156-0.96,0.203-1.442C188.41,78.431,169.918,84.25,146.225,83.594"/>
<path fill="#DF0E33" d="M164.053,35.287c0.004,0.002,0.006,0.007,0.006,0.011c0.24,0.427,0.459,0.853,0.664,1.28
	c0.033,0.069,0.066,0.139,0.1,0.208c0.205,0.43,0.396,0.86,0.57,1.287v0.006c14.377,8.291,22.672,18.321,20.871,27.373
	c-1.508,7.603-9.854,13.122-22.234,15.979c14.248-1.78,24.853-6.479,28.832-13.469C193.943,56.857,182.568,44.725,164.053,35.287
	 M150.736,31.173l-5,3.356c-1.932-2.081-4.312-4.003-7.261-5.552l-7.704,5.135c0,0,2.374,2.454,4.952,7.138l-7.542,5.069
	c4.503,8.467,5.513,16.042,5.513,16.042c2.74-2.349,5.164-4.539,7.328-6.567c0.637,3.103,1.053,6.513,1.121,10.23
	c0,0,7.702-4.401,11.737-12.472c0,0-0.176-3.949-2.014-8.896c2.406-2.772,3.482-4.309,3.482-4.309
	C154.062,34.515,150.736,31.173,150.736,31.173"/>
</svg>
