<?xml version="1.0" encoding="UTF-8" standalone="no"?>
<svg
   xmlns:dc="http://purl.org/dc/elements/1.1/"
   xmlns:cc="http://creativecommons.org/ns#"
   xmlns:rdf="http://www.w3.org/1999/02/22-rdf-syntax-ns#"
   xmlns:svg="http://www.w3.org/2000/svg"
   xmlns="http://www.w3.org/2000/svg"
   xmlns:sodipodi="http://sodipodi.sourceforge.net/DTD/sodipodi-0.dtd"
   xmlns:inkscape="http://www.inkscape.org/namespaces/inkscape"
   viewBox="0 0 439.37064 356.5041"
   height="356.50412"
   width="439.37064"
   xml:space="preserve"
   version="1.1"
   id="svg2"
   sodipodi:docname="agile42_slogan_vertical_RGB.svg"
   inkscape:version="0.92.2 (5c3e80d, 2017-08-06)"><sodipodi:namedview
     pagecolor="#ffffff"
     bordercolor="#666666"
     borderopacity="1"
     objecttolerance="10"
     gridtolerance="10"
     guidetolerance="10"
     inkscape:pageopacity="0"
     inkscape:pageshadow="2"
     inkscape:window-width="1364"
     inkscape:window-height="1684"
     id="namedview3841"
     showgrid="false"
     fit-margin-top="0"
     fit-margin-left="0"
     fit-margin-right="0"
     fit-margin-bottom="0"
     inkscape:zoom="1.3227381"
     inkscape:cx="218.83436"
     inkscape:cy="77.913476"
     inkscape:window-x="-11"
     inkscape:window-y="0"
     inkscape:window-maximized="0"
     inkscape:current-layer="svg2" /><metadata
     id="metadata8"><rdf:RDF><cc:Work
         rdf:about=""><dc:format>image/svg+xml</dc:format><dc:type
           rdf:resource="http://purl.org/dc/dcmitype/StillImage" /><dc:title></dc:title></cc:Work></rdf:RDF></metadata><defs
     id="defs6"><clipPath
       id="clipPath16"
       clipPathUnits="userSpaceOnUse"><path
         id="path18"
         d="M 0,841.89 H 595.28 V 0 H 0 Z"
         inkscape:connector-curvature="0" /></clipPath></defs><g
     transform="matrix(1.25,0,0,-1.25,-153.21563,804.77188)"
     id="g10"><g
       id="g12"><g
         clip-path="url(#clipPath16)"
         id="g14"><g
           transform="translate(335.7207,546.7685)"
           id="g20"><path
             id="path22"
             style="fill:#387fb0;fill-opacity:1;fill-rule:evenodd;stroke:none"
             d="m 0,0 c -4.16,-14.438 -24.785,-9.175 -26.862,-13.968 -4.773,-10.618 -3.976,-28.674 -11.604,-32.657 -5.084,2.391 -8.767,7.814 -11.071,16.217 -2.297,8.388 -6.325,13.802 -12.048,16.208 -2.52,0.315 -5.379,0.489 -8.572,0.489 -2.361,0 -6.004,-0.145 -10.846,-0.365 -4.828,-0.283 -8.35,-0.362 -10.599,-0.362 -14.249,0 -23.578,4.678 -27.859,14.023 -1.58,2.059 -2.356,4.47 -2.356,7.158 0,1.284 1.494,6.598 4.504,15.951 l 76.687,74.11 c 1.133,0.134 2.16,0.245 3.11,0.245 5.094,0 9.38,-2.34 12.869,-6.941 0.659,-3.788 0.947,-8.069 0.947,-12.84 0,-3.836 -0.271,-9.782 -0.821,-17.876 -0.578,-8.12 -0.828,-14.116 -0.828,-18.091 C -25.349,24.136 -19.139,3.306 0,0 m -49.887,38.903 c -0.324,2.549 -1.76,4.46 -4.295,5.725 -2.53,1.285 -5.011,2.45 -7.403,3.583 -5.24,-4.135 -10.479,-8.332 -15.719,-12.647 -5.878,-5.709 -8.329,-11.512 -7.367,-17.39 2.06,-2.848 5.237,-4.768 9.513,-5.722 3.804,-0.302 7.649,-0.695 11.448,-1.161 9.705,4.109 14.52,11.403 14.52,21.93 0,1.855 -0.237,3.784 -0.697,5.682"
             inkscape:connector-curvature="0" /></g><g
           transform="translate(410.2285,604.2382)"
           id="g24"><path
             id="path26"
             style="fill:#387fb0;fill-opacity:1;fill-rule:nonzero;stroke:none"
             d="m 0,0 c -0.569,-9.782 -4.296,-18.832 -11.269,-27.157 -2.952,-3.49 -10.326,-10.236 -22.113,-20.337 -9.947,-8.409 -17.005,-16.063 -21.11,-22.894 2.155,-5.359 7.142,-8.648 15.038,-9.842 6.837,-0.678 13.762,-1.357 20.737,-1.998 7.348,-1.474 11.674,-5.422 13.09,-11.876 -6.083,-5.504 -14.995,-8.259 -26.75,-8.259 -4.165,0 -9.667,0.328 -16.491,1.008 -8.349,0.953 -13.459,1.484 -15.48,1.605 -12.072,1.902 -18.591,6.372 -19.546,13.486 l 1.847,11.884 c 18.893,18.886 29.968,27.402 33.179,30.719 11.622,12.886 20.8,27.896 27.519,39.87 -3.862,7.862 -11.211,11.839 -21.875,11.839 -3.935,0 -7.665,-0.673 -11.268,-2.017 -3.104,-2.305 -6.208,-4.513 -9.294,-6.618 -3.619,-2.537 -7.083,-3.642 -10.443,-3.204 -3.888,2.887 -5.828,6.008 -5.828,9.206 0,1.625 0.597,3.106 1.82,4.422 8.438,8.987 16.972,15.499 25.519,19.5 2.285,0.295 4.496,0.422 6.634,0.422 9.948,0 18.94,-2.712 27.066,-8.141 C -10.912,16.238 -4.549,9.005 0,0"
             inkscape:connector-curvature="0" /></g><g
           transform="translate(217.0151,456.0849)"
           id="g28"><path
             id="path30"
             style="fill:#a5ce3d;fill-opacity:1;fill-rule:nonzero;stroke:none"
             d="m 0,0 c 0.144,-0.068 8.029,19.873 -23.028,4.466 -5.959,-3.211 -10.553,-8.253 -9.965,-13.013 1.652,-6.093 5.272,-9.155 10.863,-9.155 1.054,0 4.936,-0.557 6.015,-0.323 2.109,0.278 8.561,0.295 9.744,2.92 C -3.198,-12.694 -1.09,-7.647 0,0 m 91.121,31.036 c 0.035,-0.391 0.078,-0.868 0.078,-1.497 0,-0.328 -0.043,-0.654 -0.078,-0.95 V 17.484 C 91.041,11.018 91.301,5.521 91.875,0.939 91.367,0.03 91.121,-1.329 91.121,-3.138 V -4.99 -6.705 c 0,-3.769 -1.602,-5.701 -4.812,-5.904 l -3.118,3.09 v 34.228 c -2.014,0.176 -3.053,0.732 -3.053,1.75 0,1.033 0.883,2.311 2.622,3.765 -2.464,-0.928 -4.851,-1.437 -7.259,-1.437 -1.028,0 -2.264,-0.862 -3.661,-2.644 0.889,-2.622 1.318,-5.719 1.318,-9.266 0,-2.335 -0.263,-5.897 -0.802,-10.774 -0.547,-4.812 -0.858,-8.432 -0.858,-10.817 0,-1.244 0.071,-2.389 0.238,-3.489 L 59.163,-22.309 c -5.337,-5.439 -10.514,-8.321 -15.616,-8.642 l -0.19,0.121 c -1.494,-0.682 -5.83,0.717 -5.83,0.717 -0.561,0 -4.455,3.117 -6.045,3.117 -2.655,0 -7.734,-1.719 -12.54,-3.554 -2.005,-4.481 -5.47,-6.689 -10.288,-11.248 -4.046,-2.897 -10.738,-4.441 -12.874,-4.441 -15.784,0 -30.204,10.231 -43.246,30.665 -1.661,2.752 -2.467,5.489 -2.467,8.2 0,3.344 0.88,5.228 4.557,11.294 6.135,25.537 64.086,7.817 39.407,31.998 -30.25,12.331 -16.196,-14.77 -38.99,-8.597 -3.904,2.903 4.985,25.227 17.435,33.253 4.634,2.973 9.306,4.477 14.043,4.477 3.079,0 5.707,-0.708 7.822,-2.12 C 5.975,55.284 13.99,47.232 18.378,38.82 c 0.649,-3.659 1.127,-7.925 1.477,-12.837 v -49.114 c 1.24,-0.095 2.065,-0.115 2.183,-0.115 3.218,0 7.554,0.717 12.964,2.185 0.137,0.903 0.521,2.412 1.093,4.624 0.581,1.916 1.471,2.296 2.635,1.341 1.607,-1.664 2.961,-3.163 4.054,-4.456 0.385,0.16 0.81,0.341 1.245,0.501 4.927,1.818 7.546,2.858 7.932,3.083 2.511,1.579 3.722,4.173 3.492,7.765 -1.092,2.245 -3.232,3.393 -6.472,3.393 h -2.05 -2.03 c -2.073,0 -3.602,0.373 -4.667,1.143 -9.518,6.913 -14.317,13.735 -14.317,20.544 0,1.04 0.127,2.088 0.315,3.181 0,6.882 4.659,13.734 14.002,20.557 3.123,0.644 6.085,0.935 8.919,0.935 7.172,0 16.368,-6.675 16.368,-6.675 0,0 6.557,-3.383 9.98,-3.218 2.852,0.251 5.484,0.742 7.845,1.574 0.717,0.877 1.328,1.539 1.981,2.063 0.19,0.226 0.403,0.323 0.581,0.368 0.724,0.482 1.379,0.692 2,0.692 1.223,0 2.3,-0.834 3.213,-2.599 z M 59.79,13.486 c 0.805,1.296 1.189,2.86 1.189,4.743 0,1.932 -0.384,3.598 -1.189,5.032 -2.044,3.679 -6.188,5.526 -12.46,5.526 -0.88,0 -1.769,-0.017 -2.697,-0.098 -1.058,-1.035 -2.088,-2.064 -3.057,-3.08 -0.99,-1.065 -1.796,-2.26 -2.392,-3.596 -0.805,-1.163 -1.256,-2.466 -1.256,-3.852 0,-3.582 1.867,-6.595 5.619,-9.038 2.146,-0.757 4.334,-1.131 6.592,-1.131 5.013,0 8.253,1.8 9.651,5.494 m 51.783,-4.932 v -6.02 c 0.07,-2.782 0.04,-5.038 -0.136,-6.878 -0.165,-2.581 -0.521,-4.741 -1.095,-6.466 l -2.286,-2.341 c -0.982,-0.822 -1.872,-1.238 -2.784,-1.238 -0.467,0 -0.888,0.06 -1.328,0.176 L 99.642,-8.8 c -0.21,2.647 -0.386,5.494 -0.386,8.537 0,2.721 0.176,6.641 0.444,11.815 0.313,5.145 0.439,8.977 0.439,11.418 0,10.785 -2.276,19.374 -6.862,25.761 0.936,3.635 2.769,5.84 5.348,6.465 0.922,0.396 1.759,0.571 2.612,0.571 1.669,0 3.373,-0.95 5.155,-2.898 1.336,-1.341 2.639,-2.748 3.933,-4.138 0.591,-3.858 0.947,-8.387 1.112,-13.442 0.176,-3.637 0.206,-8.211 0.136,-13.732 z m 32.579,9.675 c 0.544,0.736 0.795,1.588 0.795,2.621 0,1.023 -0.251,1.985 -0.795,2.742 -1.488,2.017 -4.403,3.033 -8.805,3.033 -0.637,0 -1.305,0 -1.965,-0.028 -0.761,-0.579 -1.433,-1.156 -2.145,-1.712 -0.732,-0.567 -1.245,-1.245 -1.714,-1.988 -0.571,-0.624 -0.832,-1.325 -0.832,-2.11 0,-1.957 1.301,-3.591 3.93,-4.947 1.539,-0.429 3.067,-0.664 4.671,-0.664 3.584,0 5.888,1.027 6.86,3.053 M 154.811,13.8 c -1.629,-3.113 -4.656,-4.883 -8.992,-5.336 -3.488,-0.384 -6.952,-0.722 -10.429,-1.063 -3.441,-1.083 -5.256,-4.023 -5.433,-8.797 2.915,-3.665 5.731,-5.529 8.297,-5.529 1.214,0 2.394,0.386 3.573,1.178 0.603,0.228 1.816,1.203 3.709,2.882 1.451,1.301 2.799,1.928 4.03,1.928 0.664,0 1.368,-0.146 2.04,-0.459 1.426,-0.562 2.141,-1.263 2.141,-2.216 0,-0.619 -0.339,-1.503 -1.076,-2.772 -0.674,-1.183 -1.065,-2.062 -1.065,-2.666 -5.611,-5.873 -10.394,-8.79 -14.446,-8.79 -1.702,0 -3.442,0.439 -5.068,1.32 -4.966,1.941 -8.399,5.048 -10.414,9.324 -1.529,3.271 -2.391,7.695 -2.599,13.234 v 14.215 c 0.924,3.387 2.995,6.687 6.263,9.925 3.248,3.263 6.607,5.404 10.048,6.362 2.61,0.12 5.293,-0.647 8.085,-2.347 0.87,-0.505 3.171,-2.26 6.878,-5.303 3.669,-4.115 5.514,-7.689 5.514,-10.729 0,-1.502 -0.339,-2.94 -1.056,-4.361"
             inkscape:connector-curvature="0" /></g><g
           transform="translate(128.8745,372.6454)"
           id="g32"><path
             id="path34"
             style="fill:#333332;fill-opacity:1;fill-rule:nonzero;stroke:none"
             d="m 0,0 c -1.211,0 -4.027,-0.213 -4.027,-3.396 0,-1.906 0.961,-2.604 1.788,-2.604 1.028,0 1.906,0.761 2.176,2.207 C 0,-3.519 0,-3.209 0,-2.965 Z M 0.332,-7.576 0.184,-6.03 H 0.091 c -0.637,-1.124 -1.667,-1.789 -2.91,-1.789 -1.969,0 -3.483,1.672 -3.483,4.184 0,3.664 2.941,5.306 6.239,5.332 v 0.456 c 0,1.969 -0.483,3.329 -2.334,3.329 -0.91,0 -1.723,-0.296 -2.423,-0.754 l -0.509,1.635 c 0.604,0.456 1.968,0.971 3.419,0.971 2.942,0 4.212,-1.936 4.212,-5.24 V -4.24 c 0,-1.125 0,-2.4 0.153,-3.336 z"
             inkscape:connector-curvature="0" /></g><g
           transform="translate(141.0034,374.6757)"
           id="g36"><path
             id="path38"
             style="fill:#333332;fill-opacity:1;fill-rule:nonzero;stroke:none"
             d="m 0,0 c 0,0.361 -0.029,0.762 -0.125,1.059 -0.266,1.005 -0.784,2.246 -2.119,2.246 -1.693,0 -2.603,-2.277 -2.603,-5.517 0,-3.757 1.18,-5.451 2.603,-5.451 0.699,0 1.61,0.331 2.097,2.085 C -0.029,-5.122 0,-4.666 0,-4.242 Z M 2.425,5.062 C 2.392,4.032 2.301,2.73 2.301,0.482 v -8.21 c 0,-3.846 -0.482,-5.3 -1.452,-6.363 -0.878,-0.999 -2.275,-1.573 -3.909,-1.573 -1.247,0 -2.452,0.3 -3.214,0.722 l 0.551,1.824 c 0.569,-0.301 1.543,-0.64 2.721,-0.64 1.85,0 3.002,1.153 3.002,4.487 v 1.483 h -0.061 c -0.517,-1.153 -1.577,-1.788 -2.818,-1.788 -2.604,0 -4.307,2.942 -4.307,7.245 0,5.393 2.458,7.635 4.607,7.635 1.575,0 2.305,-1.029 2.729,-1.907 h 0.065 l 0.118,1.665 z"
             inkscape:connector-curvature="0" /></g><path
           id="path40"
           style="fill:#333332;fill-opacity:1;fill-rule:nonzero;stroke:none"
           d="m 146.554,379.737 h 2.332 v -14.668 h -2.332 z m 2.515,3.788 c 0.029,-0.908 -0.543,-1.515 -1.424,-1.515 -0.759,0 -1.331,0.607 -1.331,1.515 0,0.909 0.603,1.511 1.36,1.511 0.852,0 1.395,-0.602 1.395,-1.511"
           inkscape:connector-curvature="0" /><path
           id="path42"
           style="fill:#333332;fill-opacity:1;fill-rule:nonzero;stroke:none"
           d="m 152.137,386.042 h 2.33 v -20.973 h -2.33 z"
           inkscape:connector-curvature="0" /><g
           transform="translate(164.1665,373.914)"
           id="g44"><path
             id="path46"
             style="fill:#333332;fill-opacity:1;fill-rule:nonzero;stroke:none"
             d="M 0,0 C 0.062,2.943 -1.062,4.246 -2.182,4.246 -3.696,4.246 -4.484,2.001 -4.574,0 Z m -4.604,-1.725 c 0.03,-4.486 1.784,-5.447 3.479,-5.447 1.004,0 1.853,0.24 2.425,0.568 l 0.369,-1.724 c -0.823,-0.456 -2.061,-0.696 -3.216,-0.696 -3.515,0 -5.333,2.877 -5.333,7.361 0,4.757 2.001,7.728 4.94,7.728 3.003,0 4.177,-3.154 4.177,-6.49 0,-0.538 0,-0.932 -0.029,-1.3 z"
             inkscape:connector-curvature="0" /></g><g
           transform="translate(174.3833,372.4003)"
           id="g48"><path
             id="path50"
             style="fill:#333332;fill-opacity:1;fill-rule:nonzero;stroke:none"
             d="M 0,0 V 5.58 C 0,6.945 0.092,8.153 0.177,9.461 H 0.062 C -0.604,7.883 -1.028,6.945 -1.606,5.728 L -4.333,0.063 V 0 Z m 0,-7.331 v 5.428 h -6.543 v 1.572 l 6.395,12.699 H 2.123 V 0 H 4.271 V -1.903 H 2.123 v -5.428 z"
             inkscape:connector-curvature="0" /></g><g
           transform="translate(179.9316,365.0693)"
           id="g52"><path
             id="path54"
             style="fill:#333332;fill-opacity:1;fill-rule:nonzero;stroke:none"
             d="m 0,0 v 1.518 l 1.673,2.265 c 2.331,3.251 5.121,6.944 5.121,10.641 0,2.18 -0.976,3.514 -2.822,3.514 -1.422,0 -2.33,-0.755 -2.849,-1.09 L 0.55,18.604 c 0.697,0.58 2.053,1.335 3.846,1.335 3.277,0 4.698,-2.424 4.698,-5.388 0,-3.705 -2.426,-7.276 -4.848,-10.61 L 2.913,2.12 V 2.06 H 9.485 V 0 Z"
             inkscape:connector-curvature="0" /></g><path
           id="path56"
           style="fill:#333332;fill-opacity:1;fill-rule:nonzero;stroke:none"
           d="m 202.942,372.069 h -6.638 v 1.82 h 6.638 z"
           inkscape:connector-curvature="0" /><g
           transform="translate(211.7656,383.4042)"
           id="g58"><path
             id="path60"
             style="fill:#333332;fill-opacity:1;fill-rule:nonzero;stroke:none"
             d="M 0,0 H -3.729 V 2.09 H 6.053 V 0 H 2.326 V -18.335 H 0 Z"
             inkscape:connector-curvature="0" /></g><g
           transform="translate(219.5244,386.0419)"
           id="g62"><path
             id="path64"
             style="fill:#333332;fill-opacity:1;fill-rule:nonzero;stroke:none"
             d="m 0,0 h 2.332 v -7.882 h 0.061 c 0.299,0.517 0.758,0.973 1.211,1.278 0.549,0.332 1.121,0.542 1.965,0.542 1.853,0 3.432,-1.484 3.432,-5.181 v -9.73 H 6.663 v 9.46 c 0,1.788 -0.389,3.482 -1.966,3.482 -1.093,0 -1.911,-0.788 -2.274,-2.336 -0.064,-0.332 -0.091,-0.755 -0.091,-1.115 v -9.491 H 0 Z"
             inkscape:connector-curvature="0" /></g><g
           transform="translate(238.042,373.914)"
           id="g66"><path
             id="path68"
             style="fill:#333332;fill-opacity:1;fill-rule:nonzero;stroke:none"
             d="M 0,0 C 0.069,2.943 -1.051,4.246 -2.178,4.246 -3.689,4.246 -4.479,2.001 -4.572,0 Z m -4.604,-1.725 c 0.032,-4.486 1.794,-5.447 3.491,-5.447 0.996,0 1.847,0.24 2.42,0.568 l 0.361,-1.724 c -0.813,-0.456 -2.053,-0.696 -3.21,-0.696 -3.516,0 -5.33,2.877 -5.33,7.361 0,4.757 1.998,7.728 4.936,7.728 2.999,0 4.184,-3.154 4.184,-6.49 0,-0.538 0,-0.932 -0.028,-1.3 z"
             inkscape:connector-curvature="0" /></g><g
           transform="translate(254.4131,373.0683)"
           id="g70"><path
             id="path72"
             style="fill:#333332;fill-opacity:1;fill-rule:nonzero;stroke:none"
             d="m 0,0 -1.056,5.187 c -0.303,1.451 -0.58,3.151 -0.82,4.668 H -2.004 C -2.243,8.308 -2.546,6.552 -2.812,5.187 L -3.877,0 Z m -4.208,-1.87 -1.368,-6.129 h -2.24 l 4.663,20.425 h 2.579 L 3.97,-7.999 H 1.673 L 0.306,-1.87 Z"
             inkscape:connector-curvature="0" /></g><g
           transform="translate(267.0269,374.6757)"
           id="g74"><path
             id="path76"
             style="fill:#333332;fill-opacity:1;fill-rule:nonzero;stroke:none"
             d="m 0,0 c 0,0.361 -0.036,0.762 -0.121,1.059 -0.272,1.005 -0.789,2.246 -2.12,2.246 -1.695,0 -2.605,-2.277 -2.605,-5.517 0,-3.757 1.18,-5.451 2.605,-5.451 0.694,0 1.601,0.331 2.087,2.085 C -0.036,-5.122 0,-4.666 0,-4.242 Z M 2.421,5.062 C 2.391,4.032 2.307,2.73 2.307,0.482 v -8.21 c 0,-3.846 -0.487,-5.3 -1.462,-6.363 -0.881,-0.999 -2.266,-1.573 -3.901,-1.573 -1.245,0 -2.461,0.3 -3.216,0.722 l 0.551,1.824 c 0.565,-0.301 1.54,-0.64 2.721,-0.64 1.848,0 3,1.153 3,4.487 v 1.483 h -0.065 c -0.509,-1.153 -1.571,-1.788 -2.812,-1.788 -2.605,0 -4.301,2.942 -4.301,7.245 0,5.393 2.457,7.635 4.605,7.635 1.573,0 2.296,-1.029 2.728,-1.907 h 0.052 l 0.13,1.665 z"
             inkscape:connector-curvature="0" /></g><path
           id="path78"
           style="fill:#333332;fill-opacity:1;fill-rule:nonzero;stroke:none"
           d="m 272.578,379.737 h 2.333 v -14.668 h -2.333 z m 2.513,3.788 c 0.031,-0.908 -0.551,-1.515 -1.431,-1.515 -0.744,0 -1.329,0.607 -1.329,1.515 0,0.909 0.613,1.511 1.365,1.511 0.844,0 1.395,-0.602 1.395,-1.511"
           inkscape:connector-curvature="0" /><path
           id="path80"
           style="fill:#333332;fill-opacity:1;fill-rule:nonzero;stroke:none"
           d="m 278.158,386.042 h 2.332 v -20.973 h -2.332 z"
           inkscape:connector-curvature="0" /><g
           transform="translate(290.1895,373.914)"
           id="g82"><path
             id="path84"
             style="fill:#333332;fill-opacity:1;fill-rule:nonzero;stroke:none"
             d="M 0,0 C 0.061,2.943 -1.068,4.246 -2.185,4.246 -3.701,4.246 -4.484,2.001 -4.578,0 Z m -4.609,-1.725 c 0.031,-4.486 1.786,-5.447 3.484,-5.447 0.998,0 1.85,0.24 2.426,0.568 l 0.358,-1.724 c -0.813,-0.456 -2.055,-0.696 -3.212,-0.696 -3.514,0 -5.331,2.877 -5.331,7.361 0,4.757 2.003,7.728 4.939,7.728 2.998,0 4.187,-3.154 4.187,-6.49 0,-0.538 0,-0.932 -0.039,-1.3 z"
             inkscape:connector-curvature="0" /></g><g
           transform="translate(308.8037,365.4355)"
           id="g86"><path
             id="path88"
             style="fill:#333332;fill-opacity:1;fill-rule:nonzero;stroke:none"
             d="m 0,0 c -0.647,-0.336 -1.632,-0.546 -2.918,-0.546 -4,0 -6.838,3.214 -6.838,10.148 0,8.065 3.994,10.636 7.211,10.636 1.238,0 2.116,-0.245 2.545,-0.513 l -0.519,-1.968 c -0.488,0.212 -1,0.424 -2.057,0.424 -2.179,0 -4.738,-2.119 -4.738,-8.367 0,-6.239 2.311,-8.301 4.795,-8.301 0.887,0 1.667,0.212 2.157,0.458 z"
             inkscape:connector-curvature="0" /></g><g
           transform="translate(312.1641,372.4003)"
           id="g90"><path
             id="path92"
             style="fill:#333332;fill-opacity:1;fill-rule:nonzero;stroke:none"
             d="m 0,0 c 0,-2.421 0.422,-5.724 2.553,-5.724 1.998,0 2.386,3.456 2.386,5.724 0,2.25 -0.388,5.704 -2.449,5.704 C 0.393,5.704 0,2.25 0,0 m 7.31,0 c 0,-5.658 -2.635,-7.574 -4.881,-7.574 -2.63,0 -4.757,2.399 -4.757,7.545 0,5.366 2.393,7.608 4.9,7.608 C 5.185,7.579 7.31,5.124 7.31,0"
             inkscape:connector-curvature="0" /></g><g
           transform="translate(327.543,372.6454)"
           id="g94"><path
             id="path96"
             style="fill:#333332;fill-opacity:1;fill-rule:nonzero;stroke:none"
             d="m 0,0 c -1.22,0 -4.031,-0.213 -4.031,-3.396 0,-1.906 0.966,-2.604 1.785,-2.604 1.026,0 1.896,0.761 2.181,2.207 C 0,-3.519 0,-3.209 0,-2.965 Z M 0.324,-7.576 0.173,-6.03 H 0.076 c -0.627,-1.124 -1.663,-1.789 -2.899,-1.789 -1.98,0 -3.486,1.672 -3.486,4.184 0,3.664 2.936,5.306 6.244,5.332 v 0.456 c 0,1.969 -0.486,3.329 -2.336,3.329 -0.912,0 -1.725,-0.296 -2.429,-0.754 l -0.504,1.635 c 0.601,0.456 1.961,0.971 3.413,0.971 2.939,0 4.212,-1.936 4.212,-5.24 V -4.24 c 0,-1.125 0,-2.4 0.157,-3.336 z"
             inkscape:connector-curvature="0" /></g><g
           transform="translate(340.2676,365.4355)"
           id="g98"><path
             id="path100"
             style="fill:#333332;fill-opacity:1;fill-rule:nonzero;stroke:none"
             d="m 0,0 c -0.518,-0.306 -1.397,-0.546 -2.43,-0.546 -3.2,0 -5.359,2.576 -5.359,7.422 0,4.217 2.128,7.638 5.782,7.638 0.799,0 1.641,-0.212 2.072,-0.456 l -0.457,-1.906 c -0.309,0.15 -0.902,0.393 -1.67,0.393 -2.326,0 -3.395,-2.788 -3.395,-5.669 0,-3.423 1.303,-5.484 3.45,-5.484 0.643,0 1.16,0.155 1.706,0.398 z"
             inkscape:connector-curvature="0" /></g><g
           transform="translate(342.2676,386.0419)"
           id="g102"><path
             id="path104"
             style="fill:#333332;fill-opacity:1;fill-rule:nonzero;stroke:none"
             d="m 0,0 h 2.337 v -7.882 h 0.059 c 0.295,0.517 0.754,0.973 1.209,1.278 0.549,0.332 1.133,0.542 1.977,0.542 1.85,0 3.417,-1.484 3.417,-5.181 v -9.73 H 6.667 v 9.46 c 0,1.788 -0.396,3.482 -1.965,3.482 -1.097,0 -1.908,-0.788 -2.272,-2.336 -0.065,-0.332 -0.093,-0.755 -0.093,-1.115 v -9.491 H 0 Z"
             inkscape:connector-curvature="0" /></g><path
           id="path106"
           style="fill:#333332;fill-opacity:1;fill-rule:nonzero;stroke:none"
           d="m 354.556,379.737 h 2.323 v -14.668 h -2.323 z m 2.51,3.788 c 0.026,-0.908 -0.547,-1.515 -1.425,-1.515 -0.755,0 -1.334,0.607 -1.334,1.515 0,0.909 0.611,1.511 1.367,1.511 0.845,0 1.392,-0.602 1.392,-1.511"
           inkscape:connector-curvature="0" /><g
           transform="translate(360.1289,375.9482)"
           id="g108"><path
             id="path110"
             style="fill:#333332;fill-opacity:1;fill-rule:nonzero;stroke:none"
             d="M 0,0 C 0,1.727 -0.1,2.606 -0.127,3.789 H 1.911 L 2.026,2.032 h 0.057 c 0.644,1.182 1.826,1.999 3.374,1.999 2.02,0 3.544,-1.513 3.544,-5.059 v -9.851 H 6.664 v 9.46 c 0,1.729 -0.331,3.482 -2.026,3.482 -0.966,0 -1.911,-0.82 -2.211,-2.395 -0.062,-0.366 -0.089,-0.817 -0.089,-1.3 v -9.247 H 0 Z"
             inkscape:connector-curvature="0" /></g><g
           transform="translate(378.9561,374.6757)"
           id="g112"><path
             id="path114"
             style="fill:#333332;fill-opacity:1;fill-rule:nonzero;stroke:none"
             d="m 0,0 c 0,0.361 -0.031,0.762 -0.123,1.059 -0.268,1.005 -0.788,2.246 -2.122,2.246 -1.694,0 -2.602,-2.277 -2.602,-5.517 0,-3.757 1.184,-5.451 2.602,-5.451 0.692,0 1.605,0.331 2.091,2.085 C -0.031,-5.122 0,-4.666 0,-4.242 Z M 2.419,5.062 C 2.385,4.032 2.293,2.73 2.293,0.482 v -8.21 c 0,-3.846 -0.487,-5.3 -1.444,-6.363 -0.88,-0.999 -2.276,-1.573 -3.909,-1.573 -1.252,0 -2.456,0.3 -3.217,0.722 l 0.555,1.824 c 0.567,-0.301 1.536,-0.64 2.715,-0.64 1.843,0 3.007,1.153 3.007,4.487 v 1.483 h -0.062 c -0.51,-1.153 -1.58,-1.788 -2.824,-1.788 -2.598,0 -4.297,2.942 -4.297,7.245 0,5.393 2.453,7.635 4.6,7.635 1.585,0 2.305,-1.029 2.723,-1.907 h 0.07 l 0.122,1.665 z"
             inkscape:connector-curvature="0" /></g><g
           transform="translate(398.3555,365.4355)"
           id="g116"><path
             id="path118"
             style="fill:#333332;fill-opacity:1;fill-rule:nonzero;stroke:none"
             d="m 0,0 c -0.639,-0.336 -1.642,-0.546 -2.914,-0.546 -3.999,0 -6.84,3.214 -6.84,10.148 0,8.065 3.998,10.636 7.212,10.636 1.237,0 2.116,-0.245 2.542,-0.513 l -0.513,-1.968 c -0.485,0.212 -1.006,0.424 -2.061,0.424 -2.179,0 -4.732,-2.119 -4.732,-8.367 0,-6.239 2.3,-8.301 4.785,-8.301 0.879,0 1.675,0.212 2.163,0.458 z"
             inkscape:connector-curvature="0" /></g><g
           transform="translate(401.7207,372.4003)"
           id="g120"><path
             id="path122"
             style="fill:#333332;fill-opacity:1;fill-rule:nonzero;stroke:none"
             d="m 0,0 c 0,-2.421 0.424,-5.724 2.55,-5.724 2,0 2.393,3.456 2.393,5.724 0,2.25 -0.393,5.704 -2.452,5.704 C 0.398,5.704 0,2.25 0,0 m 7.31,0 c 0,-5.658 -2.638,-7.574 -4.879,-7.574 -2.637,0 -4.769,2.399 -4.769,7.545 0,5.366 2.402,7.608 4.912,7.608 C 5.187,7.579 7.31,5.124 7.31,0"
             inkscape:connector-curvature="0" /></g><g
           transform="translate(411.6406,375.9482)"
           id="g124"><path
             id="path126"
             style="fill:#333332;fill-opacity:1;fill-rule:nonzero;stroke:none"
             d="m 0,0 c 0,1.727 -0.088,2.606 -0.117,3.789 h 2.03 L 2.021,1.972 h 0.071 c 0.639,1.179 1.753,2.059 3.301,2.059 1.367,0 2.515,-0.667 3.062,-2.242 h 0.064 c 0.394,0.729 0.912,1.299 1.446,1.672 0.578,0.391 1.278,0.57 2.04,0.57 1.965,0 3.513,-1.453 3.513,-5.18 v -9.73 h -2.306 v 9.182 c 0,1.908 -0.269,3.76 -2.058,3.76 -0.969,0 -1.819,-0.82 -2.158,-2.181 C 8.94,-0.511 8.913,-0.967 8.913,-1.452 v -9.427 h -2.3 v 9.607 c 0,1.641 -0.306,3.335 -2.041,3.335 -0.933,0 -1.906,-0.82 -2.176,-2.366 C 2.339,-0.698 2.304,-1.121 2.304,-1.576 v -9.303 H 0 Z"
             inkscape:connector-curvature="0" /></g><g
           transform="translate(432.7393,370.4609)"
           id="g128"><path
             id="path130"
             style="fill:#333332;fill-opacity:1;fill-rule:nonzero;stroke:none"
             d="m 0,0 c 0,-0.451 0,-0.872 0.092,-1.212 0.462,-2.089 1.518,-2.479 2.15,-2.479 1.95,0 2.543,2.667 2.543,5.63 0,3.038 -0.72,5.581 -2.573,5.581 C 1.163,7.52 0.218,6.184 0.058,4.85 0,4.491 0,4.124 0,3.728 Z m -2.337,4.697 c 0,2.248 -0.079,3.55 -0.106,4.579 h 2.084 l 0.121,-1.875 h 0.061 c 0.791,1.577 1.932,2.118 3.09,2.118 2.546,0 4.239,-2.732 4.239,-7.547 0,-5.42 -2.242,-7.607 -4.548,-7.607 -1.361,0 -2.151,0.877 -2.546,1.702 H 0 v -7.274 h -2.337 z"
             inkscape:connector-curvature="0" /></g><g
           transform="translate(447.998,372.6454)"
           id="g132"><path
             id="path134"
             style="fill:#333332;fill-opacity:1;fill-rule:nonzero;stroke:none"
             d="m 0,0 c -1.218,0 -4.038,-0.213 -4.038,-3.396 0,-1.906 0.973,-2.604 1.793,-2.604 1.027,0 1.91,0.761 2.183,2.207 C 0,-3.519 0,-3.209 0,-2.965 Z M 0.323,-7.576 0.172,-6.03 H 0.089 c -0.637,-1.124 -1.673,-1.789 -2.918,-1.789 -1.96,0 -3.48,1.672 -3.48,4.184 0,3.664 2.933,5.306 6.247,5.332 v 0.456 c 0,1.969 -0.486,3.329 -2.343,3.329 -0.909,0 -1.725,-0.296 -2.413,-0.754 l -0.52,1.635 c 0.609,0.456 1.962,0.971 3.42,0.971 2.939,0 4.216,-1.936 4.216,-5.24 V -4.24 c 0,-1.125 0,-2.4 0.139,-3.336 z"
             inkscape:connector-curvature="0" /></g><g
           transform="translate(453.5674,375.9482)"
           id="g136"><path
             id="path138"
             style="fill:#333332;fill-opacity:1;fill-rule:nonzero;stroke:none"
             d="M 0,0 C 0,1.727 -0.096,2.606 -0.125,3.789 H 1.911 L 2.035,2.032 h 0.073 c 0.626,1.182 1.803,1.999 3.353,1.999 2.026,0 3.548,-1.513 3.548,-5.059 v -9.851 H 6.671 v 9.46 c 0,1.729 -0.33,3.482 -2.029,3.482 -0.967,0 -1.908,-0.82 -2.214,-2.395 -0.058,-0.366 -0.086,-0.817 -0.086,-1.3 v -9.247 H 0 Z"
             inkscape:connector-curvature="0" /></g><g
           transform="translate(466.792,379.7372)"
           id="g140"><path
             id="path142"
             style="fill:#333332;fill-opacity:1;fill-rule:nonzero;stroke:none"
             d="m 0,0 1.939,-8.424 c 0.269,-1.156 0.42,-2.121 0.606,-3.029 h 0.059 c 0.149,0.813 0.402,1.936 0.634,2.997 L 4.966,0 H 7.277 L 4.872,-9.424 c -0.898,-3.698 -1.895,-7.243 -3.622,-9.457 -1.037,-1.303 -2.134,-2.001 -2.644,-2.242 l -0.847,1.997 c 0.669,0.369 1.385,1.009 2.065,1.853 0.603,0.763 1.079,1.755 1.324,2.455 0.133,0.36 0.159,0.516 0.159,0.728 0,0.181 0,0.359 -0.057,0.547 L -2.456,0 Z"
             inkscape:connector-curvature="0" /></g></g></g></g></svg>