<?xml version="1.0" encoding="utf-8"?>
<!-- Generator: Adobe Illustrator 15.0.0, SVG Export Plug-In . SVG Version: 6.00 Build 0)  -->
<!DOCTYPE svg PUBLIC "-//W3C//DTD SVG 1.1//EN" "http://www.w3.org/Graphics/SVG/1.1/DTD/svg11.dtd">
<svg version="1.1" id="Layer_2" xmlns="http://www.w3.org/2000/svg" xmlns:xlink="http://www.w3.org/1999/xlink" x="0px" y="0px"
	 width="517px" height="113px" viewBox="0 0 517 113" enable-background="new 0 0 517 113" xml:space="preserve">
<path fill="#00468B" d="M301.428,84.1c0,1.182,0,2.627,0.133,4.066c-0.656-1.439-1.311-2.752-2.101-4.066l-4.856-9.053h-2.887
	v15.486h1.969v-8.924c0-1.185,0-2.627-0.131-4.076c0.656,1.449,1.312,2.762,2.1,4.076l4.856,8.924h2.886V75.047h-1.969V84.1z
	 M258.318,76.482c1.049,0,2.101,0.268,3.021,0.534l0.259-1.71c-1.049-0.396-2.23-0.527-3.411-0.527c-3.94,0-6.168,1.575-6.168,8.142
	c0,6.562,1.969,8.007,6.036,8.007c1.181,0,2.494-0.264,3.543-0.525l-0.259-1.705c-1.052,0.26-2.103,0.389-3.021,0.389
	c-2.756,0-4.071-0.784-4.071-6.301C254.247,77.404,255.562,76.482,258.318,76.482 M275.871,74.779c-3.938,0-6.17,1.575-6.17,8.142
	c0,6.692,2.102,8.007,6.037,8.007h0.133c3.808,0,6.04-1.576,6.04-8.143C281.911,76.094,279.939,74.779,275.871,74.779
	 M275.871,89.221c-2.627,0-3.938-1.055-3.938-6.436c0-5.252,1.311-6.303,3.938-6.303c2.494,0,3.808,1.051,3.808,6.438
	C279.679,88.166,278.365,89.221,275.871,89.221 M318.584,81.738c-2.888-1.313-3.41-1.838-3.41-3.152
	c0-1.312,0.918-2.104,3.148-2.104c1.313,0,2.234,0.268,3.282,0.534l0.263-1.71c-0.914-0.26-2.102-0.527-3.412-0.527
	c-3.807,0-5.383,1.575-5.383,4.071c0,2.23,1.05,3.149,3.938,4.593c2.89,1.445,3.547,1.838,3.547,3.283
	c0,1.575-1.053,2.494-3.416,2.494c-1.311,0-2.492-0.264-3.675-0.523l-0.261,1.705c1.311,0.262,2.491,0.525,3.936,0.525
	c3.68,0,5.517-1.707,5.517-4.466C322.657,84.1,321.736,83.308,318.584,81.738 M386.476,90.533h2.232V75.047h-2.232V90.533z
	 M340.99,84.624c0,3.153-0.652,4.597-3.41,4.597c-2.889,0-3.542-1.443-3.542-4.597v-9.577h-2.235v9.577
	c0,4.333,1.314,6.304,5.646,6.304c4.334,0,5.779-2.102,5.779-6.436v-9.445h-2.237V84.624z M408.883,84.1
	c0,1.182,0.135,2.627,0.266,4.066c-0.791-1.439-1.449-2.752-2.101-4.066l-4.857-9.053h-2.89v15.486h1.967v-8.924
	c0-1.185-0.129-2.627-0.129-4.076c0.657,1.449,1.316,2.762,1.967,4.076l4.856,8.924h2.889V75.047h-1.968V84.1z M426.17,83.573h3.151
	v5.124c-0.525,0.26-1.442,0.389-2.358,0.389c-2.76,0-3.942-0.92-3.942-6.301s1.441-6.303,4.331-6.303
	c1.182,0,2.363,0.268,3.545,0.534l0.263-1.71c-1.182-0.26-2.494-0.527-3.939-0.527c-4.07,0-6.429,1.575-6.429,8.142
	c0,6.562,1.834,8.007,6.172,8.007c1.57,0,3.406-0.395,4.59-0.792v-8.397h-5.383V83.573z M366.696,76.882h4.46v13.651h2.231V76.882
	h4.334v-1.835h-11.025V76.882z M355.477,75.047h-2.21v15.486h8.089v-1.707h-5.879V75.047z M197.154,24.035l-11.502,36.923h5.216
	l3.076-9.9h13.914l3.076,9.9h5.618l-11.637-36.923H197.154z M194.88,46.908l2.944-9.497c1.204-3.614,2.005-6.422,2.941-9.901h0.135
	v0.134c0.938,3.346,1.874,6.154,2.941,9.635l3.077,9.629H194.88z M228.993,34.063h-0.266c-7.09,0-10.569,2.677-10.569,9.502
	c0,4.011,1.202,6.154,2.941,7.493c-1.601,1.069-2.538,2.273-2.538,4.015c0,1.871,1.205,3.076,3.21,3.878
	c-2.674,1.338-4.816,3.345-4.816,6.688c0,4.68,3.08,7.489,11.639,7.489h0.399c8.563-0.129,12.041-3.611,12.041-8.694
	c0-3.613-1.739-5.348-6.018-6.286l-6.023-1.337l-1.336-0.269c-3.479-0.67-4.015-1.336-4.015-2.274c0-0.805,0.401-1.337,1.341-1.873
	c0.802,0.401,2.138,0.536,3.744,0.536h0.266c6.957,0,10.302-2.675,10.302-9.503c0-2.538-0.532-3.878-1.336-4.811l4.281-0.537v-3.212
	h-8.025C233.008,34.335,231.407,34.063,228.993,34.063 M226.184,60.425l2.809,0.533l3.614,0.802
	c2.275,0.536,3.343,1.472,3.343,3.211c0,2.407-1.736,4.415-6.957,4.546h-0.266c-5.349,0-6.687-1.734-6.687-4.409
	C222.04,62.564,223.776,61.227,226.184,60.425 M228.993,49.318h-0.266c-4.013,0-5.483-1.339-5.483-5.889
	c0-4.413,1.47-5.748,5.483-5.748h0.266c3.748,0,5.221,1.471,5.221,5.884C234.213,47.847,232.74,49.318,228.993,49.318
	 M450.045,60.958h5.218V21.759h-5.218V60.958z M435.749,34.063h-0.538c-6.553,0.138-10.832,3.216-10.832,13.916
	c0,11.108,4.01,13.379,10.832,13.514h0.538c3.21,0,5.886-0.402,8.555-1.068l-0.401-3.882c-2.536,0.536-4.541,0.934-7.083,0.934
	h-1.608c-3.746-0.264-5.482-1.871-5.616-8.291h15.904c0-1.207,0.134-2.01,0.134-3.077C445.633,36.609,442.707,34.063,435.749,34.063
	 M429.729,45.705c0.132-6.02,2.009-7.624,5.482-7.624h0.271c3.748,0,5.352,1.337,5.352,7.624H429.729z M463.692,23.096
	c-2.411,0-3.219,0.667-3.219,3.074c0,2.411,0.808,3.079,3.219,3.079c2.54,0,3.21-0.668,3.21-3.079
	C466.902,23.763,466.232,23.096,463.692,23.096 M482.165,34.063h-0.539c-6.563,0.138-10.848,3.216-10.848,13.916
	c0,11.108,4.017,13.379,10.848,13.514h0.539c3.211,0,5.887-0.402,8.564-1.068l-0.398-3.882c-2.545,0.536-4.55,0.934-7.228,0.934
	h-1.478c-3.891-0.264-5.494-1.871-5.631-8.291h15.941c0-1.207,0.129-2.01,0.129-3.077C492.065,36.609,488.993,34.063,482.165,34.063
	 M475.995,45.705c0.27-6.02,2.143-7.624,5.631-7.624h0.266c3.756,0,5.359,1.337,5.359,7.624H475.995z M506.916,25.108
	c1.74,0,3.212,0.265,4.552,0.531l0.537-3.88c-1.606-0.402-3.616-0.669-5.618-0.669c-6.29,0-9.236,2.276-9.236,9.632v4.147h-4.017
	v3.881h4.017v22.208h5.222V38.75h8.026v-3.881h-8.026v-4.415C502.372,26.44,503.976,25.108,506.916,25.108 M461.15,60.958h5.214
	V34.869h-5.214V60.958z M244.917,60.958h5.217V34.869h-5.217V60.958z M275.955,34.063h-0.533
	c-6.689,0.138-10.977,3.216-10.977,13.916c0,11.108,4.15,13.379,10.977,13.514h0.533c3.081,0,5.756-0.402,8.568-1.068l-0.404-3.882
	c-2.542,0.536-4.682,0.934-7.226,0.934h-1.472c-3.883-0.264-5.621-1.871-5.621-8.291h15.789c0.133-1.207,0.133-2.01,0.133-3.077
	C285.723,36.609,282.777,34.063,275.955,34.063 M269.801,45.705c0.137-6.02,2.143-7.624,5.621-7.624h0.266
	c3.75,0,5.219,1.337,5.351,7.624H269.801z M413.14,43.297c6.688-0.802,9.361-3.747,9.361-9.767c0-7.09-3.072-9.232-11.635-9.364
	c-0.404,0-0.669-0.132-1.072-0.132h-10.701v36.923h5.351V43.965h3.209l3.214,5.487l6.553,11.506h6.289L413.14,43.297z
	 M409.66,39.954h-5.217V28.18h6.423c4.815,0.134,6.418,1.469,6.418,5.486c0,4.014-1.466,5.884-6.418,6.154
	C410.462,39.82,410.062,39.954,409.66,39.954 M311.942,24.167c-0.265,0-0.667-0.132-0.935-0.132h-10.304v36.923h5.22V45.439h6.019
	c7.897-0.403,11.374-3.613,11.374-11.238C323.316,26.17,319.971,24.298,311.942,24.167 M311.942,41.425h-6.019V28.18h6.019
	c4.417,0.268,6.157,1.606,6.157,6.29C318.1,38.885,316.226,41.02,311.942,41.425 M354.976,34.869h-5.173v26.089h5.173V34.869z
	 M352.338,29.249c2.507,0,3.303-0.668,3.303-3.079c0-2.407-0.796-3.074-3.303-3.074c-2.396,0-3.065,0.667-3.065,3.074
	C349.272,28.581,349.942,29.249,352.338,29.249 M335.091,34.201h-1.206c-2.676,0.134-5.084,0.537-7.491,1.07l0.534,3.88
	c2.274-0.402,4.551-0.804,6.957-0.936h0.271c3.477,0,4.948,1.469,4.948,4.414v2.542h-2.41c-0.935,0-2.006,0.134-2.809,0.134
	c-7.222,0.669-10.032,3.609-10.032,8.562c0,5.22,3.212,7.625,7.356,7.625c0.936,0,1.874-0.135,2.676-0.267
	c2.139-0.405,3.881-1.474,5.754-2.676l0.266,2.407h4.416V42.363C344.32,36.875,341.779,34.201,335.091,34.201 M339.104,54.938
	c-2.009,1.337-3.61,2.142-5.219,2.54c-0.534,0-0.938,0.138-1.473,0.138c-2.136,0-3.743-1.209-3.743-4.016
	c0-2.678,1.202-4.282,5.216-4.816c0.803,0,1.874-0.136,3.076-0.136h2.143V54.938z M247.459,23.096c-2.409,0-3.211,0.667-3.211,3.074
	c0,2.411,0.802,3.079,3.211,3.079c2.539,0,3.21-0.668,3.21-3.079C250.669,23.763,249.998,23.096,247.459,23.096 M375.279,34.335
	c-3.478,0-6.556,1.201-9.764,3.209l-0.275-2.676h-4.408v26.089h5.216V41.292c2.941-1.874,5.349-2.812,7.628-2.812
	c2.803,0,4.278,1.34,4.278,5.354v17.125h5.215V42.895C383.169,36.875,380.631,34.335,375.279,34.335 M261.236,21.759h-5.217v39.199
	h5.217V21.759z"/>
<g>
	<path fill="#69B7E5" d="M65.172,35.779c0,0-13.983-8.212-31.114,18.538c-1.849,2.888-3.25,5.615-4.317,8.206
		c0.492,0.377,0.985,0.755,1.5,1.128c4.118-10.41,13.542-21.021,20.843-25.226c9.474-5.463,19.405,3.906,22.541,7.188
		c0.3,0.292,0.6,0.584,0.898,0.897c0.317,0.455-0.033,0.008-0.898-0.897c-11.614-11.224-23.024-4.678-23.024-4.678
		C40.732,49.019,35.186,57.718,32.35,64.438c3.837,2.688,8.24,5.26,13.123,7.655c13.49,0.839,27.331-0.87,40.819-5.122
		c-1.245-8.597-4.258-14.83-6.55-18.988C75.345,40.004,65.172,35.779,65.172,35.779 M79.534,16.409
		c-1.808,1.445-2.157,3.536-1.775,5.748c2.175-1.223,4.445-2.482,6.752-3.743c0.764-0.416,1.505-0.795,2.235-1.155
		c-1.641-0.889-3.283-1.748-4.934-2.568C81.077,15.217,80.327,15.776,79.534,16.409 M31.906,70.376
		c0.135,0.027,0.268,0.043,0.401,0.071c-0.242-0.175-0.478-0.355-0.716-0.533c-0.209-0.153-0.421-0.309-0.625-0.465
		c-0.617-0.467-1.212-0.939-1.801-1.412c-0.21-0.172-0.423-0.344-0.631-0.517c-0.579-0.479-1.149-0.96-1.695-1.446
		c-0.165-0.146-0.322-0.292-0.483-0.436c-0.472-0.427-0.932-0.854-1.377-1.28c-0.134-0.131-0.275-0.262-0.409-0.392
		c-0.515-0.503-1.007-1.011-1.487-1.52c-0.15-0.159-0.297-0.316-0.441-0.476c-0.47-0.512-0.923-1.024-1.357-1.539
		c-0.109-0.128-0.21-0.261-0.32-0.391c-0.39-0.476-0.766-0.954-1.125-1.431c-0.074-0.098-0.151-0.195-0.222-0.294
		c-0.392-0.536-0.762-1.072-1.11-1.611c-0.091-0.14-0.183-0.278-0.27-0.419c-0.341-0.533-0.659-1.072-0.955-1.607
		c-0.065-0.116-0.121-0.234-0.185-0.349c-0.278-0.522-0.538-1.04-0.775-1.562c-0.028-0.063-0.059-0.121-0.085-0.182
		c-0.247-0.559-0.465-1.118-0.665-1.676c-0.041-0.121-0.087-0.241-0.127-0.36c-0.184-0.548-0.349-1.098-0.486-1.645
		c-0.024-0.107-0.047-0.211-0.072-0.317c-0.128-0.552-0.241-1.102-0.319-1.653c-0.002-0.027-0.011-0.053-0.012-0.08
		c-0.08-0.565-0.124-1.129-0.147-1.694c-0.002-0.105-0.011-0.214-0.012-0.32c-0.013-0.548,0-1.093,0.041-1.636
		c0.009-0.103,0.018-0.201,0.028-0.303c0.052-0.565,0.125-1.128,0.237-1.689c0.164-0.834,0.41-1.646,0.703-2.445
		c1.245-4.289,4.529-7.938,9.402-10.853c6.948-4.152,17.133-6.807,29.254-7.711c0.063,4.549,0.135,9.082,0.216,13.571
		c5.429-3.786,11.253-6.938,17.281-9.379c-1.523-4.62,0.532-8.859,4.602-12.382C68.682,8.66,61.185,6.015,53.859,4.175
		c0.047,4.685,0.105,9.366,0.17,14.029C28.124,19.486,9.17,27.842,6.514,41.212c-2.053,10.341,6.052,21.63,20.664,31.347
		C25.89,87.452,37.159,95.27,39.976,95.614c3.805,0.474,9.099,1.646,27.378,8.45c3.435,1.281,6.211,1.813,8.461,1.727
		c-10.866-6.51-21.839-14.64-32.562-24.391C39.434,77.93,35.644,74.261,31.906,70.376 M29.389,76.068
		c-0.127-0.725-0.192-1.466-0.216-2.221c0.134,0.085,0.271,0.172,0.403,0.254C29.4,75.355,29.389,76.068,29.389,76.068
		 M65.415,100.328c0,0-2.63-2.338-11.107-4.675c-8.474-2.339-16.853-3.243-21.92-10.229c0,0,11.513,6.594,16.512,7.453
		C56.965,94.261,63.955,98.574,65.415,100.328"/>
	<path fill="#00468B" d="M123.726,31.468c0,0,3.674,3.69,5.096,10.132c0,0-1.188,1.699-3.847,4.759
		c2.03,5.464,2.225,9.825,2.225,9.825c-4.457,8.914-12.963,13.774-12.963,13.774c-0.076-4.104-0.536-7.87-1.238-11.298
		c-2.39,2.242-5.067,4.659-8.093,7.255c0,0-1.116-8.368-6.089-17.719l8.33-5.6c-2.848-5.173-5.47-7.882-5.47-7.882l8.509-5.672
		c3.258,1.713,5.885,3.835,8.019,6.133L123.726,31.468z"/>
	<path fill="#00468B" d="M73.045,17.595c0,0-2.263,5.483,5.364,16.998C78.409,34.592,69.151,23.832,73.045,17.595"/>
	<path fill="#00468B" d="M118.743,89.364c-1.208,0.038-2.436,0.053-3.672,0.059c-0.412,0.001-0.824,0-1.236-0.004
		c-0.853-0.003-1.708-0.017-2.574-0.037c-0.476-0.011-0.951-0.018-1.433-0.037c-1.128-0.037-2.266-0.084-3.413-0.149
		c-0.712-0.038-1.435-0.092-2.155-0.143c-0.511-0.033-1.023-0.07-1.537-0.111c-0.829-0.067-1.659-0.137-2.487-0.217
		c-0.306-0.027-0.615-0.061-0.92-0.091c-1.763-0.178-3.545-0.386-5.325-0.627c-0.193-0.024-0.385-0.046-0.575-0.073l-2.005-0.285
		c-0.021-0.002-0.042-0.006-0.062-0.008c1.616-7.102,3.192-14.173,4.749-21.185c-14.605,5.692-30.146,8.675-45.328,8.675
		c-1.033,0-2.063-0.043-3.093-0.068c-2.347-1.075-4.582-2.194-6.725-3.346c-1.368-0.73-2.702-1.478-3.979-2.238
		c-0.06-0.036-0.123-0.072-0.183-0.109c-0.764-0.457-1.511-0.919-2.24-1.383c-0.043-0.028-0.083-0.054-0.125-0.079
		c-2.297-1.472-4.421-2.983-6.356-4.523c-0.109-0.087-0.214-0.174-0.32-0.26c-0.51-0.411-1.006-0.824-1.487-1.24
		c-0.138-0.116-0.271-0.232-0.408-0.353c-0.462-0.402-0.911-0.809-1.346-1.219c-0.111-0.105-0.23-0.21-0.34-0.316
		c-1.072-1.023-2.06-2.053-2.959-3.088c-0.101-0.115-0.191-0.23-0.289-0.345c-0.333-0.392-0.656-0.786-0.96-1.179
		c-0.135-0.167-0.257-0.337-0.386-0.507c-0.259-0.343-0.509-0.691-0.748-1.035c-0.121-0.183-0.247-0.358-0.366-0.541
		c-0.233-0.357-0.453-0.712-0.665-1.069c-0.097-0.158-0.197-0.318-0.289-0.479c-0.29-0.51-0.564-1.019-0.808-1.531
		c-1.66-3.473-2.251-6.938-1.586-10.279c0.078-0.398,0.18-0.79,0.293-1.178c-0.293,0.799-0.539,1.61-0.703,2.445
		c-0.113,0.562-0.186,1.125-0.237,1.689c-0.01,0.102-0.021,0.201-0.028,0.303c-0.041,0.542-0.053,1.088-0.041,1.635
		c0.001,0.106,0.009,0.214,0.013,0.321c0.021,0.562,0.066,1.129,0.146,1.692c0.001,0.03,0.009,0.056,0.013,0.082
		c0.078,0.551,0.19,1.101,0.318,1.653c0.025,0.105,0.048,0.21,0.074,0.317c0.136,0.547,0.3,1.095,0.486,1.644
		c0.039,0.12,0.085,0.24,0.126,0.361c0.2,0.558,0.418,1.116,0.664,1.676c0.027,0.06,0.06,0.118,0.086,0.18
		c0.236,0.522,0.497,1.043,0.773,1.563c0.064,0.115,0.123,0.231,0.188,0.348c0.294,0.536,0.613,1.075,0.954,1.608
		c0.087,0.141,0.179,0.279,0.27,0.419c0.348,0.539,0.718,1.075,1.11,1.611c0.071,0.099,0.149,0.195,0.222,0.293
		c0.358,0.479,0.733,0.956,1.124,1.433c0.108,0.129,0.211,0.262,0.319,0.389c0.435,0.517,0.888,1.028,1.357,1.54
		c0.146,0.159,0.292,0.317,0.442,0.476c0.481,0.508,0.972,1.015,1.487,1.518c0.133,0.133,0.275,0.261,0.409,0.394
		c0.445,0.427,0.905,0.854,1.377,1.28c0.161,0.144,0.318,0.291,0.483,0.436c0.546,0.486,1.116,0.968,1.696,1.446
		c0.207,0.172,0.419,0.345,0.63,0.517c0.588,0.474,1.184,0.944,1.801,1.412c0.204,0.156,0.416,0.312,0.625,0.467
		c0.239,0.176,0.474,0.354,0.717,0.532c2.941,2.14,6.194,4.212,9.725,6.193c14.126,13.09,29.26,23.991,44.484,31.998
		c1.169-5.049,2.331-10.088,3.485-15.125c0.878,0.173,1.759,0.326,2.627,0.484c-0.595,2.614-1.195,5.225-1.797,7.829
		c3.983-1.796,8.329-3.876,11.015-5.515c0.418-0.254,0.8-0.5,1.13-0.73c0,0,0.005,0,0.005-0.002
		c0.687,0.085,1.373,0.174,2.054,0.248c0.074,0.01,0.147,0.016,0.221,0.026c1.151,0.127,2.299,0.242,3.44,0.346
		c0.264,0.024,0.521,0.042,0.783,0.062c0.95,0.083,1.898,0.165,2.839,0.229c0.587,0.04,1.158,0.069,1.739,0.103
		c0.614,0.038,1.236,0.079,1.847,0.11c1.198,0.057,2.382,0.101,3.56,0.134c25.079-0.692,44.23-7.825,49.446-19.64
		c0.499-1.121,0.875-2.283,1.117-3.486c0.104-0.529,0.172-1.061,0.224-1.594C165.336,83.662,144.912,90.09,118.743,89.364"/>
	<path fill="#00468B" d="M139.914,39.089c-0.192-0.473-0.403-0.947-0.63-1.422c-0.036-0.077-0.073-0.153-0.109-0.23
		c-0.227-0.47-0.468-0.941-0.733-1.415c-4.166-7.499-12.805-15.196-29-21.83c0,0-2.026-1.091-5.949-1.22
		c-3.19-4.927-8.67-10.212-16.68-7.067c-4.158,1.626-7.875,3.7-10.655,6.107c-4.07,3.522-6.125,7.764-4.603,12.381
		c0.113,0.349,0.242,0.696,0.397,1.051c-7.064,4.04-12.093,7.05-12.093,7.05s18.316,1.762,24.653,21.824
		c1.216,3.852,2.118,8.062,2.739,12.36c4.266-1.384,8.461-3.026,12.61-4.923c-1.827,8.265-3.667,16.476-5.511,24.641
		c6.212,0.845,12.272,1.312,18.049,1.433c8.567-7.355,19.666-17.226,21.327-18.681C135.306,67.763,146.015,54.196,139.914,39.089z
		 M95.157,6.828C100.99,9.673,105.8,19.354,105.8,19.354C99.241,8.678,96.085,7.975,93.285,7.151
		c-3.431-0.996-11.898,3.521-11.898,3.521S89.322,3.983,95.157,6.828z M79.534,16.409c0.792-0.631,1.542-1.193,2.277-1.718
		c7.837-5.636,12.507-5.452,16.016-1.264c-3.086,0.563-6.777,1.718-11.081,3.832c-0.73,0.36-1.472,0.739-2.236,1.155
		c-2.307,1.259-4.576,2.52-6.752,3.741C77.377,19.943,77.726,17.854,79.534,16.409z M75.532,38.597l-2.487-2.347l3.54-1.565
		l0.443-0.251c0.908,1.254,1.349,1.592,1.349,1.592l5.067-3.039c0,0-0.481-0.578-1.167-1.521l19.432-11.031
		c0.205,0.497,0.408,1.004,0.61,1.533l4.54-2.172c0,0-0.24-0.732-0.729-1.862l4.122-2.334l3.228,1.409L75.532,38.597z"/>
	<path fill="#DF0E33" d="M138.434,36.012c0.004,0.003,0.007,0.008,0.007,0.011c0.265,0.474,0.507,0.944,0.733,1.415
		c0.036,0.077,0.073,0.153,0.109,0.23c0.228,0.476,0.438,0.949,0.63,1.422v0.005c15.878,9.158,25.04,20.235,23.051,30.234
		c-1.666,8.396-10.883,14.492-24.557,17.647c15.737-1.964,27.449-7.155,31.844-14.876C171.446,59.835,158.883,46.436,138.434,36.012
		 M123.726,31.468l-5.522,3.707c-2.134-2.298-4.763-4.42-8.019-6.132l-8.509,5.671c0,0,2.622,2.709,5.47,7.884l-8.33,5.598
		c4.973,9.352,6.089,17.719,6.089,17.719c3.026-2.596,5.703-5.014,8.093-7.255c0.703,3.428,1.163,7.195,1.238,11.298
		c0,0,8.506-4.859,12.963-13.774c0,0-0.194-4.36-2.225-9.825c2.658-3.062,3.847-4.759,3.847-4.759
		C127.4,35.158,123.726,31.468,123.726,31.468"/>
</g>
</svg>
