<?xml version="1.0" encoding="utf-8"?>
<!-- Generator: Adobe Illustrator 21.1.0, SVG Export Plug-In . SVG Version: 6.00 Build 0)  -->
<svg version="1.1" xmlns="http://www.w3.org/2000/svg" xmlns:xlink="http://www.w3.org/1999/xlink" x="0px" y="0px"
	 viewBox="0 0 790 320" style="enable-background:new 0 0 790 320;" xml:space="preserve">
<style type="text/css">
	.st0{fill:#7B2B23;}
	.st1{display:none;}
	.st2{display:inline;stroke:#000000;stroke-miterlimit:10;}
	.st3{fill:#0080C6;}
	.st4{fill:#FFFFFF;}
</style>
<g id="Text">
	<g>
		<path d="M355.9,95h6.3l14.7,51h-8.1l-3.4-12.6h-24.3l-6.8,12.6h-8.1L355.9,95z M363.7,127.3l-6.2-23.4h-0.1l-13,23.4H363.7z"/>
		<path d="M412.5,145.7c-0.4,2.6-1.2,5-2.3,7.1c-1.2,2.1-2.7,4-4.5,5.5c-1.9,1.6-4,2.8-6.4,3.6c-2.4,0.9-5,1.3-7.8,1.3
			c-3.3,0-6.2-0.5-8.8-1.4c-2.6-0.9-5-2.5-7.1-4.8l5.1-5.5c1.4,1.8,3.1,3.2,4.9,4.1c1.8,0.9,4,1.4,6.5,1.4c2.4,0,4.4-0.3,6.1-1
			c1.7-0.7,3.1-1.6,4.1-2.7c1.1-1.1,1.9-2.4,2.5-3.8c0.6-1.4,1-2.8,1.2-4.3l0.6-5h-0.2c-1.5,2.1-3.4,3.6-5.7,4.6
			c-2.3,1-4.6,1.5-6.9,1.5c-2.5,0-4.8-0.4-6.8-1.3c-2-0.9-3.7-2.1-5-3.7c-1.3-1.6-2.3-3.4-2.8-5.5c-0.6-2.1-0.7-4.5-0.3-6.9
			c0.3-2.5,1.1-4.8,2.2-7c1.1-2.2,2.6-4.1,4.3-5.7c1.7-1.6,3.7-2.9,6-3.8c2.3-0.9,4.7-1.4,7.4-1.4c2.3,0,4.5,0.5,6.5,1.5
			c2,1,3.6,2.4,4.6,4.2h0.1l0.6-4.9h6.5L412.5,145.7z M398.8,117c-1.7,0-3.3,0.3-4.8,0.9c-1.5,0.6-2.8,1.4-3.9,2.4
			c-1.1,1-2.1,2.3-2.8,3.7c-0.7,1.5-1.2,3.1-1.4,4.8c-0.5,3.5,0.1,6.2,1.8,8.3s4.3,3.1,7.8,3.1c3.5,0,6.3-1,8.6-3.1
			c2.3-2.1,3.7-4.9,4.2-8.3c0.2-1.7,0.2-3.3-0.1-4.8c-0.3-1.5-0.9-2.7-1.7-3.7c-0.8-1-1.9-1.8-3.2-2.4
			C402,117.3,400.5,117,398.8,117z"/>
		<path d="M424.5,111.8h6.5l-4.8,34.1h-6.5L424.5,111.8z M424.7,99.6c0.2-1.3,0.8-2.4,1.9-3.3c1.1-0.9,2.2-1.4,3.5-1.4
			c1.3,0,2.4,0.5,3.2,1.4s1.1,2.1,0.9,3.3c-0.2,1.3-0.8,2.4-1.9,3.3c-1.1,0.9-2.2,1.4-3.5,1.4s-2.4-0.5-3.2-1.4
			C424.9,102,424.5,100.9,424.7,99.6z"/>
		<path d="M441.5,91.5h6.5l-7.6,54.4h-6.5L441.5,91.5z"/>
		<path d="M454.3,131.3c-0.2,1.5,0,2.8,0.4,4.1s1.2,2.3,2.1,3.1c0.9,0.9,2.1,1.5,3.4,2c1.3,0.5,2.7,0.7,4.2,0.7c2,0,3.8-0.5,5.5-1.4
			c1.6-0.9,3.2-2.2,4.7-3.7l4.3,3.7c-4.2,4.7-9.6,7-16.1,7c-2.7,0-5.1-0.5-7.1-1.4c-2-0.9-3.7-2.2-5-3.8c-1.3-1.6-2.2-3.5-2.7-5.7
			c-0.5-2.2-0.6-4.5-0.2-7.1c0.3-2.5,1.1-4.9,2.3-7.1c1.2-2.2,2.7-4.1,4.5-5.7c1.8-1.6,3.8-2.9,6.1-3.8c2.3-0.9,4.7-1.4,7.2-1.4
			c3,0,5.5,0.5,7.5,1.6c1.9,1.1,3.5,2.4,4.6,4.1c1.1,1.7,1.8,3.6,2.1,5.8c0.3,2.1,0.3,4.3,0,6.5l-0.4,2.3H454.3z M475.6,126.1
			c0.1-1.4,0.1-2.8-0.1-4c-0.2-1.2-0.7-2.2-1.4-3.1c-0.7-0.9-1.6-1.6-2.8-2.1c-1.2-0.5-2.6-0.8-4.2-0.8c-1.6,0-3.1,0.3-4.5,0.9
			c-1.4,0.6-2.6,1.4-3.7,2.3c-1.1,1-2,2-2.6,3.2c-0.7,1.2-1.1,2.3-1.2,3.5H475.6z"/>
		<path d="M518,95l-4.4,31.2c-0.2,1.6-0.3,3.2,0,4.9c0.2,1.7,0.7,3.3,1.5,4.7s1.9,2.6,3.5,3.5c1.5,0.9,3.5,1.4,5.9,1.4
			c2.4,0,4.5-0.5,6.3-1.4c1.8-0.9,3.3-2.1,4.5-3.5c1.2-1.4,2.1-3,2.8-4.7c0.6-1.7,1.1-3.3,1.3-4.9l4.4-31.2h6.9l-4.5,32.3
			c-0.4,3-1.3,5.7-2.7,8.1c-1.3,2.4-3,4.5-5,6.3c-2,1.8-4.3,3.1-6.8,4.1c-2.5,1-5.2,1.4-8,1.4c-2.8,0-5.3-0.5-7.6-1.4
			c-2.3-1-4.2-2.3-5.7-4.1c-1.5-1.8-2.6-3.9-3.3-6.3c-0.7-2.4-0.8-5.1-0.4-8.1l4.5-32.3H518z"/>
		<path d="M555.5,111.8h6.5l-0.6,4.9h0.1c1.5-1.8,3.5-3.2,5.8-4.2c2.3-1,4.6-1.5,6.9-1.5c2.6,0,5,0.5,7,1.4c2,0.9,3.7,2.2,4.9,3.8
			c1.3,1.6,2.2,3.5,2.7,5.7c0.5,2.2,0.6,4.5,0.3,7c-0.4,2.5-1.1,4.9-2.3,7.1c-1.1,2.2-2.6,4.1-4.3,5.7c-1.7,1.6-3.7,2.9-6,3.8
			c-2.3,0.9-4.7,1.4-7.3,1.4c-2.4,0-4.7-0.5-6.7-1.5c-2-1-3.5-2.4-4.4-4.2h-0.1l-3.5,25.2h-6.5L555.5,111.8z M572.5,117
			c-1.7,0-3.3,0.3-4.8,0.9c-1.5,0.6-2.8,1.4-3.9,2.4c-1.1,1-2.1,2.3-2.8,3.7c-0.7,1.5-1.2,3.1-1.4,4.8c-0.2,1.7-0.2,3.3,0.1,4.8
			c0.3,1.5,0.9,2.7,1.7,3.7c0.8,1,1.9,1.8,3.2,2.4c1.3,0.6,2.8,0.9,4.6,0.9c1.7,0,3.3-0.3,4.8-0.9c1.5-0.6,2.7-1.4,3.9-2.4
			c1.1-1,2-2.3,2.8-3.7c0.7-1.5,1.2-3.1,1.5-4.8s0.2-3.3-0.1-4.8c-0.3-1.5-0.9-2.7-1.7-3.7c-0.8-1-1.9-1.8-3.2-2.4
			C575.7,117.3,574.2,117,572.5,117z"/>
		<path d="M596.4,111.8h6.5l-0.7,5.3h0.1c1.1-1.8,2.7-3.3,4.8-4.4c2.1-1.1,4.2-1.7,6.3-1.7c1.1,0,2,0.1,2.8,0.4l-1.3,7
			c-0.5-0.1-1-0.3-1.5-0.4c-0.5-0.1-1-0.1-1.5-0.1c-3.2,0-5.7,0.9-7.6,2.7c-1.9,1.8-3.1,4.5-3.7,8.3l-2.4,17.1h-6.5L596.4,111.8z"/>
		<path d="M619.3,111.8h6.5L621,146h-6.5L619.3,111.8z M619.5,99.6c0.2-1.3,0.8-2.4,1.9-3.3c1.1-0.9,2.2-1.4,3.5-1.4
			c1.3,0,2.4,0.5,3.2,1.4s1.1,2.1,0.9,3.3c-0.2,1.3-0.8,2.4-1.9,3.3c-1.1,0.9-2.2,1.4-3.5,1.4s-2.4-0.5-3.2-1.4
			C619.6,102,619.3,100.9,619.5,99.6z"/>
		<path d="M649.8,120.4c-0.6-1-1.5-1.8-2.5-2.4c-1-0.6-2.4-1-4-1c-1.5,0-2.9,0.3-4.1,1c-1.2,0.6-1.9,1.6-2.1,2.8
			c-0.1,1,0.1,1.8,0.6,2.4c0.6,0.6,1.2,1.1,2.1,1.5c0.8,0.4,1.7,0.7,2.7,0.9c1,0.2,1.8,0.4,2.5,0.5c1.3,0.3,2.6,0.7,3.7,1.2
			c1.2,0.5,2.1,1.1,2.9,1.9c0.8,0.8,1.4,1.7,1.7,2.8c0.3,1.1,0.4,2.4,0.2,4c-0.3,1.9-0.9,3.6-1.9,4.9c-1,1.4-2.2,2.5-3.6,3.3
			c-1.4,0.9-3,1.5-4.7,1.9c-1.7,0.4-3.4,0.6-5.1,0.6c-2.8,0-5.2-0.4-7.2-1.3c-2-0.9-3.7-2.4-5.1-4.8l5.4-4c0.9,1.1,2,2,3.2,2.8
			c1.2,0.8,2.8,1.2,4.6,1.2c1.7,0,3.3-0.3,4.8-1c1.5-0.7,2.4-1.8,2.7-3.3c0.1-1,0-1.8-0.5-2.4c-0.5-0.6-1.2-1.1-2-1.5
			c-0.8-0.4-1.7-0.6-2.6-0.9c-0.9-0.2-1.7-0.4-2.4-0.5c-1.3-0.3-2.6-0.7-3.8-1.2c-1.2-0.4-2.2-1-3.1-1.7c-0.9-0.7-1.5-1.6-1.9-2.7
			c-0.4-1.1-0.5-2.5-0.3-4.1c0.2-1.8,0.8-3.3,1.8-4.6c0.9-1.3,2.1-2.4,3.4-3.3c1.3-0.9,2.8-1.5,4.5-1.9c1.6-0.4,3.2-0.6,4.8-0.6
			c2.3,0,4.5,0.4,6.4,1.3c2,0.9,3.5,2.3,4.4,4.3L649.8,120.4z"/>
		<path d="M662,111.8h6.5l-4.8,34.1h-6.5L662,111.8z M662.2,99.6c0.2-1.3,0.8-2.4,1.9-3.3c1.1-0.9,2.2-1.4,3.5-1.4
			c1.3,0,2.4,0.5,3.2,1.4s1.1,2.1,0.9,3.3c-0.2,1.3-0.8,2.4-1.9,3.3c-1.1,0.9-2.2,1.4-3.5,1.4s-2.4-0.5-3.2-1.4
			C662.4,102,662.1,100.9,662.2,99.6z"/>
		<path d="M675.9,111.8h6.5l-0.7,5.3h0.1c1.1-1.8,2.7-3.3,4.9-4.4c2.2-1.1,4.6-1.7,7.2-1.7c1.6,0,3.2,0.3,4.6,0.8
			c1.4,0.5,2.7,1.3,3.6,2.3c1,1.1,1.7,2.4,2.1,4.1c0.4,1.7,0.5,3.6,0.1,5.9l-3,22h-6.5l2.8-20.2c0.2-1.6,0.2-2.9-0.1-4.1
			c-0.3-1.1-0.7-2-1.3-2.7c-0.6-0.7-1.4-1.2-2.3-1.5c-0.9-0.3-1.9-0.5-2.9-0.5c-1.3,0-2.6,0.2-3.9,0.6c-1.2,0.4-2.3,1.1-3.3,2.1
			c-1,0.9-1.8,2.1-2.5,3.6c-0.7,1.4-1.2,3.1-1.4,5.1l-2.4,17.6h-6.5L675.9,111.8z"/>
		<path d="M742.2,145.7c-0.4,2.6-1.2,5-2.3,7.1c-1.2,2.1-2.7,4-4.5,5.5c-1.9,1.6-4,2.8-6.4,3.6c-2.4,0.9-5,1.3-7.8,1.3
			c-3.3,0-6.2-0.5-8.8-1.4c-2.6-0.9-5-2.5-7.1-4.8l5.1-5.5c1.4,1.8,3.1,3.2,4.9,4.1c1.8,0.9,4,1.4,6.5,1.4c2.4,0,4.4-0.3,6.1-1
			c1.7-0.7,3.1-1.6,4.1-2.7c1.1-1.1,1.9-2.4,2.5-3.8c0.6-1.4,1-2.8,1.2-4.3l0.6-5h-0.2c-1.5,2.1-3.4,3.6-5.7,4.6
			c-2.3,1-4.6,1.5-6.9,1.5c-2.5,0-4.8-0.4-6.8-1.3c-2-0.9-3.7-2.1-5-3.7c-1.3-1.6-2.3-3.4-2.8-5.5c-0.6-2.1-0.7-4.5-0.3-6.9
			c0.3-2.5,1.1-4.8,2.2-7c1.1-2.2,2.6-4.1,4.3-5.7c1.7-1.6,3.7-2.9,6-3.8c2.3-0.9,4.7-1.4,7.4-1.4c2.3,0,4.5,0.5,6.5,1.5
			c2,1,3.6,2.4,4.6,4.2h0.1l0.6-4.9h6.5L742.2,145.7z M728.4,117c-1.7,0-3.3,0.3-4.8,0.9c-1.5,0.6-2.8,1.4-3.9,2.4
			c-1.1,1-2.1,2.3-2.8,3.7c-0.7,1.5-1.2,3.1-1.4,4.8c-0.5,3.5,0.1,6.2,1.8,8.3c1.7,2.1,4.3,3.1,7.8,3.1c3.5,0,6.3-1,8.6-3.1
			s3.7-4.9,4.2-8.3c0.2-1.7,0.2-3.3-0.1-4.8c-0.3-1.5-0.9-2.7-1.7-3.7c-0.8-1-1.9-1.8-3.2-2.4C731.7,117.3,730.2,117,728.4,117z"/>
		<path class="st0" d="M373.9,176c-1.2-1.9-2.8-3.3-4.9-4.3c-2.1-1-4.3-1.5-6.6-1.5c-2.9,0-5.6,0.5-8,1.6c-2.5,1.1-4.7,2.6-6.6,4.4
			c-1.9,1.9-3.5,4.1-4.8,6.6c-1.2,2.5-2.1,5.2-2.5,8.1c-0.4,2.7-0.3,5.2,0.2,7.6c0.5,2.4,1.5,4.5,2.9,6.3c1.4,1.8,3.2,3.3,5.4,4.3
			c2.2,1.1,4.8,1.6,7.8,1.6c2.9,0,5.6-0.6,8-1.8c2.4-1.2,4.5-2.9,6.3-5l5.2,4.4c-0.4,0.5-1.2,1.3-2.3,2.3c-1.1,1-2.5,2-4.2,3
			c-1.7,1-3.8,1.8-6.1,2.6c-2.3,0.7-5,1.1-7.9,1.1c-4,0-7.6-0.8-10.6-2.3c-3-1.5-5.5-3.6-7.4-6c-1.9-2.5-3.3-5.3-4-8.5
			c-0.8-3.1-0.9-6.3-0.5-9.5c0.6-3.9,1.7-7.6,3.5-10.9c1.8-3.3,4-6.2,6.7-8.6c2.7-2.4,5.8-4.3,9.2-5.7s7.2-2,11.1-2
			c3.4,0,6.6,0.6,9.6,1.9c3,1.3,5.4,3.3,7.1,6L373.9,176z"/>
		<path class="st0" d="M379.6,198.9c0.3-2.5,1.1-4.8,2.4-7c1.2-2.2,2.8-4.1,4.7-5.7c1.9-1.6,4-2.9,6.3-3.9c2.3-0.9,4.8-1.4,7.3-1.4
			c2.5,0,4.8,0.5,6.9,1.4c2.1,0.9,3.8,2.2,5.2,3.9c1.4,1.6,2.4,3.5,3.1,5.7c0.6,2.2,0.8,4.5,0.4,7c-0.4,2.5-1.2,4.8-2.4,7
			c-1.2,2.2-2.8,4.1-4.6,5.7c-1.9,1.6-4,2.9-6.3,3.8c-2.3,0.9-4.8,1.4-7.3,1.4c-2.5,0-4.9-0.5-6.9-1.4c-2.1-0.9-3.8-2.2-5.2-3.8
			c-1.4-1.6-2.4-3.5-3.1-5.7C379.3,203.7,379.2,201.4,379.6,198.9z M386.5,198.9c-0.2,1.7-0.2,3.3,0.1,4.8c0.3,1.5,0.9,2.7,1.7,3.7
			c0.8,1,1.9,1.8,3.2,2.4c1.3,0.6,2.8,0.9,4.6,0.9c1.7,0,3.3-0.3,4.8-0.9c1.5-0.6,2.7-1.4,3.9-2.4c1.1-1,2-2.3,2.8-3.7
			c0.7-1.5,1.2-3.1,1.5-4.8c0.2-1.7,0.2-3.3-0.1-4.8c-0.3-1.5-0.9-2.7-1.7-3.7c-0.8-1-1.9-1.8-3.2-2.4c-1.3-0.6-2.8-0.9-4.5-0.9
			c-1.7,0-3.3,0.3-4.8,0.9c-1.5,0.6-2.8,1.4-3.9,2.4c-1.1,1-2.1,2.3-2.8,3.7C387.2,195.6,386.7,197.2,386.5,198.9z"/>
		<path class="st0" d="M423.5,186c2.1-1.7,4.4-2.9,6.9-3.8c2.5-0.8,5-1.3,7.4-1.3c2.5,0,4.6,0.3,6.3,0.9c1.7,0.6,3.1,1.5,4.1,2.5
			c1,1.1,1.7,2.3,2,3.6s0.4,2.8,0.2,4.3l-2.4,17.4c-0.2,1.2-0.3,2.3-0.4,3.3c-0.1,1-0.1,2-0.1,2.9h-5.8c0-0.9,0.1-1.7,0.2-2.6
			s0.2-1.7,0.3-2.6H442c-1.8,2.2-3.7,3.8-5.8,4.7s-4.4,1.4-7,1.4c-1.6,0-3.1-0.2-4.4-0.6c-1.4-0.4-2.5-1.1-3.5-1.9
			c-1-0.9-1.7-1.9-2.1-3.2c-0.5-1.3-0.6-2.7-0.3-4.4c0.3-2.2,1-4.1,2.2-5.5c1.2-1.5,2.7-2.7,4.6-3.6c1.8-0.9,3.9-1.6,6.3-2
			c2.3-0.4,4.8-0.6,7.4-0.6h4.8l0.2-1.4c0.1-0.9,0.1-1.7-0.1-2.6s-0.6-1.6-1.2-2.3c-0.6-0.7-1.3-1.2-2.3-1.7c-1-0.4-2.1-0.6-3.5-0.6
			c-1.2,0-2.4,0.1-3.3,0.4c-1,0.2-1.9,0.5-2.7,0.9c-0.8,0.4-1.5,0.8-2.2,1.3c-0.7,0.5-1.4,0.9-2.1,1.4L423.5,186z M439.9,199.5
			c-1.5,0-3.1,0.1-4.8,0.3c-1.6,0.2-3.2,0.5-4.6,1c-1.4,0.5-2.6,1.2-3.5,2c-1,0.9-1.5,2-1.7,3.3c-0.3,2,0.2,3.4,1.4,4.2
			s2.9,1.3,5.2,1.3c1.8,0,3.3-0.3,4.7-0.9c1.3-0.6,2.4-1.4,3.4-2.3c0.9-1,1.6-2,2.1-3.2c0.5-1.2,0.8-2.3,1-3.5l0.4-2.2H439.9z"/>
		<path class="st0" d="M463.3,161.5h6.5l-7.6,54.4h-6.5L463.3,161.5z"/>
		<path class="st0" d="M475.9,181.8h6.5l-4.8,34.1h-6.5L475.9,181.8z M476.1,169.6c0.2-1.3,0.8-2.4,1.9-3.3c1.1-0.9,2.2-1.4,3.5-1.4
			c1.3,0,2.4,0.5,3.2,1.4c0.8,0.9,1.1,2.1,0.9,3.3c-0.2,1.3-0.8,2.4-1.9,3.3c-1.1,0.9-2.2,1.4-3.5,1.4s-2.4-0.5-3.2-1.4
			C476.2,172,475.9,170.9,476.1,169.6z"/>
		<path class="st0" d="M508.6,187.4h-9.3l-2.1,15.5c-0.1,1-0.3,1.9-0.3,2.8c-0.1,0.9,0,1.8,0.2,2.5c0.2,0.7,0.6,1.3,1.2,1.8
			c0.6,0.5,1.5,0.7,2.8,0.7c0.8,0,1.6-0.1,2.4-0.2c0.8-0.1,1.6-0.4,2.3-0.8l-0.9,5.9c-0.4,0.2-0.9,0.4-1.5,0.6
			c-0.6,0.1-1.1,0.3-1.7,0.3c-0.6,0.1-1.1,0.1-1.6,0.2c-0.5,0-0.9,0.1-1.3,0.1c-2.5,0-4.4-0.3-5.7-1c-1.3-0.7-2.2-1.6-2.7-2.7
			c-0.5-1.1-0.7-2.3-0.7-3.7s0.2-2.7,0.4-4.1l2.5-17.8h-7.5l0.8-5.6h7.5l1.4-9.6h6.5l-1.3,9.6h9.3L508.6,187.4z"/>
		<path class="st0" d="M514.9,181.8h6.5l-4.8,34.1h-6.5L514.9,181.8z M515.1,169.6c0.2-1.3,0.8-2.4,1.9-3.3c1.1-0.9,2.2-1.4,3.5-1.4
			c1.3,0,2.4,0.5,3.2,1.4c0.8,0.9,1.1,2.1,0.9,3.3c-0.2,1.3-0.8,2.4-1.9,3.3c-1.1,0.9-2.2,1.4-3.5,1.4s-2.4-0.5-3.2-1.4
			C515.2,172,514.9,170.9,515.1,169.6z"/>
		<path class="st0" d="M525.4,198.9c0.3-2.5,1.1-4.8,2.4-7c1.2-2.2,2.8-4.1,4.7-5.7c1.9-1.6,4-2.9,6.3-3.9c2.3-0.9,4.8-1.4,7.3-1.4
			c2.5,0,4.8,0.5,6.9,1.4c2.1,0.9,3.8,2.2,5.2,3.9c1.4,1.6,2.4,3.5,3.1,5.7c0.6,2.2,0.8,4.5,0.4,7c-0.4,2.5-1.2,4.8-2.4,7
			c-1.2,2.2-2.8,4.1-4.6,5.7c-1.9,1.6-4,2.9-6.3,3.8c-2.3,0.9-4.8,1.4-7.3,1.4c-2.5,0-4.9-0.5-6.9-1.4c-2.1-0.9-3.8-2.2-5.2-3.8
			c-1.4-1.6-2.4-3.5-3.1-5.7C525.2,203.7,525.1,201.4,525.4,198.9z M532.4,198.9c-0.2,1.7-0.2,3.3,0.1,4.8c0.3,1.5,0.9,2.7,1.7,3.7
			c0.8,1,1.9,1.8,3.2,2.4c1.3,0.6,2.8,0.9,4.6,0.9c1.7,0,3.3-0.3,4.8-0.9c1.5-0.6,2.7-1.4,3.9-2.4c1.1-1,2-2.3,2.8-3.7
			c0.7-1.5,1.2-3.1,1.5-4.8c0.2-1.7,0.2-3.3-0.1-4.8c-0.3-1.5-0.9-2.7-1.7-3.7c-0.8-1-1.9-1.8-3.2-2.4c-1.3-0.6-2.8-0.9-4.5-0.9
			s-3.3,0.3-4.8,0.9c-1.5,0.6-2.8,1.4-3.9,2.4c-1.1,1-2.1,2.3-2.8,3.7C533.1,195.6,532.6,197.2,532.4,198.9z"/>
		<path class="st0" d="M570.6,181.8h6.5l-0.7,5.3h0.1c1.1-1.8,2.7-3.3,4.9-4.4s4.6-1.7,7.2-1.7c1.6,0,3.2,0.3,4.6,0.8
			c1.4,0.5,2.7,1.3,3.6,2.3c1,1.1,1.7,2.4,2.1,4.1c0.4,1.7,0.5,3.6,0.1,5.9l-3,22h-6.5l2.8-20.2c0.2-1.6,0.2-2.9-0.1-4.1
			c-0.3-1.1-0.7-2-1.3-2.7c-0.6-0.7-1.4-1.2-2.3-1.5c-0.9-0.3-1.9-0.5-2.9-0.5c-1.3,0-2.6,0.2-3.9,0.6c-1.2,0.4-2.3,1.1-3.3,2.1
			c-1,0.9-1.8,2.1-2.5,3.6c-0.7,1.4-1.2,3.1-1.4,5.1l-2.4,17.6h-6.5L570.6,181.8z"/>
	</g>
	<g id="URL" class="st1">
		<path class="st2" d="M324.8,244.5c-0.3-0.6-0.8-1.2-1.5-1.6c-0.7-0.4-1.5-0.6-2.4-0.6c-1,0-1.9,0.1-2.7,0.5
			c-0.8,0.3-1.6,0.8-2.2,1.4c-0.6,0.6-1.2,1.3-1.5,2.1s-0.7,1.7-0.8,2.7s-0.1,1.9,0.1,2.7s0.5,1.5,1,2.1c0.5,0.6,1.1,1.1,1.8,1.4
			c0.7,0.3,1.6,0.5,2.6,0.5c0.9,0,1.8-0.2,2.6-0.6c0.8-0.4,1.4-1,1.9-1.6l1.8,1.5c-1,1-2,1.7-3.2,2.2c-1.1,0.5-2.3,0.7-3.4,0.7
			c-1.4,0-2.6-0.2-3.6-0.6s-1.9-1.1-2.6-1.9c-0.7-0.8-1.1-1.7-1.4-2.8c-0.3-1.1-0.3-2.3-0.1-3.5c0.2-1.3,0.5-2.5,1.1-3.5
			c0.6-1.1,1.3-2,2.2-2.8c0.9-0.8,1.9-1.4,3.1-1.9c1.2-0.4,2.4-0.7,3.8-0.6c1.2,0,2.2,0.3,3.2,0.7c1,0.5,1.8,1.2,2.5,2.2
			L324.8,244.5z"/>
		<path class="st2" d="M345.7,249c-0.2,1.3-0.6,2.4-1.2,3.5c-0.6,1.1-1.3,2-2.2,2.8c-0.9,0.8-1.9,1.4-3.1,1.9
			c-1.2,0.4-2.4,0.7-3.7,0.7c-1.3,0-2.5-0.2-3.5-0.7c-1-0.4-1.9-1.1-2.6-1.9s-1.2-1.7-1.5-2.8s-0.3-2.3-0.1-3.5
			c0.2-1.3,0.6-2.4,1.2-3.5c0.6-1.1,1.4-2,2.2-2.8s1.9-1.4,3.1-1.9c1.2-0.4,2.4-0.7,3.7-0.7c1.3,0,2.5,0.2,3.5,0.7
			c1,0.4,1.9,1.1,2.6,1.9s1.2,1.7,1.5,2.8S345.8,247.7,345.7,249z M343.1,249c0.1-0.9,0.1-1.8-0.1-2.6c-0.2-0.8-0.5-1.5-1-2.1
			c-0.5-0.6-1.1-1.1-1.8-1.4c-0.7-0.3-1.6-0.5-2.6-0.5c-1,0-1.9,0.2-2.7,0.5c-0.8,0.3-1.6,0.8-2.2,1.4s-1.1,1.3-1.5,2.1
			c-0.4,0.8-0.7,1.7-0.8,2.6c-0.1,0.9-0.1,1.8,0.1,2.6c0.2,0.8,0.5,1.5,1,2.1c0.5,0.6,1.1,1.1,1.8,1.4c0.7,0.3,1.6,0.5,2.6,0.5
			c1,0,1.9-0.2,2.7-0.5s1.6-0.8,2.2-1.4s1.2-1.3,1.6-2.1C342.7,250.8,342.9,249.9,343.1,249z"/>
		<path class="st2" d="M360.5,247.1l0.1-0.4c0.4-2.9-0.9-4.4-3.7-4.4c-2,0-3.8,0.7-5.4,2l-1.2-1.7c0.9-0.8,2-1.4,3.2-1.8
			c1.2-0.4,2.7-0.6,4.2-0.6c0.8,0,1.6,0.1,2.3,0.4c0.7,0.2,1.3,0.6,1.8,1.1c0.5,0.5,0.9,1.1,1.1,1.9c0.2,0.7,0.3,1.6,0.1,2.7l-1,7.5
			c-0.1,0.6-0.2,1.3-0.2,2c0,0.7-0.1,1.3-0.1,1.7h-2.3c0-0.4,0-0.9,0-1.3s0.1-0.9,0.2-1.4h-0.1c-0.8,1.1-1.8,1.9-2.8,2.4
			c-1,0.5-2.2,0.7-3.6,0.7c-0.7,0-1.5-0.1-2.1-0.3c-0.7-0.2-1.2-0.5-1.7-0.9c-0.5-0.4-0.8-0.9-1.1-1.5c-0.2-0.6-0.3-1.3-0.2-2.1
			c0.2-1.4,0.7-2.4,1.5-3.2c0.8-0.8,1.8-1.4,2.9-1.7c1.1-0.4,2.3-0.6,3.5-0.7c1.2-0.1,2.3-0.1,3.3-0.1H360.5z M359,249
			c-0.6,0-1.4,0-2.3,0.1c-0.9,0.1-1.8,0.2-2.7,0.4c-0.9,0.2-1.6,0.6-2.3,1.1c-0.7,0.5-1.1,1.1-1.2,2c-0.1,0.6,0,1,0.1,1.4
			c0.2,0.4,0.4,0.7,0.8,1c0.3,0.3,0.8,0.4,1.2,0.5c0.5,0.1,0.9,0.2,1.4,0.2c0.9,0,1.6-0.1,2.3-0.4s1.3-0.7,1.8-1.2
			c0.5-0.5,0.9-1.1,1.2-1.7c0.3-0.7,0.5-1.4,0.6-2.1l0.2-1.2H359z"/>
		<path class="st2" d="M369.3,257.4h-2.4l3.8-27.2h2.4L369.3,257.4z"/>
		<path class="st2" d="M377.3,257.4h-2.4l2.4-16.8h2.4L377.3,257.4z M381.1,234.1c-0.1,0.5-0.3,0.9-0.7,1.2
			c-0.4,0.3-0.8,0.5-1.3,0.5c-0.4,0-0.8-0.2-1.1-0.5c-0.3-0.3-0.4-0.7-0.4-1.2c0.1-0.5,0.3-0.9,0.7-1.2c0.4-0.3,0.8-0.5,1.3-0.5
			c0.4,0,0.8,0.2,1.1,0.5C381.1,233.2,381.2,233.6,381.1,234.1z"/>
		<path class="st2" d="M393.3,242.7h-4.8l-1.3,9.9c-0.1,0.6-0.1,1.1-0.1,1.5c0.1,0.4,0.2,0.7,0.4,0.9c0.2,0.2,0.4,0.4,0.7,0.5
			c0.3,0.1,0.6,0.1,1,0.1c0.4,0,0.8-0.1,1.3-0.2c0.4-0.1,0.9-0.3,1.2-0.5l-0.2,2.2c-1,0.4-2.1,0.6-3.3,0.6c-0.5,0-0.9-0.1-1.4-0.2
			c-0.5-0.1-0.9-0.3-1.2-0.7c-0.4-0.3-0.6-0.8-0.8-1.4c-0.2-0.6-0.2-1.3-0.1-2.3l1.5-10.6h-3.6l0.3-2.2h3.6l0.6-4.8h2.4l-0.6,4.8
			h4.9L393.3,242.7z"/>
		<path class="st2" d="M396.9,257.4h-2.4l2.4-16.8h2.4L396.9,257.4z M400.7,234.1c-0.1,0.5-0.3,0.9-0.7,1.2
			c-0.4,0.3-0.8,0.5-1.3,0.5s-0.8-0.2-1.1-0.5c-0.3-0.3-0.4-0.7-0.4-1.2c0.1-0.5,0.3-0.9,0.7-1.2c0.4-0.3,0.8-0.5,1.3-0.5
			s0.8,0.2,1.1,0.5C400.7,233.2,400.8,233.6,400.7,234.1z"/>
		<path class="st2" d="M420.4,249c-0.2,1.3-0.6,2.4-1.2,3.5s-1.3,2-2.2,2.8c-0.9,0.8-1.9,1.4-3.1,1.9c-1.2,0.4-2.4,0.7-3.7,0.7
			c-1.3,0-2.5-0.2-3.5-0.7c-1-0.4-1.9-1.1-2.6-1.9c-0.7-0.8-1.2-1.7-1.5-2.8s-0.3-2.3-0.1-3.5c0.2-1.3,0.6-2.4,1.2-3.5
			s1.4-2,2.2-2.8c0.9-0.8,1.9-1.4,3.1-1.9c1.2-0.4,2.4-0.7,3.7-0.7c1.3,0,2.5,0.2,3.5,0.7c1,0.4,1.9,1.1,2.6,1.9
			c0.7,0.8,1.2,1.7,1.5,2.8S420.5,247.7,420.4,249z M417.8,249c0.1-0.9,0.1-1.8-0.1-2.6c-0.2-0.8-0.5-1.5-1-2.1
			c-0.5-0.6-1.1-1.1-1.8-1.4c-0.7-0.3-1.6-0.5-2.6-0.5s-1.9,0.2-2.7,0.5c-0.8,0.3-1.6,0.8-2.2,1.4s-1.1,1.3-1.5,2.1
			c-0.4,0.8-0.7,1.7-0.8,2.6c-0.1,0.9-0.1,1.8,0.1,2.6c0.2,0.8,0.5,1.5,1,2.1c0.5,0.6,1.1,1.1,1.8,1.4c0.7,0.3,1.6,0.5,2.6,0.5
			c1,0,1.9-0.2,2.7-0.5s1.6-0.8,2.2-1.4s1.2-1.3,1.6-2.1C417.4,250.8,417.6,249.9,417.8,249z"/>
		<path class="st2" d="M427.9,240.6c0,0.5-0.1,0.9-0.1,1.4c0,0.4-0.1,0.9-0.2,1.3h0.1c0.3-0.5,0.7-0.9,1.2-1.3c0.5-0.4,1-0.7,1.5-1
			c0.5-0.3,1.1-0.5,1.7-0.6s1.2-0.2,1.7-0.2c2.2,0,3.7,0.6,4.6,1.7c0.9,1.1,1.2,2.8,0.9,4.9l-1.5,10.7h-2.4l1.3-9.3
			c0.1-0.9,0.2-1.8,0.1-2.5c0-0.7-0.2-1.3-0.5-1.8s-0.7-0.9-1.2-1.1c-0.6-0.3-1.3-0.4-2.2-0.4c-0.1,0-0.5,0-1,0.1
			c-0.6,0.1-1.2,0.4-1.9,0.8c-0.7,0.4-1.3,1.1-1.9,1.9c-0.6,0.9-1,2.1-1.2,3.6l-1.2,8.6h-2.4l1.8-13.1c0.1-0.5,0.1-1,0.2-1.7
			c0.1-0.7,0.1-1.4,0.2-2H427.9z"/>
		<path class="st2" d="M447,255.7c-0.1,0.5-0.3,1-0.7,1.4c-0.4,0.4-0.9,0.6-1.5,0.6s-1-0.2-1.3-0.6c-0.3-0.4-0.4-0.8-0.3-1.4
			c0.1-0.5,0.3-1,0.7-1.3c0.4-0.4,0.9-0.6,1.5-0.6s1,0.2,1.3,0.6C446.9,254.7,447,255.2,447,255.7z"/>
		<path class="st2" d="M464,247.1l0.1-0.4c0.4-2.9-0.9-4.4-3.7-4.4c-2,0-3.8,0.7-5.4,2l-1.2-1.7c0.9-0.8,2-1.4,3.2-1.8
			s2.7-0.6,4.2-0.6c0.8,0,1.6,0.1,2.3,0.4c0.7,0.2,1.3,0.6,1.8,1.1c0.5,0.5,0.9,1.1,1.1,1.9c0.2,0.7,0.3,1.6,0.1,2.7l-1,7.5
			c-0.1,0.6-0.2,1.3-0.2,2c0,0.7-0.1,1.3-0.1,1.7h-2.3c0-0.4,0-0.9,0-1.3s0.1-0.9,0.2-1.4H463c-0.8,1.1-1.8,1.9-2.8,2.4
			c-1,0.5-2.2,0.7-3.6,0.7c-0.7,0-1.5-0.1-2.1-0.3c-0.7-0.2-1.2-0.5-1.7-0.9c-0.5-0.4-0.8-0.9-1.1-1.5c-0.2-0.6-0.3-1.3-0.2-2.1
			c0.2-1.4,0.7-2.4,1.5-3.2c0.8-0.8,1.8-1.4,2.9-1.7c1.1-0.4,2.3-0.6,3.5-0.7c1.2-0.1,2.3-0.1,3.3-0.1H464z M462.5,249
			c-0.6,0-1.4,0-2.3,0.1s-1.8,0.2-2.7,0.4c-0.9,0.2-1.6,0.6-2.3,1.1c-0.7,0.5-1.1,1.1-1.2,2c-0.1,0.6,0,1,0.1,1.4
			c0.2,0.4,0.4,0.7,0.8,1c0.3,0.3,0.8,0.4,1.2,0.5c0.5,0.1,0.9,0.2,1.4,0.2c0.9,0,1.6-0.1,2.3-0.4s1.3-0.7,1.8-1.2
			c0.5-0.5,0.9-1.1,1.2-1.7c0.3-0.7,0.5-1.4,0.6-2.1l0.2-1.2H462.5z"/>
		<path class="st2" d="M470.7,260.8c0.6,0.9,1.3,1.7,2.4,2.2c1,0.6,2.2,0.8,3.6,0.8c1.2,0,2.2-0.2,3.1-0.5c0.9-0.3,1.6-0.8,2.2-1.4
			c0.6-0.6,1.1-1.3,1.4-2.1c0.3-0.8,0.6-1.7,0.7-2.6l0.4-3h-0.1c-0.9,1.2-2,2-3.1,2.4c-1.2,0.5-2.4,0.7-3.6,0.7s-2.3-0.2-3.3-0.6
			c-1-0.4-1.9-1-2.5-1.8c-0.7-0.8-1.2-1.7-1.5-2.7c-0.3-1.1-0.4-2.2-0.2-3.4c0.2-1.2,0.5-2.4,1.1-3.4c0.6-1.1,1.3-2,2.2-2.8
			s1.8-1.4,3-1.9c1.1-0.4,2.3-0.7,3.5-0.7c0.5,0,1,0,1.6,0.1c0.6,0.1,1.1,0.3,1.6,0.5c0.5,0.2,1,0.6,1.5,1c0.5,0.4,0.9,1,1.4,1.6
			h0.1l0.4-2.8h2.4l-2.3,16.7c-0.1,0.9-0.4,1.9-0.8,2.9s-0.9,2-1.7,2.8c-0.8,0.9-1.8,1.6-3.1,2.2c-1.3,0.6-2.8,0.9-4.7,0.9
			c-3.3,0-5.8-1.1-7.6-3.4L470.7,260.8z M472.9,248.8c-0.1,0.9-0.1,1.7,0.1,2.5c0.2,0.8,0.5,1.5,1,2.1c0.5,0.6,1.1,1.1,1.8,1.4
			c0.7,0.3,1.5,0.5,2.4,0.5c0.9,0,1.7-0.2,2.5-0.5c0.8-0.3,1.6-0.8,2.2-1.3c0.7-0.6,1.2-1.2,1.7-2s0.7-1.7,0.8-2.7
			c0.1-0.9,0.1-1.7-0.1-2.5c-0.2-0.8-0.5-1.5-1-2.1c-0.5-0.6-1.1-1.1-1.8-1.4c-0.7-0.3-1.6-0.5-2.6-0.5c-0.9,0-1.7,0.2-2.5,0.5
			c-0.8,0.3-1.5,0.8-2.2,1.4c-0.6,0.6-1.2,1.3-1.6,2.1C473.3,247.1,473,247.9,472.9,248.8z"/>
		<path class="st2" d="M494.4,257.4H492l2.4-16.8h2.4L494.4,257.4z M498.2,234.1c-0.1,0.5-0.3,0.9-0.7,1.2c-0.4,0.3-0.8,0.5-1.3,0.5
			c-0.4,0-0.8-0.2-1.1-0.5c-0.3-0.3-0.4-0.7-0.4-1.2s0.3-0.9,0.7-1.2s0.8-0.5,1.3-0.5c0.4,0,0.8,0.2,1.1,0.5
			S498.3,233.6,498.2,234.1z"/>
		<path class="st2" d="M502.5,257.4h-2.4l3.8-27.2h2.4L502.5,257.4z"/>
		<path class="st2" d="M510.4,249.7c0,0.8,0,1.6,0.3,2.4c0.2,0.7,0.6,1.4,1.1,1.9c0.5,0.5,1,1,1.7,1.3c0.7,0.3,1.5,0.5,2.3,0.5
			c1.3,0,2.4-0.3,3.4-0.9c1-0.6,1.8-1.3,2.4-2l1.6,1.5c-1.2,1.3-2.4,2.2-3.7,2.7s-2.6,0.8-4,0.8c-1.2,0-2.4-0.2-3.4-0.7
			c-1-0.4-1.8-1.1-2.5-1.9c-0.7-0.8-1.2-1.7-1.4-2.8s-0.3-2.3-0.1-3.5c0.2-1.3,0.5-2.4,1.1-3.5c0.6-1.1,1.3-2,2.2-2.8
			c0.9-0.8,1.9-1.4,3-1.9c1.1-0.4,2.2-0.7,3.4-0.7c1.3,0,2.4,0.2,3.3,0.7c0.9,0.5,1.7,1.1,2.3,1.8s1,1.6,1.2,2.7
			c0.2,1,0.3,2.1,0.1,3.3l-0.2,1.1H510.4z M522.2,247.7c0.2-1.6-0.1-2.9-0.9-3.9s-2.1-1.5-3.8-1.5c-0.8,0-1.5,0.2-2.3,0.5
			c-0.8,0.3-1.4,0.7-2.1,1.2c-0.6,0.5-1.1,1.1-1.6,1.7c-0.4,0.6-0.7,1.3-0.8,2H522.2z"/>
		<path class="st2" d="M539.6,257.4c0-0.5,0.1-0.9,0.1-1.4c0-0.4,0.1-0.9,0.2-1.3h-0.1c-0.3,0.5-0.7,0.9-1.2,1.3
			c-0.5,0.4-1,0.7-1.5,1c-0.5,0.3-1.1,0.5-1.7,0.6c-0.6,0.2-1.2,0.2-1.7,0.2c-2.2,0-3.7-0.6-4.5-1.7c-0.9-1.1-1.2-2.8-0.9-4.9
			l1.5-10.7h2.4l-1.3,9.3c-0.1,0.9-0.2,1.8-0.1,2.5c0,0.7,0.2,1.3,0.5,1.8c0.3,0.5,0.7,0.9,1.2,1.1s1.3,0.4,2.2,0.4
			c0.1,0,0.3,0,0.6-0.1c0.3,0,0.6-0.1,1-0.3c0.4-0.1,0.8-0.3,1.3-0.6c0.5-0.3,0.9-0.7,1.3-1.1c0.4-0.5,0.8-1.1,1.1-1.8
			c0.3-0.7,0.6-1.6,0.7-2.6l1.2-8.6h2.4l-1.9,13.1c0,0.5-0.1,1-0.2,1.7c-0.1,0.7-0.1,1.4-0.2,2H539.6z"/>
		<path class="st2" d="M549.6,240.6h2.4l-0.4,2.8h0.1c0.5-0.6,1-1.1,1.6-1.5c0.6-0.4,1.2-0.7,1.8-1c0.6-0.3,1.2-0.5,1.9-0.6
			c0.6-0.1,1.2-0.2,1.8-0.2c1.3,0,2.5,0.2,3.5,0.7c1,0.4,1.9,1.1,2.6,1.9c0.7,0.8,1.2,1.7,1.5,2.8s0.3,2.3,0.2,3.5
			c-0.2,1.3-0.6,2.4-1.2,3.5c-0.6,1.1-1.3,2-2.2,2.8s-1.9,1.4-3.1,1.9c-1.2,0.4-2.4,0.7-3.7,0.7c-0.6,0-1.1-0.1-1.7-0.2
			c-0.6-0.1-1.2-0.3-1.7-0.6c-0.6-0.3-1.1-0.6-1.5-1c-0.5-0.4-0.8-0.9-1.2-1.5h-0.1l-1.8,13.2h-2.4L549.6,240.6z M563.7,249
			c0.1-0.9,0.1-1.8-0.1-2.6c-0.2-0.8-0.5-1.5-1-2.1s-1.1-1.1-1.8-1.4c-0.7-0.3-1.6-0.5-2.6-0.5c-1,0-1.9,0.2-2.8,0.5
			c-0.9,0.3-1.6,0.8-2.3,1.4c-0.7,0.6-1.2,1.3-1.7,2.1c-0.4,0.8-0.7,1.7-0.9,2.6c-0.1,0.9-0.1,1.8,0.1,2.6c0.2,0.8,0.6,1.5,1.1,2.1
			c0.5,0.6,1.2,1.1,1.9,1.4c0.8,0.3,1.6,0.5,2.6,0.5c1,0,1.9-0.2,2.7-0.5s1.6-0.8,2.2-1.4c0.6-0.6,1.2-1.3,1.6-2.1
			C563.3,250.8,563.6,249.9,563.7,249z"/>
		<path class="st2" d="M570.8,245.8c0.1-0.7,0.2-1.5,0.3-2.3c0.1-0.8,0.2-1.8,0.3-3h2.4l-0.4,3.1h0.1c0.2-0.5,0.5-0.9,0.9-1.3
			c0.4-0.4,0.8-0.8,1.3-1.1c0.5-0.3,1-0.6,1.6-0.8c0.6-0.2,1.3-0.3,2-0.3c0.7,0,1.3,0.1,1.8,0.2l-0.8,2.3c-0.3-0.1-0.7-0.2-1.3-0.2
			c-0.9,0-1.7,0.2-2.4,0.5c-0.7,0.3-1.3,0.8-1.8,1.3s-0.9,1.1-1.2,1.7c-0.3,0.6-0.5,1.2-0.6,1.8l-1.4,9.5h-2.4L570.8,245.8z"/>
		<path class="st2" d="M583.8,257.4h-2.4l2.4-16.8h2.4L583.8,257.4z M587.6,234.1c-0.1,0.5-0.3,0.9-0.7,1.2
			c-0.4,0.3-0.8,0.5-1.3,0.5c-0.4,0-0.8-0.2-1.1-0.5c-0.3-0.3-0.4-0.7-0.4-1.2s0.3-0.9,0.7-1.2s0.8-0.5,1.3-0.5
			c0.4,0,0.8,0.2,1.1,0.5S587.6,233.6,587.6,234.1z"/>
		<path class="st2" d="M599.8,244.6c-0.3-0.7-0.7-1.2-1.2-1.7c-0.5-0.4-1.2-0.6-2.1-0.6c-0.4,0-0.8,0-1.3,0.1
			c-0.4,0.1-0.8,0.2-1.2,0.5c-0.4,0.2-0.7,0.5-0.9,0.8s-0.4,0.7-0.5,1.2c-0.1,0.8,0.1,1.4,0.6,1.7c0.5,0.4,1.3,0.7,2.4,0.9l2.3,0.6
			c1.1,0.3,2,0.8,2.7,1.6c0.7,0.8,0.9,1.8,0.8,3c-0.1,0.9-0.4,1.7-0.9,2.4c-0.5,0.7-1,1.2-1.7,1.6s-1.4,0.7-2.2,0.9
			c-0.8,0.2-1.6,0.3-2.4,0.3c-1.3,0-2.5-0.2-3.5-0.7c-1-0.5-1.9-1.3-2.5-2.5l2.3-1.4c0.4,0.8,0.9,1.4,1.6,1.8s1.5,0.7,2.5,0.7
			c0.5,0,1-0.1,1.5-0.2c0.5-0.1,0.9-0.3,1.4-0.5c0.4-0.2,0.8-0.5,1-0.9c0.3-0.4,0.5-0.8,0.5-1.3c0-0.4,0-0.8-0.1-1.1
			s-0.3-0.5-0.6-0.7c-0.3-0.2-0.6-0.4-1-0.5c-0.4-0.1-0.8-0.3-1.2-0.4l-2.2-0.5c-0.3-0.1-0.7-0.2-1.1-0.4c-0.5-0.2-0.9-0.4-1.3-0.8
			c-0.4-0.3-0.8-0.8-1-1.3c-0.3-0.5-0.3-1.2-0.2-2c0.1-0.9,0.4-1.6,0.8-2.3c0.4-0.6,1-1.2,1.6-1.6c0.6-0.4,1.3-0.7,2.1-0.9
			c0.8-0.2,1.6-0.3,2.4-0.3c1.2,0,2.2,0.2,3.2,0.7c0.9,0.5,1.6,1.2,2,2.3L599.8,244.6z"/>
		<path class="st2" d="M607,257.4h-2.4l2.4-16.8h2.4L607,257.4z M610.8,234.1c-0.1,0.5-0.3,0.9-0.7,1.2c-0.4,0.3-0.8,0.5-1.3,0.5
			c-0.4,0-0.8-0.2-1.1-0.5c-0.3-0.3-0.4-0.7-0.4-1.2s0.3-0.9,0.7-1.2s0.8-0.5,1.3-0.5c0.4,0,0.8,0.2,1.1,0.5
			S610.9,233.6,610.8,234.1z"/>
		<path class="st2" d="M617,240.6c0,0.5-0.1,0.9-0.1,1.4c0,0.4-0.1,0.9-0.2,1.3h0.1c0.3-0.5,0.7-0.9,1.2-1.3c0.5-0.4,1-0.7,1.5-1
			c0.5-0.3,1.1-0.5,1.7-0.6s1.2-0.2,1.7-0.2c2.2,0,3.7,0.6,4.6,1.7c0.9,1.1,1.2,2.8,0.9,4.9l-1.5,10.7h-2.4l1.3-9.3
			c0.1-0.9,0.2-1.8,0.1-2.5c0-0.7-0.2-1.3-0.5-1.8s-0.7-0.9-1.2-1.1c-0.6-0.3-1.3-0.4-2.2-0.4c-0.1,0-0.5,0-1,0.1
			c-0.6,0.1-1.2,0.4-1.9,0.8c-0.7,0.4-1.3,1.1-1.9,1.9c-0.6,0.9-1,2.1-1.2,3.6l-1.2,8.6h-2.4l1.8-13.1c0.1-0.5,0.1-1,0.2-1.7
			c0.1-0.7,0.1-1.4,0.2-2H617z"/>
		<path class="st2" d="M632.7,260.8c0.6,0.9,1.3,1.7,2.4,2.2c1,0.6,2.2,0.8,3.6,0.8c1.2,0,2.2-0.2,3.1-0.5c0.9-0.3,1.6-0.8,2.2-1.4
			c0.6-0.6,1.1-1.3,1.4-2.1c0.3-0.8,0.6-1.7,0.7-2.6l0.4-3h-0.1c-0.9,1.2-2,2-3.1,2.4c-1.2,0.5-2.4,0.7-3.6,0.7
			c-1.2,0-2.3-0.2-3.3-0.6c-1-0.4-1.9-1-2.5-1.8c-0.7-0.8-1.2-1.7-1.5-2.7c-0.3-1.1-0.4-2.2-0.2-3.4s0.5-2.4,1.1-3.4
			c0.6-1.1,1.3-2,2.2-2.8c0.9-0.8,1.8-1.4,3-1.9c1.1-0.4,2.3-0.7,3.5-0.7c0.5,0,1,0,1.6,0.1c0.6,0.1,1.1,0.3,1.6,0.5
			c0.5,0.2,1,0.6,1.5,1c0.5,0.4,0.9,1,1.3,1.6h0.1l0.4-2.8h2.4l-2.3,16.7c-0.1,0.9-0.4,1.9-0.8,2.9c-0.4,1-0.9,2-1.7,2.8
			c-0.8,0.9-1.8,1.6-3.1,2.2c-1.3,0.6-2.8,0.9-4.7,0.9c-3.3,0-5.8-1.1-7.6-3.4L632.7,260.8z M634.8,248.8c-0.1,0.9-0.1,1.7,0.1,2.5
			c0.2,0.8,0.5,1.5,1,2.1c0.5,0.6,1.1,1.1,1.8,1.4c0.7,0.3,1.5,0.5,2.4,0.5c0.9,0,1.7-0.2,2.5-0.5s1.6-0.8,2.2-1.3
			c0.7-0.6,1.2-1.2,1.7-2s0.7-1.7,0.8-2.7c0.1-0.9,0.1-1.7-0.1-2.5c-0.2-0.8-0.5-1.5-1-2.1c-0.5-0.6-1.1-1.1-1.8-1.4
			c-0.7-0.3-1.6-0.5-2.6-0.5c-0.9,0-1.7,0.2-2.5,0.5c-0.8,0.3-1.5,0.8-2.2,1.4c-0.6,0.6-1.2,1.3-1.6,2.1
			C635.2,247.1,634.9,247.9,634.8,248.8z"/>
		<path class="st2" d="M657.7,255.7c-0.1,0.5-0.3,1-0.7,1.4c-0.4,0.4-0.9,0.6-1.5,0.6s-1-0.2-1.3-0.6c-0.3-0.4-0.4-0.8-0.3-1.4
			c0.1-0.5,0.3-1,0.7-1.3c0.4-0.4,0.9-0.6,1.5-0.6s1,0.2,1.3,0.6C657.6,254.7,657.7,255.2,657.7,255.7z"/>
		<path class="st2" d="M675.8,244.5c-0.3-0.6-0.8-1.2-1.5-1.6c-0.7-0.4-1.5-0.6-2.4-0.6c-1,0-1.9,0.1-2.7,0.5
			c-0.8,0.3-1.6,0.8-2.2,1.4c-0.6,0.6-1.2,1.3-1.5,2.1c-0.4,0.8-0.7,1.7-0.8,2.7c-0.1,1-0.1,1.9,0.1,2.7c0.2,0.8,0.5,1.5,1,2.1
			c0.5,0.6,1.1,1.1,1.8,1.4c0.7,0.3,1.6,0.5,2.6,0.5c0.9,0,1.8-0.2,2.6-0.6c0.8-0.4,1.4-1,1.9-1.6l1.8,1.5c-1,1-2,1.7-3.2,2.2
			c-1.1,0.5-2.3,0.7-3.4,0.7c-1.4,0-2.6-0.2-3.6-0.6s-1.9-1.1-2.6-1.9c-0.7-0.8-1.1-1.7-1.4-2.8c-0.3-1.1-0.3-2.3-0.1-3.5
			c0.2-1.3,0.5-2.5,1.1-3.5c0.6-1.1,1.3-2,2.2-2.8s1.9-1.4,3.1-1.9c1.2-0.4,2.4-0.7,3.8-0.6c1.2,0,2.2,0.3,3.2,0.7
			c1,0.5,1.8,1.2,2.5,2.2L675.8,244.5z"/>
		<path class="st2" d="M696.7,249c-0.2,1.3-0.6,2.4-1.2,3.5s-1.3,2-2.2,2.8c-0.9,0.8-1.9,1.4-3.1,1.9c-1.2,0.4-2.4,0.7-3.7,0.7
			c-1.3,0-2.5-0.2-3.5-0.7c-1-0.4-1.9-1.1-2.6-1.9c-0.7-0.8-1.2-1.7-1.5-2.8c-0.3-1.1-0.3-2.3-0.1-3.5c0.2-1.3,0.6-2.4,1.2-3.5
			c0.6-1.1,1.3-2,2.2-2.8c0.9-0.8,1.9-1.4,3.1-1.9c1.2-0.4,2.4-0.7,3.7-0.7c1.3,0,2.5,0.2,3.5,0.7c1,0.4,1.9,1.1,2.6,1.9
			s1.2,1.7,1.5,2.8S696.9,247.7,696.7,249z M694.1,249c0.1-0.9,0.1-1.8-0.1-2.6c-0.2-0.8-0.5-1.5-1-2.1c-0.5-0.6-1.1-1.1-1.8-1.4
			c-0.7-0.3-1.6-0.5-2.6-0.5c-1,0-1.9,0.2-2.7,0.5c-0.8,0.3-1.6,0.8-2.2,1.4s-1.1,1.3-1.5,2.1c-0.4,0.8-0.7,1.7-0.8,2.6
			c-0.1,0.9-0.1,1.8,0.1,2.6c0.2,0.8,0.5,1.5,1,2.1s1.1,1.1,1.8,1.4c0.7,0.3,1.6,0.5,2.6,0.5c1,0,1.9-0.2,2.7-0.5s1.6-0.8,2.2-1.4
			c0.6-0.6,1.2-1.3,1.6-2.1C693.7,250.8,693.9,249.9,694.1,249z"/>
		<path class="st2" d="M701.4,244.3c0.1-0.6,0.2-1.2,0.2-1.9c0-0.6,0.1-1.2,0.1-1.9h2.6l-0.4,2.6h0.1c0.4-0.5,0.8-0.9,1.2-1.3
			c0.5-0.4,0.9-0.7,1.5-0.9c0.5-0.3,1-0.4,1.6-0.6c0.5-0.1,1.1-0.2,1.6-0.2c0.5,0,0.9,0,1.4,0.1c0.5,0.1,1,0.3,1.4,0.5
			c0.4,0.3,0.8,0.6,1.2,1.1c0.4,0.5,0.6,1,0.8,1.8c0.3-0.5,0.7-1,1.2-1.4c0.5-0.4,0.9-0.8,1.5-1.1c0.5-0.3,1.1-0.5,1.7-0.7
			c0.6-0.2,1.2-0.2,1.7-0.2c2.2,0,3.7,0.6,4.6,1.7c0.9,1.1,1.2,2.8,0.9,4.9l-1.5,10.7h-2.4l1.4-9.8c0.1-0.9,0.2-1.6,0.1-2.3
			c0-0.6-0.2-1.2-0.5-1.7c-0.3-0.5-0.7-0.8-1.2-1c-0.5-0.2-1.2-0.3-2-0.3c-0.9,0-1.7,0.2-2.3,0.5c-0.7,0.3-1.2,0.8-1.7,1.4
			c-0.5,0.6-0.8,1.2-1.1,2c-0.3,0.7-0.5,1.5-0.6,2.3l-1.2,9H711l1.4-9.8c0.1-0.9,0.2-1.6,0.1-2.3c0-0.6-0.2-1.2-0.4-1.7
			c-0.3-0.5-0.7-0.8-1.2-1c-0.5-0.2-1.2-0.3-2-0.3c-0.1,0-0.5,0-1,0.1c-0.5,0.1-1.1,0.4-1.7,0.8c-0.6,0.4-1.2,1.1-1.8,1.9
			c-0.6,0.9-1,2.1-1.2,3.6l-1.2,8.6h-2.4L701.4,244.3z"/>
	</g>
</g>
<g id="Layer_3">
	<g>
		<circle id="XMLID_37_" class="st3" cx="192.1" cy="150" r="62"/>
		<g>
			<g id="XMLID_3_">
				<g>
					<path id="XMLID_223_" class="st4" d="M161.7,133.4c-0.9,1.1-1.4,1.1-1.9,1c0.1-0.2,0.3-0.4,0.7-0.6
						C160.9,133.6,161.3,133.5,161.7,133.4C161.7,133.4,161.7,133.4,161.7,133.4 M179.9,185.3c0.1-2.2-1.2-2.8-3.5-3.7
						c-1.7-0.7-6.5-3.6-6.5-3.6c-2.3-1.6-3.4-4.4-5.8-6c-2.1-1.4-4.5-2.2-6.5-3.8c-0.3-0.2-0.7-0.6-1-0.8c-0.2,0-0.5,0.1-0.7,0.1
						c0,0.1,0,0.1-0.1,2c-0.2,0-0.4,0-0.6,0c-0.2-1.1,0.3-2.2,0.2-3.3c-0.9,0.8-3,3.1-3,3.1c-3.5-1.9-3.5-1.9-3.7-7.3
						c-1.7-0.8-1.7-0.8-2.3-5.5c-1.2-0.3-2,0.8-3,1.1c-2.4-1.3-0.4-7.6,0.6-8.2c0,0,4.8-2.1,6.9,4.7c0.6-1.5-0.3-3.2,0.4-4.7
						c1.2-2.6,5.6-8.4,5.6-8.4c0.3-0.3,0.7-0.7,1.1-0.9c0.3-0.2,0.9-0.1,1.2-0.2c1.5-0.6,3.7-4.2,4.5-2c0.1,0.2,0.1,0.4,0.1,0.6
						c0.3,0.1,0.8,0,1.1-0.1c0.2-1.7-1.4-3.1-1-4.9c-0.4-0.1-0.8-0.2-1.2-0.3c0.3-0.5,0.3-0.5,5.7-1.1c0.1,0.2,0.1,0.4,0.2,0.5
						c-0.1,0.2-0.2,0.4-0.3,0.5c2.6,0.6,1.4-3.5,1.4-3.6c-0.4-1.1-1.5-1.8-1.8-3.1c-0.3-1.5,1.6-3,0.2-4.5c-1,0.2-1.8,1-2.9,1.1
						c-0.1-0.1-0.3-0.3-0.4-0.5c0-0.4,0-0.4-1.5-3.5c-1.4,0.8-2.8,3.1-2.8,3.2c-0.2,0.3-2.2,5.6-2.2,5.7c-0.5,1.8-1.1,1.9-1.7,1.9
						c-0.5-0.9-0.4-1.3,0.2-2.8c0.6-1.5,0-1.7-0.7-1.8l-2.1-3.2c0.1-0.7,0.1-0.7,2.8-4.8c2.2-3.3,8-1.6,8.9-6.6c0,0,0,0-2.9,1.3
						c-0.1-0.1-0.3-0.2-0.5-0.2c0.8-1.3,0.9-2.8,1.8-4.1c-0.1-0.2-0.2-0.5-0.4-0.6c-1.9,0.7-1.5,3.7-3.8,3.9
						c-0.1-0.1-0.3-0.3-0.4-0.4c0.2-0.3,0.3-0.8,0.4-1.1c-2,0-2,0-2.4-0.2c-0.4,0.2-0.4,0.2-1.6,1.2c-0.2-0.1-0.4-0.2-0.6-0.3
						c-0.2-0.8-0.2-0.8,0.7-2.5c-0.5-1,0.1-1.9-0.1-2.9c-0.3,0-0.3,0-1.7,0.4c-0.1-0.1-0.3-0.3-0.5-0.4c-0.2-1.9,0.9-3.3,1.8-4.8
						c0,0-2.8,1.9-6.3,5.2c-2.5,2.4-5.3,5.5-7.5,8.7c0.6-0.8,1.5-1.7,2.2-2.4c0.2,0,0.4,0.1,0.6,0.1c0.4,1,0.3,1.2-0.4,2.4
						c-0.1,0.2-12.8,25.1-7,37.3c0.2-0.7,0.2-0.7-0.3-7.2c0.6,0.4,0.6,0.4,0.7,2.5c0.5,6.8,2.2,11.6,4.6,13.5
						c0.5,0.2,0.5,0.2,0.5,0.2l0,0c0,0,0,0,0,0l0,0c0,0,0,0,0,0c0,0,0,0,0,0c0,0,0,0,0,0c2.2,1,10.1,10.1,10.1,10.2
						c0.1,0.1,1.2,2.4-2,5.2c0,1.6,1.9,5.8,2,5.8c2.1,3.8,6.6,5.6,8.2,9.8c3.3,8.7,3.3,8.7,4.7,10.6c4.3,5.6,7.7,6.5,10.3,7.1
						c-4.2-2.5-4.9-2.9-6.5-6.5c1.3-1.7,1.3-1.7,1.3-2.5c1.6-0.2,1.8-0.2,3-1.4c1.1-1-0.4-2.4,0.4-3.4c1-1.3,2.9-0.8,3.8-2.2
						C178.9,191.3,179.9,185.3,179.9,185.3"/>
					<path id="XMLID_222_" class="st4" d="M168.9,118.9c-0.3,0.5-0.6,0.7-1,0.7c0,0-2-0.2-2.2-1c-0.2-0.7,0.5-1.9-0.5-2.2
						c-0.1,0-0.1,0-0.1,0c0,0,0,0,0,0c0,0,0,0,0,0c0,0,0,0,0,0c-0.9-0.2-0.1-1.1,0.6-1.6c0.6-0.4,0.6-0.4,1-0.9
						c0.2-0.3,0.4-0.6,0.6-1c0-0.3,0-0.3,0.8-1.6c0,0,0,0,0,0c0,0,0,0,0,0c0,0,0,0,0,0c0,0,0,0,0,0c0,0,0,0,0,0c0,0,0,0,0,0h0
						c0,0,0,0,0,0c-0.7-0.2-0.9-0.3-0.7-1.2c0.2-0.7,0.3-1.3-0.1-1.5c-0.5-0.2-1.2,0.1-1.6-0.4c0,0-0.1-0.1-0.1-0.1c0,0,0-0.1,0-0.1
						c-0.1-0.3,0.5-1.1,1.1-1.5c0,0,2-1.2,2.5-1.1c0.4,0.1,0.4,0.3,0.4,0.7c0,0.4,0.6,1.6,0.9,1.8c0.9,0.8,1.1,1,0.5,2.2
						c-0.9,1.9-0.9,1.9-0.3,2.6c0.3,0.3,0.3,0.5,0.3,0.5c0.1,1.1-0.6,1.8-0.8,2c-0.3,0.2-0.7,0-1,0.3c0,0-0.4,0.4-0.2,1
						C169.3,117.4,169.5,117.9,168.9,118.9"/>
					<path id="XMLID_221_" class="st4" d="M159.5,108.7c-0.2,0.2-0.5,0.2-0.5,0.1c-0.4-0.2-0.3-0.9-0.7-1.1
						c-0.5-0.2-0.8,0.5-1.3,0.2c-0.1-0.1-0.3-0.2-0.2-0.5c0.2-1,1.3-1.3,1.7-2c0-0.1,0-0.1-0.5-0.3c0.3-0.3,0.8-0.5,1.2-0.8
						c0,0,0.4-0.6,0.4-0.8l0,0l0,0l0,0l0,0l0,0v0c0,0,0,0,0,0l0,0c-0.1,0-0.1,0-0.4,0.1c-0.2,0.1-0.7,0.2-0.7-0.2c0-0.2,0.1-0.4,1-1
						c1.2-0.8,1.7-0.6,1.8-0.6c0.1,0.1,0.1,0.2-0.3,0.6c-0.2,0.3-0.5,0.6-0.6,0.7c-0.1,0.3,0.2,0.4,0.3,0.6c0.1,0.2,0,0.3,0.1,0.5
						c0,0,0.1,0.1,0.3,0.1c0.1,0,0.2-0.1,0.2-0.2c0.5-0.5,1-0.5,0.9-0.1c0,0,0,0.1-0.1,0.2c-0.4,0.7-1,1.3-1.5,2
						c-0.4,0.7-0.6,1.1-0.7,1.4C160.1,107.9,159.9,108.5,159.5,108.7"/>
					<path id="XMLID_220_" class="st4" d="M165.9,99.8c-0.5,0.3-0.9,0.4-1.2,0.5l-1.4,0.3c0,0-0.2,0-0.1,0c0.2-0.6,2.7-1.9,3.6-1.5
						C166.9,99.2,166.2,99.6,165.9,99.8"/>
					<path id="XMLID_219_" class="st4" d="M165.4,102.6c-0.2,0.2-0.6,0.5-1.2,0.5c0,0-0.1,0-0.1,0c-0.3,0-0.4-0.3-0.6-0.4
						c-0.1-0.1-0.2,0-0.4,0.1c-0.2,0.1-0.4,0.2-0.8,0.2c-0.2,0-0.2-0.1-0.2-0.1c0,0,0-0.2,0.2-0.4c0.2-0.2,0.5-0.4,0.6-0.6
						c0.1-0.1,0.1-0.3,0.3-0.5c0,0,1.7-1,1.8-0.9c0,0.2-0.2,0.4-0.2,0.6c0,0.2,0,0.2,0.2,0.3c0,0,0.1,0.1,0.9-0.6
						c0.3-0.2,0.3-0.2,0.4-0.2c0.1,0.1-0.1,0.3-0.4,0.7c-0.2,0.3-0.2,0.3,0.1,0.6C165.8,102.2,165.6,102.4,165.4,102.6"/>
					<path id="XMLID_218_" class="st4" d="M182.1,98.1c-0.5,0.5-1.4,0.4-1.9,0.9c-0.5,0.4-1,0.8-1.5,1.2c-0.5,0.3-1.1,0-1.6,0.1
						c-0.2,0-0.5,0.1-0.8,0.3c-0.5,0.3-0.9,0.7-1.4,0.9c-1.7,0.9-2,1.1-2.2,1.9c0,0.1-0.2,0.8-1.3,1.4c0,0-0.4,0.2-0.5,0
						c0-0.2,0.2-0.5,0-0.7c0,0,0,0-0.7-0.1c-0.3,0-1.3-0.7-0.3-2.3c0.4-0.6,0.4-0.6,0.4-0.8c0,0-0.1-0.1-0.1-0.1
						c0.1-0.1,1.3-0.9,2-1c0.2,0,0.8-0.2,1.4-0.8c0.3-0.4,0.5-0.6,1.7-1.3c0.1-0.1,0.3-0.2,0.5-0.3c0,0,2.5-1.1,3.5-1l0,0l0,0l0,0
						c0,0,0,0,0,0c0.3,0.1,0.5,0.3,0.8,0.4c0,0,0,0,0,0l0,0l0,0l0,0c0,0,0,0,0,0l0,0l0,0h0c0.4,0.1,0.8,0,1.2,0
						C183.2,97.1,182.4,97.8,182.1,98.1"/>
					<path id="XMLID_217_" class="st4" d="M193.4,99.4c-0.1,0.9-1,1.1-1.3,1.8c-0.4,0.8-0.3,1.1,0.1,2.8c0,0.1,0.1,0.6,0,1.2
						c-0.3,1.3-1.1,2.5-1.4,3.9c-0.3,1.4,0,3-0.9,4.3c-0.1,0.1-0.1,0.1-2,0.7c-0.9,0.3-1.4,1-2.1,1.5c-1.2,0.8-2.8,0.9-3.9,2
						c-0.5,0.5-0.5,0.5-2.5,3.9c-1.8,3.2-3.2,1.5-3.2,1.4c0,0-1.8-3.8,0.5-8.7c1.2-2.5,1.2-2.5,1.5-5.6c0.3-2.5-0.8-4.2-0.9-4.3
						c-0.1-0.2-0.4-0.2-0.7-0.3c-1.1-0.1-1.8-0.8-1.8-0.8c0.8-2.6,3.7-1.9,5.2-3.3c-0.5,0.2-0.5,0.2-0.8,0.2c0,0-0.1-0.1-0.1-0.1
						c0.1-0.2,5.4-2.9,5.4-2.9l2.9-0.3c0.1,0,1.1,0,1.1,0c0.8,0.1,0.8,1.1,1.4,1.4c0.2,0.1,0.3,0.3,0.3,0.7c0.1,0.8,0.2,1.1,1.2,0.4
						C193.1,98.2,193.4,99.4,193.4,99.4"/>
					<path id="XMLID_216_" class="st4" d="M234.2,104.1"/>
					<path id="XMLID_215_" class="st4" d="M227.5,99.2c6.1,4.2,11.1,9.4,13.6,12.5c3.5,4.9,3.8,5.2,5.5,8.5c1,2,2.3,4.7,3.2,6.7
						c0.8,2.3,0.8,2.3,1,2.9c0,0,0,0,0-0.1c1.8,6.2,1.9,6.3,2.5,9.7l0.6,4.3l0.2,2.9v4.5l-0.2,4l-0.2,0.2c-1.5,2.9-0.5,5.6-1.2,8.3
						c-0.6,2.9,0.2-14.2-0.7-15.1c-2,4.8-0.4,10.4-3,15.1c-0.1-0.1-0.3-0.2-0.4-0.4c0-6.5,0-9.7-2-12.9c-0.1-0.1-5.8,0.7-5.8,0.7
						c-1.2-0.7-1.2-3.2-3.1-2.8c-1.8,0.4-0.9,3.6-0.9,3.6c0,0,1,2.9,2.9,1.1c2.1-1.9,3.2,0.5,3,2c-0.9,7.1-6.9,10.2-7.6,9.9
						c-0.8-0.4-1.3-2.2-2.5-6.8c-1.3-5.1-2.2-5.9-4.4-5.9c0,4.4,4.3,12.9,4.9,13.7c0.4,0.5,1.2,1,1.7,1c1.3-0.1,2.2-1.2,3.5-1.3
						c0.4,2.6-2.4,8.5-2.4,8.6c-1.4,2-4,3.2-4.6,5.8c-1.4,5.5-1.4,5.5-2.5,6.9c-3.8,4.7-11.8,14.3-13.9,12.9
						c-0.2-0.1-0.3-0.4-0.5-0.6c0,0-1.9-3.1-1-8c0-0.1,1.8-11.9-1.4-14.5c-5.7-4.6-17.3,0.7-19.3-9.2c-1.2-6.2,7.9-18,12-18.7
						c2.7-0.4,4.9-2.2,7.7-2.3c1.5,3.7,7.2,7.7,8.1,4c0.1-0.4,0-0.9,0-1.2c0.6-0.5,0.9-0.5,2.9,0.3c1.5,0.6,4.4,0,5.4-1
						c0.9-1,1-3.3-1-3.5c-2.9-0.3-2.9-0.3-4.2-3.3c-0.6-0.2-0.7-0.2-2.3,0.6c-0.5,1.6,0.9,2.5,1.2,3.8c-4.9,1.8-3.1-7.4-8-7.8
						c-0.6,2.6,2.5,3.3,2.9,5.4c-0.2,0-0.4,0.1-0.5,0.1c-0.2,0.6-0.1,1.3-0.1,1.9c-0.1,0.1-0.3,0.2-0.5,0.3
						c-0.2-0.4-0.5-0.9-0.6-1.3c-2.4-7.5-8.8-2.6-11,1.5c-2.3,4.3-5.4,0.7-5.4,0.7c-0.1-0.4-1-4,1.8-5.1c1.2-0.5,2-0.8,1.8-2.2
						c-1.9-0.5-1.7-2.9,0.3-4c2.3-1.3,3.6-7.2,6.2-4.6c0.2-0.1,0.4-0.1,0.6-0.2c1.2-2.4,3.7-1.4,5.6-2.2c2.4-1-0.7-3.8,1-5.4
						c0.6-0.6,1.4-0.3,2.1-0.5c0-0.3,0-0.3-3.6-2.1c-1.9-1-1.1-3-1.8-4.4c-1.8,0.9-1.1,6.8-1.1,6.8c0.3,1.4,1.1,5.1-1.4,3.7
						c-1.2-0.7-2-3.1-3.7-2c-0.2,0.1-0.2,0.1-0.2,0.1c-2.8-0.3-3-4.3-3-4.3c1.9-0.4,5-1.8,5.1-6.7c0.1-3.9,0.1-3.9,9.8-2.5
						c1.2,1.9,0.9,2-1,3.2c0.9,1.2,1.1,1.3,1.7,1.4l3.1-6.4c0.5-0.5,0.5-0.5,2.6-0.4c0.1-0.2,0.2-0.4,0.3-0.6
						c-0.8-1.7-2.7-2.7-3.2-4.6c1.9,0.3,1.9,0.3,7.2,7.4c0-1.2-0.5-2.5-3.8-5.4c-2.5-2.3-5.2-6.7-5.2-6.8c0.3-0.6,0-1.1,0-1.7
						c0.1-0.1,0.3-0.3,0.4-0.4c0.5,0.1,0.5,0.1,5,3c0.2-0.7,0.2-0.7-0.2-1.7c0.6,0.1,1.8,0.6,1.8,0.6"/>
					<path id="XMLID_214_" class="st4" d="M153.3,159.3c0,0-0.5,0.9-1,0.6c0,0-0.1-0.1-0.1-0.1c-0.4-0.3-0.5-0.8-0.8-1.2
						c-0.3-0.4-0.8-0.6-1.2-1c-0.7-0.7-0.7-0.7-0.8-0.8c-1.3-0.5-1.3-0.5-1.4-0.7c0-0.1,0-0.1,0-0.2c0.8,0.2,0.8,0.2,1,0.1
						c0.5-0.1,0.5-0.1,0.6-0.1C151.1,156.4,153.6,158.7,153.3,159.3"/>
					<path id="XMLID_213_" class="st4" d="M157.2,161.8c0,0.2-0.1,0.2-0.2,0.3c-0.2,0.1-0.4,0-0.5,0c-0.2,0-0.4,0.2-0.7,0.2
						c-0.3,0-1-0.2-1.2-0.5c0,0-0.3-0.4,0.1-0.6c0.2-0.1,0.2-0.1,0.3-0.2c0.1-0.4-0.2-0.7-0.1-1c0,0,0,0,0.1,0c0,0,0,0,0,0
						c0.2,0.1,0.3,0.3,0.5,0.4c0.4,0.2,0.8,0.3,1.2,0.5c0.1,0,0.1,0.1,0.2,0.1C156.9,161.1,157.2,161.5,157.2,161.8"/>
					<path id="XMLID_212_" class="st4" d="M250.8,169.7c1.5-5.1,1.2-6.8,1.2-6.8c-0.1-0.1,0.1-0.7,0.2-0.8c0,0,0,0,0,0
						c0.1,0.1,0,2.1,0,2.5c-0.1,0.8-0.2,1.3-0.6,2.8L250.8,169.7"/>
					<path id="XMLID_211_" class="st4" d="M234.1,185.6c-0.3,0.7-3.9,6.5-5.8,6.8c0-0.5,2.4-5.3,2.6-5.5c0.3-0.4,0.5-0.7,0.7-0.9
						c0.5-0.5,1.1-0.7,1.6-1.2c0.3-0.3,0.4-0.8,0.7-1.2c0.2-0.2,0.4-0.3,0.4-0.3C234.8,183.2,234.5,184.6,234.1,185.6"/>
					<path id="XMLID_210_" class="st4" d="M194.4,118.6c0,0.2,0,0.3-0.1,0.4c-0.3,0.3-0.6,0.4-0.9,0.7c-0.2,0.2-0.3,0.4-0.5,0.6
						c0,0-0.1,0.1-0.1,0.1c-0.2,0.1-1.2,0-1.2,0c-0.1,0-0.8-0.4-0.9-0.5c0,0-0.4-0.7-0.4-0.7c0-0.2,0-0.4,0.2-0.4c0,0,0,0,0.1,0
						c-0.1-0.6-0.4-0.7-0.6-0.8c-0.6-0.2-0.2-0.7,0.1-0.7c0.7,0,0.7,0,0.8,0.4c0.1,0.2,0.1,0.2,0.2,0.3c0.5,0.2,1-0.3,1.5-0.3
						c0.2,0,0.4,0,0.6,0c0.3,0,0.6-0.2,0.9-0.1C194.4,117.6,194.4,118.3,194.4,118.6"/>
					<path id="XMLID_207_" class="st4" d="M199.4,127.5L199.4,127.5C199.4,127.5,199.4,127.5,199.4,127.5
						C199.4,127.5,199.4,127.5,199.4,127.5C199.4,127.5,199.4,127.5,199.4,127.5C199.4,127.5,199.4,127.5,199.4,127.5 M204.9,132.4
						c-0.1-0.6-0.3-0.8-0.6-1c-0.4-0.3-0.5-0.3-1.8-2.3c-0.1-0.2-0.2-0.4-0.4-0.6c-0.1-0.1-0.3-0.2-0.4-0.4c-0.1-0.3-0.1-0.4,0-0.7
						c0.1-0.3,0.1-0.6,0-0.7c0,0,0,0-0.6-0.2c-0.1-0.3,0-0.6,0-0.8c-0.1,0-0.1,0-0.3,0c-1.1,0.1-1.2,0.7-1.3,1.6
						c0.4-0.2,0.6,0.1,0.6,0.1c0.1,0.1,0.1,0.3,0.1,0.5c0,0.2,0,0.4,0.3,0.9c0.2,0.4,0.7,0.5,0.9,0.9c0,0,0.5,1.1,0.3,1.7
						c-0.1,0.3-0.5,0.5-0.5,0.9c0,0.4,0.2,0.7,0.1,1.1c-0.1,0.4-0.2,0.8,0.1,1c0.1,0.1,0.4,0.1,0.5,0c0.1,0,0.1,0,0.2-0.1
						c0.3-0.1,0.6-0.3,0.9-0.4c0.3-0.1,0.7-0.1,1-0.2c0.2-0.1,0.3-0.1,0.5-0.2C204.9,133.3,205,133.2,204.9,132.4"/>
					<path id="XMLID_206_" class="st4" d="M200.1,130.1c0,0.2-0.1,0.5-0.1,0.7c0,0.2,0,0.3,0.1,0.7c0.1,0.8-0.1,1.2-0.2,1.3
						c0,0.1-0.9,0.7-1,0.7c0,0-0.8,0.3-1.1,0.1c-0.3-0.3-0.1-0.8,0-1c0.1-0.3,0.3-0.6,0.1-0.8c-0.1,0-0.1-0.1-0.1-0.1
						c-0.1-0.2,0.1-0.3-0.1-0.5c-0.2-0.1-0.2-0.1-0.2-0.2c0-0.1,0-0.2,0-0.2c0-0.4,0.3-0.4,0.4-0.4c0.4,0,0.4,0,0.4-0.1
						c0.2-0.1,0.1-0.4,0.3-0.5c0,0,0.6-0.2,0.8-0.2C200,129.6,200.2,129.7,200.1,130.1"/>
				</g>
			</g>
			<path class="st0" d="M102.1,83.5l10.1,13.9c-1.8,2.7-3.4,5.5-5,8.5L89.9,103L86,114.5l13.9,10.1c-0.9,3.1-1.6,6.3-2.1,9.6
				l-17.3,2.7l-0.2,12.1l16.3,5.3c0.2,3.3,0.5,6.5,1,9.7L82,171.9l3.6,11.6h17.1c1.2,3.2,2.6,6.3,4.1,9.3l-31.5,37.8l40.5-23.3
				l18.5-12.1c-9.9-12.5-15.8-28.3-15.8-45.5c0-18.9,7.1-36.1,18.8-49.1l-12.9-18.4l-15.1-8.4L102.1,83.5z"/>
			<path class="st0" d="M125.7,239.6l13.9-10.1c2.7,1.8,5.5,3.4,8.5,5l-2.8,17.3l11.5,3.9l10.1-13.9c3.1,0.9,6.3,1.6,9.6,2.1
				l2.7,17.3l12.1,0.2l5.3-16.3c3.3-0.2,6.5-0.5,9.7-1l7.9,15.6l11.6-3.6V239c3.2-1.2,6.3-2.6,9.3-4.1l44.9,43.9l-30.5-52.9
				l-12.1-18.5c-12.5,9.9-28.3,15.8-45.5,15.8c-18.9,0-36.1-7.1-49.1-18.8l-18.4,12.9l-8.4,15.1L125.7,239.6z"/>
			<path class="st3" d="M281.9,215.9L271.8,202c1.8-2.7,3.4-5.5,5-8.5l17.3,2.8l3.9-11.5l-13.9-10.1c0.9-3.1,1.6-6.3,2.1-9.6
				l17.3-2.7l0.2-12.1l-16.3-5.3c-0.2-3.3-0.5-6.5-1-9.7l15.6-7.9l-3.6-11.6h-17.1c-1.2-3.2-2.6-6.3-4.1-9.3l31.5-37.8l-40.5,23.3
				l-18.5,12.1c9.9,12.5,15.8,28.3,15.8,45.5c0,18.9-7.1,36.1-18.8,49.1l12.9,18.4l15.1,8.4L281.9,215.9z"/>
			<path class="st3" d="M258.2,59.8l-13.9,10.1c-2.7-1.8-5.5-3.4-8.5-5l2.8-17.3l-11.5-3.9l-10.1,13.9c-3.1-0.9-6.3-1.6-9.6-2.1
				l-2.7-17.3L192.7,38l-5.3,16.3c-3.3,0.2-6.5,0.5-9.7,1l-7.9-15.6l-11.6,3.6v17.1c-3.2,1.2-6.3,2.6-9.3,4.1L111.1,33l23.3,40.5
				l12.1,18.5c12.5-9.9,28.3-15.8,45.5-15.8c18.9,0,36.1,7.1,49.1,18.8l18.4-12.9l8.4-15.1L258.2,59.8z"/>
		</g>
	</g>
</g>
</svg>
