<?xml version="1.0" encoding="UTF-8" standalone="no"?>
<svg
   xmlns:dc="http://purl.org/dc/elements/1.1/"
   xmlns:cc="http://creativecommons.org/ns#"
   xmlns:rdf="http://www.w3.org/1999/02/22-rdf-syntax-ns#"
   xmlns:svg="http://www.w3.org/2000/svg"
   xmlns="http://www.w3.org/2000/svg"
   viewBox="0 0 339.16 117.18667"
   height="117.18667"
   width="339.16"
   xml:space="preserve"
   id="svg2"
   version="1.1"><metadata
     id="metadata8"><rdf:RDF><cc:Work
         rdf:about=""><dc:format>image/svg+xml</dc:format><dc:type
           rdf:resource="http://purl.org/dc/dcmitype/StillImage" /></cc:Work></rdf:RDF></metadata><defs
     id="defs6" /><g
     transform="matrix(1.3333333,0,0,-1.3333333,0,117.18667)"
     id="g10"><g
       transform="scale(0.1)"
       id="g12"><path
         id="path14"
         style="fill:#231f20;fill-opacity:1;fill-rule:nonzero;stroke:none"
         d="M 0.324219,775.555 270.566,574.012 V 878.23 Z" /><path
         id="path16"
         style="fill:#231f20;fill-opacity:1;fill-rule:nonzero;stroke:none"
         d="M 0.324219,474.773 142.273,598.254 0.324219,704.305 Z" /><path
         id="path18"
         style="fill:#897d73;fill-opacity:1;fill-rule:nonzero;stroke:none"
         d="M 332.441,878.855 V 496.152 l 318.672,276.551 z" /><path
         id="path20"
         style="fill:#897d73;fill-opacity:1;fill-rule:nonzero;stroke:none"
         d="M 447.637,519.988 332.441,420.234 V 240.281 L 678.555,345.176 447.637,519.988" /><path
         id="path22"
         style="fill:#231f20;fill-opacity:1;fill-rule:nonzero;stroke:none"
         d="M 0,398.66 270.566,239.609 V 502.313 L 189.297,562.898 0,398.66" /><path
         id="path24"
         style="fill:#897d73;fill-opacity:1;fill-rule:nonzero;stroke:none"
         d="m 491.797,556.824 181.894,-135.039 1.211,294.297 z" /><path
         id="path26"
         style="fill:#231f20;fill-opacity:1;fill-rule:nonzero;stroke:none"
         d="M 873.953,557.84 712.813,7.66406 h 51.425 L 800.293,135.801 H 974.492 L 1010.93,7.66406 h 51.03 L 900.059,557.84 Z m 11.899,-121.231 1.531,20.344 1.535,-20.344 72.52,-253.601 H 813.73 l 72.122,253.601" /><path
         id="path28"
         style="fill:#231f20;fill-opacity:1;fill-rule:nonzero;stroke:none"
         d="m 1379.07,107.422 c 0,-15.8517 -3.21,-30.3829 -9.6,-43.5431 -6.39,-13.1875 -15.09,-24.4961 -26.08,-33.957 -11.01,-9.461 -23.74,-16.8281 -38.18,-22.07034 -14.46,-5.22265 -29.62,-7.8437475 -45.46,-7.8437475 h -31.47 c -15.86,0 -31.01,2.9999975 -45.47,9.0234375 -14.47,5.97655 -27.11,14.23825 -37.98,24.74605 -10.87,10.4688 -19.59,22.7344 -26.07,36.8165 -6.53,14.0625 -9.81,29.0234 -9.81,44.8832 v 15.722 l 47.2,7.688 v -26.106 c 0,-9.453 1.98,-18.3474 5.95,-26.6482 3.95,-8.332 9.25,-15.539 15.93,-21.6914 6.64,-6.1328 14.29,-11.0039 23,-14.5508 8.7,-3.6133 17.78,-5.3789 27.25,-5.3789 h 31.47 c 9.46,0 18.51,1.4063 27.22,4.2188 8.7,2.8125 16.43,6.8359 23.23,12.0898 6.77,5.2422 12.12,11.5703 16.11,18.9844 3.96,7.4023 5.96,15.8594 5.96,25.3123 0,14.063 -3.09,25.574 -9.22,34.52 -6.14,8.965 -14.26,16.449 -24.37,22.453 -10.11,6.004 -21.63,11.004 -34.54,14.969 -12.91,3.964 -26.13,7.91 -39.71,11.894 -13.55,3.965 -26.79,8.496 -39.7,13.613 -12.91,5.118 -24.43,11.836 -34.52,20.149 -10.12,8.308 -18.26,18.719 -24.37,31.277 -6.14,12.512 -9.22,28.125 -9.22,46.809 0,15.847 3.08,30.359 9.22,43.543 6.11,13.164 14.43,24.484 24.92,33.937 10.49,9.481 22.72,16.824 36.66,22.059 13.93,5.254 28.85,7.871 44.69,7.871 h 27.64 c 15.84,0 30.8,-2.996 44.88,-9.012 14.08,-6.008 26.33,-14.25 36.82,-24.746 10.49,-10.48 18.74,-22.765 24.74,-36.824 6.02,-14.086 9.02,-29.047 9.02,-44.906 v -1.524 l -47.16,-7.664 v 11.883 c 0,9.473 -1.8,18.352 -5.39,26.66 -3.58,8.32 -8.43,15.551 -14.57,21.68 -6.16,6.144 -13.39,11.008 -21.66,14.57 -8.34,3.594 -17.22,5.383 -26.68,5.383 h -27.64 c -9.45,0 -18.36,-1.406 -26.68,-4.219 -8.29,-2.812 -15.53,-6.836 -21.66,-12.101 -6.12,-5.235 -11,-11.563 -14.57,-18.985 -3.59,-7.429 -5.39,-15.847 -5.39,-25.312 0,-13.563 3.07,-24.617 9.22,-33.184 6.15,-8.574 14.26,-15.801 24.36,-21.687 10.11,-5.871 21.59,-10.793 34.52,-14.766 12.91,-3.977 26.08,-8.059 39.52,-12.277 13.44,-4.219 26.61,-9.024 39.53,-14.395 12.92,-5.351 24.43,-12.265 34.54,-20.699 10.09,-8.457 18.21,-19.008 24.36,-31.664 6.12,-12.645 9.21,-28.336 9.21,-47" /><path
         id="path30"
         style="fill:#231f20;fill-opacity:1;fill-rule:nonzero;stroke:none"
         d="m 1810.43,494.93 h 54.85 v 62.91 h -54.85 z m 3.83,-487.27375 h 47.19 V 400.547 h -47.19 V 7.65625" /><path
         id="path32"
         style="fill:#231f20;fill-opacity:1;fill-rule:nonzero;stroke:none"
         d="m 2163.22,295.418 c 0,9.453 -1.79,18.352 -5.37,26.66 -3.58,8.32 -8.44,15.551 -14.57,21.68 -6.13,6.133 -13.38,11.008 -21.69,14.57 -8.29,3.594 -17.2,5.383 -26.67,5.383 h -31.46 c -9.47,0 -18.33,-1.789 -26.64,-5.383 -8.33,-3.562 -15.55,-8.437 -21.7,-14.57 -6.13,-6.129 -11,-13.36 -14.57,-21.68 -3.6,-8.308 -5.36,-17.207 -5.36,-26.66 V 112.781 c 0,-9.453 1.76,-18.3474 5.36,-26.6482 3.57,-8.332 8.44,-15.5469 14.57,-21.6914 6.15,-6.1328 13.37,-11.0039 21.7,-14.5508 8.31,-3.6133 17.17,-5.3789 26.64,-5.3789 h 31.46 c 9.47,0 18.38,1.7656 26.67,5.3789 8.31,3.5469 15.56,8.418 21.69,14.5508 6.13,6.1445 10.99,13.3594 14.57,21.6914 3.58,8.3008 5.37,17.1952 5.37,26.6482 z M 2194.69,7.66406 2168.59,47.5664 C 2157.85,32.9766 2144.42,21.4141 2128.3,12.8516 2112.21,4.28516 2094.55,0 2075.35,0 h -11.89 c -15.84,0 -30.81,3.00781 -44.88,9.01172 -14.09,5.99608 -26.35,14.25778 -36.82,24.75778 -10.49,10.4766 -18.75,22.7422 -24.75,36.8164 -6.01,14.0704 -9.02,29.0313 -9.02,44.8911 v 177.246 c 0,15.859 3.01,30.82 9.02,44.906 6,14.059 14.26,26.344 24.75,36.824 10.47,10.496 22.73,18.738 36.82,24.746 14.07,6.016 29.04,9.012 44.88,9.012 h 11.89 c 17.65,0 34.04,-3.574 49.11,-10.731 15.09,-7.179 28.04,-17.14 38.76,-29.933 V 557.84 h 47.19 V 7.66406 h -15.72" /><path
         id="path34"
         style="fill:#231f20;fill-opacity:1;fill-rule:nonzero;stroke:none"
         d="m 2496.46,197.969 h -99.76 c -9.45,0 -18.32,-1.797 -26.66,-5.364 -8.32,-3.593 -15.54,-8.515 -21.68,-14.785 -6.13,-6.269 -11.01,-13.554 -14.57,-21.863 -3.59,-8.312 -5.37,-17.199 -5.37,-26.672 v -16.504 c 0,-9.453 1.78,-18.3474 5.37,-26.6482 3.56,-8.332 8.44,-15.539 14.57,-21.6914 6.14,-6.1328 13.36,-11.0039 21.68,-14.5508 8.34,-3.6133 17.21,-5.3789 26.66,-5.3789 h 31.46 c 9.49,0 18.36,1.7656 26.68,5.3789 8.3,3.5469 15.53,8.418 21.66,14.5508 6.16,6.1524 11.02,13.3594 14.57,21.6914 3.6,8.3008 5.39,17.1952 5.39,26.6482 z M 2527.93,7.66406 2501.84,46.7969 C 2491.07,32.7344 2477.66,21.4141 2461.55,12.8516 2445.43,4.28516 2427.78,0 2408.59,0 h -11.89 c -15.86,0 -30.8,3.00781 -44.86,9.01172 -14.09,5.99608 -26.36,14.25778 -36.84,24.75778 -10.49,10.4766 -18.75,22.7422 -24.75,36.8243 -6.01,14.0625 -9.02,29.0234 -9.02,44.8832 v 3.847 c 0,15.852 3.01,30.805 9.02,44.875 6,14.055 14.26,26.348 24.75,36.844 10.48,10.469 22.75,18.73 36.84,24.746 14.06,6.016 29,9.024 44.86,9.024 h 99.76 v 60.605 c 0,9.453 -1.79,18.352 -5.39,26.66 -3.55,8.32 -8.41,15.551 -14.57,21.68 -6.13,6.133 -13.36,11.008 -21.66,14.57 -8.32,3.594 -17.19,5.383 -26.68,5.383 h -27.6 c -9.49,0 -18.35,-1.789 -26.67,-5.383 -8.31,-3.562 -15.55,-8.437 -21.69,-14.57 -6.14,-6.129 -10.99,-13.36 -14.57,-21.68 -3.59,-8.308 -5.36,-17.207 -5.36,-26.66 v -14.199 l -47.2,7.676 v 3.828 c 0,15.859 3,30.82 9.01,44.906 6.02,14.059 14.26,26.344 24.75,36.824 10.49,10.496 22.77,18.738 36.83,24.746 14.07,6.016 29.03,9.012 44.9,9.012 h 27.6 c 15.86,0 30.82,-2.996 44.9,-9.012 14.07,-6.008 26.33,-14.25 36.83,-24.746 10.47,-10.48 18.74,-22.765 24.76,-36.824 5.98,-14.086 9,-29.047 9,-44.906 V 7.66406 h -15.72" /><path
         id="path36"
         style="fill:#231f20;fill-opacity:1;fill-rule:nonzero;stroke:none"
         d="m 1712.03,7.66406 h 61.41 L 1595.4,203.641 1697.79,326.777 v 73.778 L 1499.94,159.16 v 398.68 h -47.19 V 7.65625 h 47.19 V 88.8359 l 67.64,81.3401 144.45,-162.51194" /></g></g></svg>