<?xml version="1.0" encoding="UTF-8" standalone="no"?>
<!-- Created with Inkscape (http://www.inkscape.org/) -->

<svg
   xmlns:dc="http://purl.org/dc/elements/1.1/"
   xmlns:cc="http://creativecommons.org/ns#"
   xmlns:rdf="http://www.w3.org/1999/02/22-rdf-syntax-ns#"
   xmlns:svg="http://www.w3.org/2000/svg"
   xmlns="http://www.w3.org/2000/svg"
   xmlns:sodipodi="http://sodipodi.sourceforge.net/DTD/sodipodi-0.dtd"
   xmlns:inkscape="http://www.inkscape.org/namespaces/inkscape"
   id="svg2"
   version="1.1"
   inkscape:version="0.91 r13725"
   width="658"
   height="120"
   xml:space="preserve"
   sodipodi:docname="BERTEIG-black.svg"
   inkscape:export-filename="/Users/mishkinberteig/Documents/bci_growth/Branding/2015 Re-Branding/Berteig/201503 Logo Designs/smash_14/BERTEIG-black.png"
   inkscape:export-xdpi="600"
   inkscape:export-ydpi="600"><metadata
     id="metadata8"><rdf:RDF><cc:Work
         rdf:about=""><dc:format>image/svg+xml</dc:format><dc:type
           rdf:resource="http://purl.org/dc/dcmitype/StillImage" /><dc:title></dc:title></cc:Work></rdf:RDF></metadata><defs
     id="defs6"><clipPath
       clipPathUnits="userSpaceOnUse"
       id="clipPath16"><path
         d="M 0,800 1200,800 1200,0 0,0 0,800 z"
         id="path18"
         inkscape:connector-curvature="0" /></clipPath></defs><sodipodi:namedview
     pagecolor="#ffffff"
     bordercolor="#666666"
     borderopacity="1"
     objecttolerance="10"
     gridtolerance="10"
     guidetolerance="10"
     inkscape:pageopacity="0"
     inkscape:pageshadow="2"
     inkscape:window-width="2880"
     inkscape:window-height="1752"
     id="namedview4"
     showgrid="false"
     inkscape:zoom="3.7264438"
     inkscape:cx="324.30383"
     inkscape:cy="60"
     inkscape:window-x="0"
     inkscape:window-y="0"
     inkscape:window-maximized="1"
     inkscape:current-layer="g10" /><g
     id="g10"
     inkscape:groupmode="layer"
     inkscape:label="11"
     transform="matrix(1.25,0,0,-1.25,0,120)"><g
       id="g20"
       transform="translate(45.5265,46.609916)"
       style="fill:#000000;fill-opacity:1;stroke:none"><path
         d="m 0,0 c -2.353,1.681 -4.928,2.465 -9.295,2.688 -2.018,0.113 -3.138,0.113 -4.818,0.114 C -14.56,2.8 -14.784,2.577 -14.784,2.017 l 0,-26.544 c 0.001,-7.391 0.336,-9.296 3.92,-10.753 3.024,-1.23 5.599,-1.344 8.176,-1.344 5.04,0 13.551,2.689 13.551,14.336 C 10.864,-15.343 8.512,-5.937 0,0 m -14.784,8.961 c 0.001,-0.897 0.336,-1.119 0.784,-1.232 1.007,-0.224 2.687,-0.336 5.264,-0.336 3.696,0 6.16,0.448 8.064,2.128 2.913,2.352 4.592,6.384 4.592,11.873 0,7.502 -4.368,17.359 -14,17.359 -1.567,-10e-4 -2.576,0 -3.696,-0.225 -0.785,-0.223 -1.008,-0.672 -1.008,-1.903 l 0,-27.664 z m -13.439,1.903 c -0.001,17.025 0,20.161 -0.225,23.744 -0.224,3.809 -1.119,5.601 -4.815,6.385 -0.897,0.224 -2.801,0.336 -4.369,0.336 -1.232,0 -1.903,0.224 -1.904,1.008 0,0.784 0.784,1.008 2.464,1.008 5.936,0 12.992,-0.336 15.233,-0.336 5.487,0 9.855,0.336 13.664,0.336 20.271,0 23.855,-10.865 23.855,-16.8 0,-9.184 -5.263,-14.672 -11.424,-19.6 9.183,-3.135 20.384,-11.089 20.384,-24.191 0,-11.985 -9.296,-24.417 -29.904,-24.417 -1.344,0 -4.592,0.223 -7.84,0.336 -3.359,0.225 -6.72,0.336 -8.4,0.337 -1.231,-10e-4 -3.696,-10e-4 -6.384,-0.113 -2.576,0 -5.488,-0.223 -7.728,-0.223 -1.456,-10e-4 -2.239,0.335 -2.24,1.118 0,0.561 0.448,0.896 1.792,0.897 1.681,0 3.024,0.224 4.032,0.447 2.24,0.449 2.8,2.912 3.248,6.16 0.561,4.706 0.561,13.554 0.56,23.856 l 0.001,19.712 z"
         style="fill:#000000;fill-opacity:1;fill-rule:nonzero;stroke:none"
         id="path22"
         inkscape:connector-curvature="0" /></g><g
       id="g28"
       transform="translate(98.070803,49.745716)"
       style="fill:#000000;fill-opacity:1;stroke:none"><path
         d="m 0,0 c 0,14.449 -0.001,17.137 -0.113,20.16 -0.223,3.249 -1.119,4.257 -4.255,5.152 -0.784,0.225 -2.465,0.337 -3.92,0.336 -1.008,0.001 -1.68,0.337 -1.679,1.008 0,0.673 0.783,0.897 2.238,0.897 5.153,0 11.424,-0.224 14.226,-0.225 3.135,0.001 24.975,-0.111 26.878,0 1.792,0.113 3.361,0.448 4.144,0.561 0.562,0.112 1.12,0.448 1.569,0.448 0.559,0 0.671,-0.447 0.671,-0.896 0,-0.672 -0.56,-1.793 -0.784,-6.161 -0.111,-1.008 -0.336,-5.151 -0.559,-6.271 -0.113,-0.448 -0.335,-1.568 -1.12,-1.568 -0.672,0 -0.784,0.448 -0.785,1.232 0,0.672 -0.112,2.351 -0.671,3.472 -0.785,1.68 -1.568,3.024 -6.497,3.472 -1.679,0.224 -13.44,0.448 -15.455,0.447 -0.448,0.001 -0.673,-0.335 -0.672,-0.895 l 0,-23.521 c 0,-0.558 0.112,-1.007 0.672,-1.007 2.24,0 15.008,0 17.247,0.224 2.352,0.224 3.697,0.56 4.704,1.456 0.785,0.671 1.121,1.233 1.568,1.232 0.448,0.001 0.784,-0.448 0.784,-1.007 0,-0.562 -0.224,-2.128 -0.784,-6.945 -0.223,-1.904 -0.448,-5.712 -0.448,-6.383 0,-0.784 -0.112,-2.129 -1.008,-2.129 -0.672,0 -0.896,0.336 -0.896,0.784 -0.112,1.009 -0.112,2.24 -0.336,3.472 -0.56,1.904 -1.792,3.359 -5.488,3.696 -1.792,0.225 -12.993,0.447 -15.456,0.448 -0.447,0 -0.559,-0.447 -0.56,-1.009 l 0,-7.615 c 0,-3.247 -0.112,-11.312 0,-14.113 0.224,-6.496 3.248,-7.951 13.328,-7.951 2.576,0 6.721,0.111 9.296,1.232 2.465,1.119 3.585,3.136 4.256,7.055 0.224,1.01 0.448,1.457 1.12,1.457 0.785,0 0.896,-1.232 0.896,-2.24 0,-2.129 -0.784,-8.623 -1.344,-10.528 -0.671,-2.465 -1.568,-2.465 -5.264,-2.465 -7.392,0 -13.328,0.112 -18.144,0.336 -4.816,0.114 -8.511,0.225 -11.423,0.226 -1.121,0 -3.248,-0.112 -5.6,-0.112 -2.353,-0.113 -4.816,-0.225 -6.833,-0.225 -1.232,0 -1.904,0.336 -1.904,1.008 0,0.448 0.336,1.008 1.568,1.008 1.457,0 2.577,0.111 3.473,0.336 2.016,0.447 2.576,2.24 2.912,5.042 0.447,4.03 0.448,11.534 0.447,20.27 L 0,0 z"
         style="fill:#000000;fill-opacity:1;fill-rule:nonzero;stroke:none"
         id="path30"
         inkscape:connector-curvature="0" /></g><g
       id="g36"
       transform="translate(180.55,42.355016)"
       style="fill:#000000;fill-opacity:1;stroke:none"><path
         d="m 0,0 c 0,-1.008 0.224,-1.345 0.896,-1.68 2.127,-0.672 5.04,-0.896 7.503,-0.896 3.921,0 5.265,0.336 6.945,1.568 3.025,2.128 6.384,6.272 6.384,14.112 C 21.729,26.543 12.545,30.016 6.72,30.017 4.256,30.017 1.904,29.903 0.896,29.68 0.224,29.455 0,29.119 0,28.336 L 0,0 z m -12.543,7.392 c 0,14.447 -0.001,17.135 -0.113,20.16 -0.224,3.248 -1.121,4.256 -4.256,5.151 -0.783,0.224 -2.463,0.336 -3.92,0.337 -1.007,-10e-4 -1.679,0.336 -1.679,1.008 -0.001,0.672 0.783,0.895 2.239,0.895 5.153,0 11.424,-0.224 13.441,-0.224 3.358,0 12.319,0.224 15.343,0.224 6.273,0 13.441,-0.56 18.704,-4.032 2.8,-1.903 6.945,-6.72 6.944,-13.102 0.001,-7.058 -4.032,-13.33 -13.664,-21.058 8.736,-10.752 15.68,-19.376 21.616,-25.312 5.488,-5.488 8.96,-5.935 10.528,-6.271 1.007,-0.225 1.568,-0.225 2.353,-0.224 0.782,-0.001 1.231,-0.561 1.232,-1.008 -0.001,-0.784 -0.674,-1.008 -1.905,-1.007 l -9.408,-0.001 c -5.488,0 -8.176,0.56 -10.752,1.904 -4.255,2.127 -7.952,6.607 -13.44,14.001 -3.92,5.15 -8.064,11.534 -9.295,12.991 -0.562,0.56 -1.121,0.672 -1.793,0.671 L 0.784,-7.28 C 0.336,-7.279 0,-7.505 0,-8.063 l 0,-1.345 c 0,-8.847 0.112,-16.24 0.56,-20.272 0.336,-2.8 0.785,-4.593 3.809,-5.041 1.455,-0.223 3.583,-0.336 4.815,-0.335 0.784,-0.001 1.233,-0.561 1.233,-1.008 0,-0.672 -0.784,-1.008 -2.017,-1.008 -5.712,0 -13.888,0.336 -15.344,0.337 -1.905,-10e-4 -8.176,-0.337 -12.096,-0.337 -1.233,0 -1.903,0.336 -1.904,1.008 0,0.447 0.336,1.007 1.569,1.007 1.455,0 2.575,0.113 3.471,0.336 2.016,0.448 2.576,2.241 2.911,5.041 0.449,4.032 0.45,11.535 0.449,20.272 l 0.001,16.8 z"
         style="fill:#000000;fill-opacity:1;fill-rule:nonzero;stroke:none"
         id="path38"
         inkscape:connector-curvature="0" /></g><g
       id="g44"
       transform="translate(261.3495,71.474211)"
       style="fill:#000000;fill-opacity:1;stroke:none"><path
         d="m 0,0 -14.672,-0.336 c -5.712,-0.111 -8.064,-0.783 -9.519,-2.912 -1.009,-1.344 -1.457,-2.575 -1.681,-3.247 -0.223,-0.784 -0.447,-1.233 -1.12,-1.233 -0.671,10e-4 -0.896,0.56 -0.896,1.568 0,1.568 1.905,10.753 2.128,11.536 0.224,1.232 0.56,1.792 1.12,1.792 0.784,0 1.791,-0.783 4.256,-1.12 2.912,-0.335 6.608,-0.447 9.856,-0.447 l 39.984,0 c 3.136,0 5.265,0.223 6.72,0.448 1.568,0.224 2.351,0.447 2.687,0.447 0.674,0 0.785,-0.56 0.785,-2.016 0,-2.015 -0.224,-9.072 -0.224,-11.536 -0.111,-1.007 -0.336,-1.567 -0.896,-1.567 -0.784,0 -1.007,0.447 -1.12,1.903 l -0.113,1.008 c -0.223,2.464 -2.799,5.376 -11.647,5.488 L 13.217,0 l 0,-38.527 c 0,-8.737 0.111,-16.24 0.56,-20.386 0.335,-2.687 0.895,-4.48 3.807,-4.927 1.344,-0.224 3.584,-0.335 5.04,-0.336 1.12,0 1.568,-0.56 1.568,-1.008 0,-0.671 -0.785,-1.007 -1.905,-1.007 -6.496,0 -13.101,0.336 -15.902,0.336 -2.241,0 -8.961,-0.336 -12.881,-0.336 -1.231,0 -1.903,0.336 -1.904,1.007 0,0.448 0.336,1.008 1.568,1.008 1.455,0 2.688,0.112 3.472,0.337 2.017,0.446 2.577,2.239 2.913,5.04 C -0.001,-54.768 0,-47.264 0,-38.527 L 0,0 z"
         style="fill:#000000;fill-opacity:1;fill-rule:nonzero;stroke:none"
         id="path46"
         inkscape:connector-curvature="0" /></g><g
       id="g52"
       transform="translate(326.8057,49.746616)"
       style="fill:#000000;fill-opacity:1;stroke:none"><path
         d="m 0,0 c 0,14.448 -0.001,17.136 -0.112,20.16 -0.224,3.247 -1.12,4.256 -4.256,5.152 -0.784,0.224 -2.464,0.336 -3.921,0.336 -1.007,-0.001 -1.679,0.336 -1.68,1.008 0,0.672 0.785,0.896 2.24,0.896 5.153,0 11.425,-0.225 14.225,-0.224 3.135,-10e-4 24.975,-0.112 26.88,0 1.792,0.112 3.36,0.447 4.144,0.56 0.56,0.112 1.119,0.448 1.568,0.448 0.559,0 0.672,-0.448 0.671,-0.896 C 39.76,26.768 39.2,25.648 38.975,21.279 38.864,20.272 38.639,16.129 38.416,15.008 38.305,14.56 38.08,13.44 37.295,13.44 c -0.671,0 -0.783,0.448 -0.783,1.232 0,0.672 -0.114,2.352 -0.672,3.472 -0.785,1.68 -1.569,3.024 -6.497,3.472 -1.679,0.224 -13.439,0.447 -15.456,0.447 -0.447,0 -0.671,-0.335 -0.671,-0.895 l 0,-23.52 c 0.001,-0.56 0.112,-1.008 0.671,-1.008 2.241,0 15.009,0 17.248,0.223 2.352,0.225 3.697,0.561 4.705,1.457 0.784,0.672 1.119,1.232 1.568,1.232 0.447,0 0.783,-0.448 0.783,-1.008 0,-0.56 -0.223,-2.127 -0.783,-6.943 -0.224,-1.905 -0.449,-5.713 -0.449,-6.385 10e-4,-0.784 -0.111,-2.127 -1.008,-2.128 -0.672,0 -0.896,0.336 -0.895,0.784 -0.112,1.008 -0.112,2.239 -0.336,3.472 -0.56,1.904 -1.792,3.36 -5.49,3.696 -1.791,0.224 -12.99,0.447 -15.454,0.447 -0.448,0 -0.56,-0.447 -0.56,-1.008 l -10e-4,-7.615 c 0,-3.247 -0.111,-11.312 0,-14.112 0.226,-6.497 3.248,-7.952 13.328,-7.952 2.576,0 6.721,0.111 9.297,1.232 2.465,1.119 3.584,3.136 4.256,7.055 0.223,1.01 0.449,1.457 1.119,1.457 0.785,0 0.898,-1.232 0.897,-2.24 -0.001,-2.129 -0.784,-8.623 -1.344,-10.528 -0.672,-2.464 -1.569,-2.464 -5.264,-2.464 -7.393,0 -13.328,0.111 -18.144,0.335 -4.817,0.114 -8.512,0.225 -11.424,0.225 -1.12,0 -3.248,-0.111 -5.6,-0.111 -2.352,-0.114 -4.816,-0.225 -6.832,-0.225 -1.232,0 -1.904,0.337 -1.904,1.008 0,0.447 0.337,1.008 1.568,1.008 1.455,0 2.576,0.111 3.473,0.336 2.015,0.447 2.574,2.24 2.911,5.041 C 0,-33.04 0,-25.536 0,-16.8 L 0,0 z"
         style="fill:#000000;fill-opacity:1;fill-rule:nonzero;stroke:none"
         id="path54"
         inkscape:connector-curvature="0" /></g><g
       id="g60"
       transform="translate(399.9405,49.746616)"
       style="fill:#000000;fill-opacity:1;stroke:none"><path
         d="m 0,0 c 0,14.448 0.001,17.136 -0.112,20.159 -0.224,3.249 -1.23,4.369 -3.359,5.041 -1.121,0.336 -2.353,0.448 -3.584,0.448 -1.008,0 -1.568,0.224 -1.568,1.12 0,0.56 0.785,0.784 2.352,0.784 3.696,0 10.416,-0.225 13.216,-0.225 2.465,0 8.848,0.225 12.656,0.225 1.231,0 2.016,-0.225 2.016,-0.784 0,-0.897 -0.56,-1.12 -1.568,-1.12 C 19.041,25.647 18.256,25.535 17.137,25.312 14.449,24.864 13.664,23.521 13.44,20.159 13.217,17.136 13.217,14.447 13.217,0 l 0,-16.8 c 0,-9.183 0,-16.801 0.447,-20.832 0.336,-2.576 1.009,-4.033 3.92,-4.48 1.344,-0.225 3.584,-0.335 5.041,-0.336 1.12,10e-4 1.567,-0.561 1.568,-1.008 -0.002,-0.672 -0.785,-1.008 -1.904,-1.008 -6.496,0 -13.217,0.336 -15.904,0.337 -2.24,-10e-4 -8.961,-0.337 -12.88,-0.337 -1.232,0 -1.903,0.336 -1.904,1.008 0,0.447 0.336,1.008 1.569,1.008 1.455,10e-4 2.574,0.111 3.471,0.337 2.015,0.446 2.576,1.792 2.912,4.59 C 0,-33.601 0,-25.983 0,-16.8 L 0,0 z"
         style="fill:#000000;fill-opacity:1;fill-rule:nonzero;stroke:none"
         id="path62"
         inkscape:connector-curvature="0" /></g><g
       id="g68"
       transform="translate(510.6131,11.665616)"
       style="fill:#000000;fill-opacity:1;stroke:none"><path
         d="m 0,0 c 0,-2.574 0,-2.688 -1.232,-3.359 -6.608,-3.248 -16.352,-4.256 -24.08,-4.255 -24.192,-0.001 -45.584,10.975 -45.583,37.295 -0.001,15.232 8.174,25.872 17.247,31.136 9.408,5.488 18.255,6.161 26.544,6.16 6.833,0 15.456,-1.12 17.471,-1.568 2.018,-0.336 5.488,-0.895 7.842,-1.008 1.119,-0.112 1.344,-0.448 1.342,-1.12 0,-1.121 -0.67,-3.695 -0.672,-15.679 0.002,-1.456 -0.559,-2.129 -1.343,-2.129 -0.671,0 -0.895,0.448 -1.007,1.232 -0.226,2.128 -0.786,5.152 -3.361,7.84 -2.912,3.024 -10.304,7.28 -21.393,7.28 -5.375,0 -12.207,-0.112 -19.039,-5.6 -5.488,-4.48 -9.072,-11.536 -9.072,-23.184 -0.001,-20.496 13.216,-35.393 34.274,-35.393 2.575,10e-4 4.589,0 6.941,1.009 1.457,0.672 1.904,1.679 1.904,3.361 l 0,8.734 c 0.001,4.706 0,8.29 -0.111,11.201 -0.111,3.248 -1.119,4.256 -4.257,5.152 -0.782,0.224 -2.464,0.336 -3.807,0.335 -0.897,10e-4 -1.569,0.45 -1.568,1.009 -10e-4,0.784 0.784,0.896 2.128,0.896 5.152,0.001 12.208,-0.223 15.119,-0.224 3.137,0 8.289,0.224 11.537,0.225 1.342,0 2.016,-0.113 2.016,-0.897 0,-0.56 -0.56,-1.008 -1.232,-1.008 -0.784,0 -1.569,-0.112 -2.688,-0.336 C 1.232,26.657 0.225,25.313 0.111,21.953 0,19.041 0,15.232 0,10.529 L 0,0 z"
         style="fill:#000000;fill-opacity:1;fill-rule:nonzero;stroke:none"
         id="path70"
         inkscape:connector-curvature="0" /></g></g></svg>