<?xml version="1.0" encoding="UTF-8"?>
<!DOCTYPE svg PUBLIC "-//W3C//DTD SVG 1.1//EN" "http://www.w3.org/Graphics/SVG/1.1/DTD/svg11.dtd">
<!-- Creator: CorelDRAW X6 -->
<svg xmlns="http://www.w3.org/2000/svg" xml:space="preserve" width="3.48611in" height="1.31944in" version="1.1" style="shape-rendering:geometricPrecision; text-rendering:geometricPrecision; image-rendering:optimizeQuality; fill-rule:evenodd; clip-rule:evenodd"
viewBox="0 0 3486 1319"
 xmlns:xlink="http://www.w3.org/1999/xlink">
 <defs>
  <style type="text/css">
   <![CDATA[
    .fil3 {fill:#064264;fill-rule:nonzero}
    .fil6 {fill:#93C946;fill-rule:nonzero}
    .fil5 {fill:url(#id3)}
    .fil4 {fill:url(#id4)}
    .fil2 {fill:url(#id5)}
    .fil8 {fill:url(#id6)}
    .fil7 {fill:url(#id7)}
    .fil0 {fill:url(#id8)}
    .fil1 {fill:url(#id9)}
   ]]>
  </style>
   <clipPath id="id0" style="clip-rule:nonzero">
    <path d="M3101 1319c-7,0 -14,0 -20,0 -49,-1 -94,-6 -135,-14 25,3 50,5 77,5 7,0 14,0 21,0 186,0 341,-58 352,-134 0,-3 1,-6 0,-10 -3,-61 -109,-113 -251,-131 166,9 295,63 308,130 1,6 2,13 1,20 -10,76 -166,135 -352,135l0 0z"/>
   </clipPath>
   <clipPath id="id1" style="clip-rule:nonzero">
    <path d="M3059 1298c-12,0 -24,0 -35,-1 -164,-9 -276,-71 -268,-137 0,0 0,0 0,0 0,0 0,0 0,0 1,-5 2,-10 4,-15 22,-54 135,-91 263,-91 15,0 30,1 45,2 59,4 110,17 145,37 29,17 44,37 41,58 0,4 -1,7 -3,11 -8,20 -36,38 -77,50 -33,9 -71,14 -110,14 -10,0 -21,0 -31,-1 -75,-5 -129,-31 -134,-61 -1,-5 0,-10 2,-15 6,-15 26,-28 56,-37 18,-5 36,-8 54,-8 12,0 25,1 38,3 52,7 75,21 73,35 -1,3 -3,7 -6,10 -17,-10 -53,-12 -66,-13 -4,0 -8,0 -12,0 -9,0 -17,1 -23,2 -9,3 -17,9 -19,14 0,1 -1,2 -1,2 -3,13 20,26 53,28 5,0 10,0 15,0 19,0 37,-2 53,-7 20,-6 33,-15 37,-24 1,-2 1,-4 2,-6 1,-12 -7,-23 -23,-32 -19,-11 -49,-19 -82,-21 -10,-1 -19,-1 -29,-1 -82,0 -154,24 -168,58 -3,6 -4,12 -3,18 4,42 83,75 187,88 20,2 40,4 60,4 118,0 238,-40 262,-96l1 -2c-9,75 -141,134 -304,134l0 0z"/>
   </clipPath>
   <clipPath id="id2" style="clip-rule:nonzero">
    <path d="M2782 1271c-33,-11 -62,-24 -85,-40 -44,-29 -61,-62 -55,-94 11,-50 83,-98 204,-125 65,-15 137,-22 207,-22 143,0 282,28 358,80 26,17 43,36 51,55 -9,-11 -21,-22 -36,-32 -75,-50 -209,-77 -348,-77 -68,0 -136,7 -199,21 -118,27 -183,74 -189,124 -4,31 15,62 57,91 10,7 22,13 34,19l0 0z"/>
   </clipPath>
  <linearGradient id="id3" gradientUnits="userSpaceOnUse" x1="2691.98" y1="744.13" x2="3081.13" y2="744.13">
   <stop offset="0" style="stop-color:#96A9BA"/>
   <stop offset="0.321569" style="stop-color:#54748E"/>
   <stop offset="0.580392" style="stop-color:#064264"/>
   <stop offset="1" style="stop-color:#064264"/>
  </linearGradient>
  <linearGradient id="id4" gradientUnits="userSpaceOnUse" x1="3396.01" y1="381.976" x2="2881.63" y2="28.0945">
   <stop offset="0" style="stop-color:#FBFFFF"/>
   <stop offset="0.0705882" style="stop-color:#FBFFFF"/>
   <stop offset="0.360784" style="stop-color:#C4CFDA"/>
   <stop offset="0.529412" style="stop-color:#839BAF"/>
   <stop offset="0.639216" style="stop-color:#496C88"/>
   <stop offset="0.729412" style="stop-color:#064264"/>
   <stop offset="1" style="stop-color:#064264"/>
  </linearGradient>
  <linearGradient id="id5" gradientUnits="userSpaceOnUse" x1="3006.18" y1="1339.1" x2="3391.65" y2="1015.66">
   <stop offset="0" style="stop-color:#FBFFFF"/>
   <stop offset="0" style="stop-color:#FBFFFF"/>
   <stop offset="1" style="stop-color:#FBFFFF"/>
  </linearGradient>
  <linearGradient id="id6" gradientUnits="userSpaceOnUse" xlink:href="#id3" x1="2688" y1="761.5" x2="3085.11" y2="726.76">
  </linearGradient>
  <linearGradient id="id7" gradientUnits="userSpaceOnUse" x1="2986.7" y1="198.039" x2="3506.3" y2="426.984">
   <stop offset="0" style="stop-color:#FBFFFF"/>
   <stop offset="0.211765" style="stop-color:#E8F4DB"/>
   <stop offset="0.431373" style="stop-color:#D3E9B4"/>
   <stop offset="0.639216" style="stop-color:#B5D97F"/>
   <stop offset="1" style="stop-color:#93C946"/>
  </linearGradient>
  <linearGradient id="id8" gradientUnits="userSpaceOnUse" xlink:href="#id5" x1="2878.99" y1="1342.99" x2="3230.23" y2="1048.26">
  </linearGradient>
  <linearGradient id="id9" gradientUnits="userSpaceOnUse" xlink:href="#id5" x1="2823.46" y1="1333.17" x2="3275.64" y2="953.74">
  </linearGradient>
 </defs>
 <g id="Layer_x0020_1">
  <metadata id="CorelCorpID_0Corel-Layer"/>
  <path class="fil0" d="M3059 1298c-12,0 -24,0 -36,-1 -164,-9 -276,-71 -268,-137 -8,66 104,128 268,137 12,1 24,1 36,1 163,0 294,-59 304,-134l0 0c-9,75 -141,134 -304,134zm6 -73c-10,0 -21,0 -31,-1 -75,-5 -129,-31 -133,-61 4,30 58,56 133,61 10,1 21,1 31,1 39,0 77,-5 110,-14 41,-12 68,-30 77,-50 2,-4 2,-7 3,-11 0,4 -1,7 -3,11 -8,20 -36,38 -77,50 -33,9 -71,14 -110,14zm-212 -56c-1,-6 0,-12 3,-18 14,-34 86,-58 168,-58 10,0 19,0 29,1 33,2 63,10 82,21 17,10 25,21 23,32 1,-12 -7,-23 -23,-32 -20,-11 -49,-19 -82,-21 -10,-1 -19,-1 -29,-1 -82,0 -154,24 -168,58 -3,6 -4,12 -3,18zm-97 -10c0,0 0,0 0,0 0,0 0,0 0,0zm241 -3c0,-1 0,-2 1,-2 2,-4 10,-11 19,-14 6,-2 15,-2 23,-2 4,0 8,0 12,0 13,1 49,3 66,13 3,-3 5,-7 6,-10 -1,3 -3,7 -6,10 -17,-10 -53,-12 -66,-13 -4,0 -8,0 -12,0 -9,0 -17,1 -23,2 -9,3 -17,9 -19,14 0,1 -1,2 -1,2z"/>
  <path class="fil1" d="M2783 1271c-33,-11 -62,-24 -85,-40 -38,-25 -56,-53 -56,-80l0 0c0,-4 0,-9 1,-13 -7,31 10,64 55,93 23,15 52,29 85,40 0,0 0,0 0,0zm-92 -110c6,-50 71,-98 189,-124 63,-14 131,-21 199,-21 138,0 273,28 348,78 15,10 27,21 36,32 0,0 0,0 0,0 -9,-11 -21,-22 -36,-32 -75,-50 -210,-78 -348,-78 -68,0 -136,7 -199,21 -118,26 -183,74 -189,124z"/>
  <path class="fil2" d="M3101 1319l-1 0 0 0 0 0 0 0 -1 0 0 0 0 0 0 0 0 0 0 0 0 0 0 0 0 0 0 0 0 0 0 0 0 0 0 0 0 0 0 0 0 0 0 0 0 0 0 0 0 0 0 0 0 0 0 0 0 0 0 0 0 0 0 0 0 0 0 0 0 0 0 0 0 0 0 0 0 0 0 0 0 0 0 0 0 0 0 0 0 0 0 0 0 0 0 0 0 0 0 0 0 0 0 0 0 0 0 0 0 0 0 0 0 0 0 0 0 0 0 0 0 0 0 0 0 0 0 0 0 0 0 0 0 0 0 0 0 0 0 0 0 0 0 0 0 0 0 0 0 0 0 0 0 0 0 0 0 0 0 0 0 0 0 0 0 0 0 0 0 0 0 0 0 0 0 0 0 0 0 0 0 0 0 0 0 0 0 0 0 0 0 0 0 0 0 0 0 0 0 0 0 0 0 0 0 0 0 0 0 0 0 0 0 0 0 0 0 0 0 0 0 0 0 0 0 0 0 0 0 0 0 0 0 0 0 0 0 0 0 0 0 0 0 0 0 0 0 0 0 0c-49,-1 -94,-6 -135,-14 0,0 0,0 0,0 41,8 87,13 135,14 7,0 14,0 20,0 70,0 135,-8 190,-23l0 0c21,-5 40,-12 57,-18l0 0c2,-1 4,-2 6,-2l0 0c2,-1 4,-2 5,-2 17,-7 31,-15 44,-24l0 0c1,-1 3,-2 4,-3 3,-2 5,-4 8,-6l0 0c1,-1 2,-2 4,-3 2,-2 5,-4 7,-6l0 0c1,-1 2,-2 3,-3 6,-6 11,-13 15,-20l0 0 0 0c3,-4 5,-9 6,-14l0 0c0,-1 1,-2 1,-3l0 0c1,-2 1,-5 1,-7 0,2 -1,5 -1,7l0 0c0,1 -1,2 -1,3l0 0c-1,5 -4,9 -6,14l0 0 0 0c-4,7 -9,13 -15,20 -1,1 -2,2 -3,3l0 0c-2,2 -4,4 -7,6 -1,1 -2,2 -4,3l0 0c-2,2 -5,4 -8,6 -1,1 -3,2 -4,3l0 0c-13,9 -27,17 -44,24 -2,1 -4,2 -5,2l0 0c-2,1 -4,2 -6,2l0 0c-17,7 -36,13 -57,18l0 0c-55,14 -120,23 -190,23zm351 -135l0 0 0 0zm0 0l0 0 0 0 0 0 0 0 0 0 0 0 0 0 0 0 0 0 0 0 0 0 0 0 0 0 0 0 0 0 0 0 0 0 0 0 0 0 0 0 0 0 0 0 0 0 0 0 0 0 0 0 0 0 0 0 0 0 0 0 0 0 0 0 0 0 0 0 0 0 0 0 0 0 0 0 0 0 0 0 0 0 0 0 0 0 0 0 0 0 0 0 0 0 0 0 0 0 0 0 0 0 0 0 0 0 0 0 0 0 0 0 0 0 0 0 0 0 0 0 0 0 0 0 0 0 0 0 0 0 0 0 0 0 0 0 0 0 0 0 0 0 0 0 0 0 0 0 0 0 0 0 0 0 0 0 0 0 0 0 0 0 0 0 0 0 0 0 0 0 0 0 0 0 0 0 0 0 0 0 0 0 0 0 0 0 0 0 0 0 0 0 0 0 0 0 0 0 0 0 0 0 0 0 0 0 0 0 0 0 0 0 0 0 0 0 0 0 0 0 0 0 0 0 0 0 0 0 0 0 0 0 0 0 0 0 0 0 0 0 0 0 0 0 0 0 0 0 0 0 0 0 0 0 0 0 0 0 0 0 0 0 0 0 0 0 0 0 0 0 0 0 0 0 0 0 0 0 0 0 0 0 0 0 0 0 0 0 0 0 0 0 0 0 0 0 0 0 0 0 0 0 0 0 0 0 0 0 0 0 0 0 0 0 0 0 0 0 0 0 0 0 0 0 0 0 0 0 0 0 0 0 0 0 0 0 0 0 0 0 0 0 0 0 0 0 0 0 0 0 0 0 0 0 0 0 0 0 0 0 0 0 0 0 0 0 0 0 0 0 0 0 0 0 0 0 0 0 0 0 0 0 0 0 0 0 0 0 0 0 0 0 0 0 0 0 0 0 0 0 0 0 0 0 0 0 0 0 0 0 0 0 0 0 0 0 0 0 0 0 0 0 0 0 0 0 0 0 0 0 0 0 0 0 0 0 0 0 0 0 0 0 0 0 0 0 0 0zm-57 -18c0,-1 0,-2 0,-3 0,-1 0,-2 0,-3l0 0c0,-1 0,-2 0,-3l0 0c0,-1 0,-2 -1,-3l0 0c0,-1 0,-2 -1,-3l0 0c-16,-53 -111,-97 -236,-116l0 0 -6 -1 0 0 -7 -1c2,0 4,1 7,1l0 0 6 1 0 0c125,18 219,63 236,116l0 0c0,1 1,2 1,3l0 0c0,1 0,2 1,3l0 0c0,1 0,2 0,3l0 0c0,1 0,2 0,3 0,1 0,2 0,3zm-252 -131l0 0 0 0 0 0 0 0z"/>
  <g style="clip-path:url(#id0)">
   <image transform="matrix(38.0176 0 0 22.2186 -63333.6 -13326)" x="1743" y="646" width="14" height="14" xlink:href="p1c1ntp514gbb1u1jpc91s1djv85_Images\p1c1ntp514gbb1u1jpc91s1djv85_ImgID1.png"/>
  </g>
  <g style="clip-path:url(#id1)">
   <image transform="matrix(45.7171 0 0 19.3188 -76948.7 -11432.4)" x="1743" y="646" width="14" height="14" xlink:href="p1c1ntp514gbb1u1jpc91s1djv85_Images\p1c1ntp514gbb1u1jpc91s1djv85_ImgID2.png"/>
  </g>
  <g style="clip-path:url(#id2)">
   <image transform="matrix(61.0162 0 0 21.7186 -103728 -13048.9)" x="1743" y="646" width="14" height="14" xlink:href="p1c1ntp514gbb1u1jpc91s1djv85_Images\p1c1ntp514gbb1u1jpc91s1djv85_ImgID3.png"/>
  </g>
  <path class="fil3" d="M581 900c0,-15 -4,-25 -11,-31 -5,-4 -12,-7 -21,-8 -9,-1 -22,-2 -39,-2 -15,0 -26,1 -34,2 -8,1 -14,4 -18,8 -7,6 -11,16 -13,32l136 0zm1 44l24 0c0,18 -7,31 -18,38 -12,7 -33,11 -62,11 -24,0 -43,-1 -55,-3 -13,-2 -22,-5 -29,-10 -15,-11 -22,-32 -22,-64 0,-22 3,-39 9,-51 6,-11 15,-18 26,-22 11,-4 30,-6 56,-6 25,0 43,1 54,4 11,3 20,8 27,16 6,7 9,14 11,23 2,9 3,22 3,40l-162 0c1,19 4,32 11,39 4,5 11,8 21,10 10,2 25,3 47,3 16,0 28,-1 36,-3 8,-1 13,-5 17,-9 3,-3 5,-9 5,-17z"/>
  <path class="fil3" d="M631 840l23 0 0 20 2 0c4,-7 9,-12 16,-16 4,-2 10,-4 17,-5 7,-1 18,-1 32,-1 14,0 25,1 32,2 7,2 13,5 18,9 10,9 15,23 15,43l0 16 -23 0 0 -11c0,-8 -1,-15 -2,-19 -1,-4 -3,-8 -6,-10 -6,-6 -18,-9 -36,-9 -28,0 -46,4 -53,11 -8,7 -12,24 -12,51l0 70 -23 0 0 -151z"/>
  <path class="fil3" d="M802 938l25 0c0,2 0,4 0,4 0,8 1,14 3,18 2,4 5,6 10,8 7,2 26,4 58,4 20,0 34,-1 41,-1 8,-1 13,-3 17,-5 5,-4 7,-9 7,-17 0,-9 -3,-15 -8,-19 -6,-3 -16,-5 -30,-5 -5,0 -27,0 -67,-1 -10,0 -19,-1 -25,-3 -6,-1 -11,-4 -16,-7 -8,-6 -12,-17 -12,-32 0,-16 5,-27 14,-34 5,-4 14,-6 25,-8 12,-2 28,-2 50,-2 24,0 42,1 54,4 12,3 20,8 26,15 3,3 4,7 5,11 1,4 1,10 1,19l-24 0c0,-9 -2,-15 -4,-18 -3,-3 -9,-6 -18,-7 -9,-1 -22,-2 -40,-2 -32,0 -51,2 -58,7 -5,3 -7,9 -7,17 0,8 3,14 9,16 6,3 17,4 35,4 17,0 39,0 67,1 17,1 29,4 36,11 7,7 11,18 11,33 0,9 -1,16 -4,22 -3,6 -7,10 -12,14 -5,3 -13,5 -24,7 -11,1 -28,2 -49,2 -24,0 -42,-1 -53,-2 -12,-1 -20,-4 -25,-8 -6,-4 -9,-9 -12,-14 -2,-5 -3,-13 -3,-23 0,-1 0,-4 0,-8z"/>
  <path class="fil3" d="M1109 859c-19,0 -32,1 -42,2 -9,1 -16,3 -20,7 -5,4 -9,9 -12,17 -2,7 -4,17 -4,30 0,15 1,26 4,34 3,8 7,13 13,17 8,5 26,7 51,7 17,0 30,-1 39,-2 9,-1 15,-3 20,-7 6,-4 10,-9 12,-17 2,-7 4,-18 4,-31 0,-15 -1,-26 -4,-33 -3,-8 -7,-13 -13,-17 -8,-5 -24,-7 -48,-7zm-99 186l0 -205 23 0 0 19 1 0c5,-9 12,-14 21,-17 9,-3 25,-4 48,-4 20,0 35,1 45,2 10,1 18,4 25,8 10,6 17,14 21,25 4,10 6,24 6,42 0,23 -3,40 -10,51 -7,11 -16,18 -27,22 -12,4 -32,5 -60,5 -21,0 -36,-1 -45,-4 -9,-3 -16,-8 -22,-16l-1 0 0 72 -23 0z"/>
  <path class="fil3" d="M1382 900c0,-15 -4,-25 -11,-31 -5,-4 -12,-7 -21,-8 -9,-1 -22,-2 -39,-2 -15,0 -26,1 -34,2 -8,1 -14,4 -18,8 -7,6 -11,16 -13,32l136 0zm1 44l24 0c0,18 -7,31 -18,38 -12,7 -33,11 -62,11 -24,0 -43,-1 -56,-3 -13,-2 -22,-5 -29,-10 -15,-11 -22,-32 -22,-64 0,-22 3,-39 9,-51 6,-11 15,-18 26,-22 11,-4 30,-6 56,-6 25,0 43,1 54,4 11,3 20,8 27,16 5,7 9,14 11,23 2,9 3,22 3,40l-162 0c1,19 4,32 11,39 4,5 11,8 21,10 10,2 25,3 47,3 16,0 28,-1 36,-3 8,-1 13,-5 17,-9 3,-3 5,-9 5,-17z"/>
  <path class="fil3" d="M1588 937l24 0c0,18 -4,32 -12,40 -6,6 -13,10 -23,13 -10,2 -24,3 -43,3 -25,0 -44,-1 -56,-3 -12,-2 -21,-5 -28,-11 -14,-11 -21,-32 -21,-64 0,-22 3,-39 9,-50 6,-11 15,-18 26,-22 11,-4 30,-6 56,-6 23,0 41,1 52,4 11,2 20,7 26,13 4,4 7,10 9,15 2,6 3,14 3,24l-24 0c0,-14 -5,-24 -14,-28 -9,-5 -26,-7 -53,-7 -26,0 -44,3 -52,8 -5,4 -9,9 -12,17 -2,8 -4,19 -4,33 0,13 1,24 4,31 3,8 8,13 14,16 9,5 28,7 58,7 24,0 39,-2 47,-7 7,-5 11,-14 12,-29z"/>
  <path class="fil3" d="M1657 803l23 0 0 37 102 0 0 21 -102 0 0 65c0,14 1,23 1,26 0,3 2,6 4,10 3,4 7,6 13,8 6,2 14,2 25,2 10,0 18,-1 23,-2 5,-2 8,-4 11,-8 2,-3 3,-6 3,-10 1,-4 1,-10 1,-20l0 -9 23 0 0 9c0,12 -1,20 -2,26 -1,6 -3,11 -6,16 -4,7 -11,11 -19,14 -9,3 -20,4 -36,4 -16,0 -28,-1 -37,-4 -9,-3 -15,-7 -20,-13 -3,-4 -5,-10 -6,-15 -1,-6 -2,-15 -2,-27l0 -73 -36 0 0 -21 36 0 0 -37z"/>
  <path class="fil3" d="M1805 840l23 0 0 151 -23 0 0 -151zm0 -66l23 0 0 28 -23 0 0 -28z"/>
  <polygon class="fil3" points="1842,840 1868,840 1939,969 1941,969 2012,840 2040,840 1955,991 1925,991 "/>
  <path class="fil3" d="M2204 900c0,-15 -4,-25 -11,-31 -5,-4 -12,-7 -21,-8 -9,-1 -22,-2 -39,-2 -15,0 -26,1 -34,2 -8,1 -14,4 -18,8 -7,6 -11,16 -13,32l136 0zm1 44l24 0c0,18 -7,31 -18,38 -12,7 -33,11 -62,11 -24,0 -43,-1 -55,-3 -13,-2 -22,-5 -29,-10 -15,-11 -22,-32 -22,-64 0,-22 3,-39 9,-51 6,-11 14,-18 26,-22 11,-4 30,-6 56,-6 25,0 43,1 54,4 11,3 20,8 27,16 6,7 9,14 11,23 2,9 3,22 3,40l-162 0c1,19 4,32 11,39 4,5 11,8 21,10 10,2 25,3 47,3 17,0 29,-1 36,-3 8,-1 13,-5 17,-9 3,-3 5,-9 5,-17z"/>
  <path class="fil3" d="M2250 938l25 0c0,2 0,4 0,4 0,8 1,14 3,18 2,4 5,6 10,8 7,2 26,4 58,4 20,0 34,-1 41,-1 8,-1 13,-3 17,-5 5,-4 7,-9 7,-17 0,-9 -3,-15 -8,-19 -6,-3 -16,-5 -30,-5 -5,0 -27,0 -67,-1 -10,0 -19,-1 -25,-3 -6,-1 -11,-4 -15,-7 -8,-6 -12,-17 -12,-32 0,-16 5,-27 15,-34 5,-4 13,-6 25,-8 12,-2 28,-2 50,-2 24,0 42,1 54,4 12,3 20,8 26,15 3,3 4,7 5,11 1,4 1,10 1,19l-24 0c0,-9 -2,-15 -5,-18 -3,-3 -9,-6 -19,-7 -9,-1 -22,-2 -40,-2 -32,0 -51,2 -57,7 -5,3 -7,9 -7,17 0,8 3,14 9,16 6,3 17,4 35,4 17,0 39,0 67,1 17,1 29,4 36,11 7,7 11,18 11,33 0,9 -1,16 -4,22 -3,6 -7,10 -12,14 -5,3 -13,5 -24,7 -11,1 -28,2 -49,2 -24,0 -42,-1 -53,-2 -12,-1 -20,-4 -25,-8 -5,-4 -9,-9 -12,-14 -2,-5 -3,-13 -3,-23 0,-1 0,-4 0,-8z"/>
  <path class="fil3" d="M266 1019c17,-5 30,-15 37,-30 7,-15 11,-38 11,-71 0,-25 -2,-44 -6,-58 -4,-14 -11,-24 -20,-31 -9,-7 -21,-11 -35,-14 -14,-3 -33,-4 -59,-4 -49,0 -83,2 -101,7 -18,5 -31,15 -39,29 -7,13 -11,37 -11,71 0,26 2,46 6,60 4,14 11,25 22,32 8,6 20,11 35,13 15,3 37,4 66,4 46,0 77,-3 94,-7zm-266 -245l43 0 0 37 3 0c10,-17 24,-28 41,-33 17,-5 47,-8 92,-8 37,0 65,1 81,3 40,5 68,22 84,48 12,20 18,51 18,92 0,37 -4,66 -11,86 -7,17 -18,32 -33,43 -12,9 -28,15 -47,18 -19,3 -52,5 -98,5 -39,0 -67,-3 -84,-8 -17,-5 -30,-15 -40,-31l-3 0 0 161 -44 0 0 -414z"/>
  <path class="fil3" d="M3191 361c-37,2 -64,43 -61,92 3,49 35,87 72,86 37,-2 64,-43 61,-92 -3,-49 -35,-87 -72,-86z"/>
  <path class="fil4" d="M3396 375l1 4c-10,-196 -156,-348 -329,-325 -78,10 -143,52 -189,111 30,3 70,12 102,43 29,-26 64,-45 103,-57 130,-41 286,65 312,226z"/>
  <path class="fil5" d="M3063 529c10,-128 18,-220 18,-220 -139,265 -389,45 -389,45 0,1 1,3 1,5 23,88 69,207 120,329 76,183 165,370 210,462 3,7 7,14 9,19 2,3 3,7 5,10 2,-12 4,-29 6,-49 -7,-123 0,-309 11,-473 -5,-49 -13,-96 -25,-141l14 -7c0,0 7,9 20,19z"/>
  <path class="fil6" d="M172 453c-29,0 -51,1 -66,4 -15,2 -27,7 -35,13 -10,7 -17,18 -22,32 -4,14 -6,34 -6,60 0,34 4,58 11,71 8,15 22,25 40,29 18,5 52,7 101,7 26,0 45,-1 59,-4 14,-3 25,-7 35,-14 9,-7 16,-17 21,-31 4,-14 6,-33 6,-58 0,-33 -4,-57 -11,-72 -8,-15 -20,-25 -37,-30 -17,-5 -48,-7 -94,-7zm-171 -162c15,0 30,0 44,0 0,54 0,107 0,161l3 0c10,-15 23,-26 40,-31 17,-5 45,-8 84,-8 46,0 79,1 98,5 19,3 35,9 47,18 15,12 26,26 33,44 8,20 11,49 11,86 0,41 -6,72 -18,92 -15,27 -43,43 -83,48 -17,2 -44,3 -81,3 -44,0 -75,-3 -92,-8 -17,-5 -30,-16 -41,-33l-3 0c0,12 0,25 0,37 -14,0 -29,0 -43,0 0,-138 0,-276 0,-414z"/>
  <path class="fil6" d="M404 291c15,0 29,0 44,0 0,138 0,276 0,414 -15,0 -29,0 -44,0 0,-138 0,-276 0,-414z"/>
  <path class="fil6" d="M800 532c0,-28 -7,-48 -22,-59 -9,-7 -22,-13 -39,-16 -17,-3 -42,-4 -74,-4 -29,0 -50,1 -65,4 -15,3 -27,8 -35,15 -14,11 -22,31 -24,60 86,0 173,0 259,0zm2 85c15,0 31,0 46,0 -1,34 -13,59 -35,72 -23,14 -62,20 -118,20 -46,0 -82,-2 -106,-6 -24,-4 -42,-10 -54,-19 -28,-21 -42,-61 -42,-123 0,-43 6,-75 18,-96 11,-20 28,-34 49,-42 21,-7 57,-11 107,-11 48,0 82,3 103,8 21,5 38,15 51,30 11,13 18,27 22,44 4,17 6,42 6,76 -103,0 -206,0 -309,0 1,36 8,61 21,74 8,9 22,15 40,19 18,3 48,5 90,5 31,0 54,-1 69,-5 15,-3 26,-9 33,-17 5,-6 9,-17 10,-32z"/>
  <path class="fil6" d="M888 417c15,0 29,0 44,0 0,14 0,29 0,43l3 0c9,-19 24,-31 43,-38 19,-7 52,-10 97,-10 40,0 69,2 88,7 19,5 34,13 45,25 9,9 14,21 18,36 3,14 5,35 5,62 0,54 0,108 0,163 -15,0 -29,0 -44,0 0,-48 0,-95 0,-143 0,-26 -1,-44 -3,-56 -2,-11 -6,-21 -12,-28 -7,-9 -19,-15 -34,-19 -15,-4 -38,-6 -68,-6 -34,0 -60,3 -79,8 -19,5 -33,14 -43,25 -7,9 -11,18 -13,29 -2,11 -3,30 -3,57 0,44 0,89 0,133 -15,0 -29,0 -44,0 0,-96 0,-192 0,-288z"/>
  <path class="fil6" d="M1459 453c-33,0 -58,1 -74,3 -16,2 -29,7 -38,12 -11,7 -18,18 -23,33 -5,15 -7,35 -7,61 0,45 8,74 24,87 16,13 50,20 103,20 34,0 60,-1 77,-3 17,-2 30,-7 38,-12 11,-8 18,-18 23,-32 5,-14 7,-33 7,-57 0,-29 -3,-51 -8,-65 -5,-15 -14,-26 -26,-32 -16,-9 -48,-13 -97,-13zm173 -162c0,138 0,276 0,414 -14,0 -29,0 -43,0 0,-12 0,-25 0,-37l-3 0c-11,17 -24,28 -41,33 -17,5 -48,8 -93,8 -37,0 -65,-1 -84,-4 -19,-3 -35,-8 -47,-15 -18,-11 -30,-26 -38,-46 -8,-20 -11,-47 -11,-82 0,-42 6,-73 17,-94 13,-23 30,-38 52,-45 22,-7 63,-10 123,-10 38,0 66,3 82,8 17,5 30,15 39,30l3 0c0,-54 0,-107 0,-161 15,0 29,0 44,0z"/>
  <path class="fil6" d="M1984 532c0,-28 -7,-48 -22,-59 -9,-7 -22,-13 -39,-16 -17,-3 -42,-4 -74,-4 -29,0 -50,1 -65,4 -15,3 -27,8 -35,15 -14,11 -22,31 -24,60 86,0 173,0 259,0zm2 85c15,0 31,0 46,0 -1,34 -12,59 -35,72 -23,14 -62,20 -118,20 -46,0 -82,-2 -106,-6 -24,-4 -42,-10 -54,-19 -28,-21 -42,-61 -42,-123 0,-43 6,-75 18,-96 11,-20 28,-34 49,-42 21,-7 57,-11 107,-11 48,0 82,3 104,8 21,5 38,15 51,30 11,13 18,27 22,44 4,17 6,42 6,76 -103,0 -206,0 -309,0 1,36 8,61 21,74 8,9 22,15 40,19 18,3 48,5 90,5 31,0 54,-1 69,-5 15,-3 26,-9 33,-17 6,-6 9,-17 10,-32z"/>
  <path class="fil6" d="M2254 453c-33,0 -58,1 -74,3 -16,2 -29,7 -38,12 -11,7 -18,18 -23,33 -5,15 -7,35 -7,61 0,45 8,74 24,87 16,13 50,20 103,20 34,0 60,-1 77,-3 17,-2 30,-7 38,-12 11,-8 18,-18 23,-32 5,-14 7,-33 7,-57 0,-29 -2,-51 -8,-65 -5,-15 -14,-26 -26,-32 -15,-9 -48,-13 -97,-13zm173 -162c0,138 0,276 0,414 -14,0 -29,0 -43,0 0,-12 0,-25 0,-37l-3 0c-11,17 -24,28 -41,33 -17,5 -48,8 -92,8 -37,0 -65,-1 -84,-4 -19,-3 -35,-8 -47,-15 -18,-11 -31,-26 -38,-46 -8,-20 -11,-47 -11,-82 0,-42 6,-73 17,-94 13,-23 30,-38 52,-45 22,-7 63,-10 123,-10 38,0 66,3 82,8 17,5 30,15 39,30l3 0c0,-54 0,-107 0,-161 15,0 29,0 44,0z"/>
  <path class="fil7" d="M3075 14l0 0 0 0 0 0c-26,1 -51,6 -75,13 2,-1 4,-2 6,-3l0 0 0 0 3 -1 0 0 0 0c2,-1 4,-2 6,-3l1 0 0 0 2 -1 1 0 0 0 3 -1c2,-1 5,-2 7,-3l0 0 0 0c4,-1 8,-3 11,-4l1 0 0 0 3 -1 1 0 0 0 3 -1 1 0 0 0 3 -1 1 0 0 0 4 -1 0 0 0 0c3,-1 7,-2 10,-3l1 0 0 0c2,0 3,-1 5,-1l1 0 0 0c2,0 4,-1 5,-1l2 0 0 0c2,0 4,-1 5,-1l2 0 0 0c5,-1 10,-2 15,-2l3 0 0 0c3,0 6,-1 9,-1l4 0 0 0c4,0 8,-1 12,-1 1,0 2,0 3,0l34 0c5,0 10,1 15,1l0 0 3 0c4,0 7,1 11,1l0 0 0 0c3,0 5,1 8,1l0 0 1 0c2,0 4,1 6,1l0 0 2 0c2,0 3,1 5,1l0 0 2 0c2,0 3,1 5,1l0 0 1 0c5,1 10,3 16,4l0 0 0 0c1,0 2,1 4,1l0 0 1 0c3,1 6,2 9,3l0 0 0 0c1,0 3,1 4,1l0 0 0 0c4,1 7,3 11,4l0 0 0 0c2,1 4,2 7,3l0 0 0 0 3 1 0 0 1 0c2,1 4,2 6,3l0 0 0 0 3 1 0 0 0 0c5,3 11,5 16,8l0 0 1 0 2 1 0 0 0 0 2 1 0 0 0 0c3,2 6,4 10,6l0 0 0 0c4,2 7,5 11,7l0 0 0 0c1,1 3,2 4,3l0 0 0 0c1,1 3,2 4,3l0 0 0 0c2,1 4,3 6,4l0 0 0 0c4,3 7,5 11,8l0 0 0 0c2,2 4,4 7,5l0 0 0 0 1 1 0 0 0 0c3,2 5,5 8,7l0 0 0 0c10,9 19,18 28,28l0 0 0 0c2,3 5,5 7,8l0 0 0 0 1 1 0 0 0 0c1,2 3,3 4,5l0 1 0 0 1 1 0 0 0 0c3,4 6,7 8,11l0 0 0 0c1,1 2,2 3,4l0 0 0 0 2 4 0 1 0 0 2 3 0 1 0 0c3,5 6,10 9,15l0 0 0 0c1,2 3,5 4,7l0 0 0 0 1 3 0 0 0 0 1 2 0 1 0 0 1 2 0 1 0 0c3,5 5,11 8,16l0 0 0 0c1,2 2,4 3,6l0 1 0 0 1 2 0 0 0 0c1,2 2,4 3,6l0 1 0 0c2,6 5,12 7,19l0 1 0 0c0,1 1,2 1,3l0 1 0 0 1 4 0 0 0 0c1,3 2,6 3,9l0 1 0 0c1,3 2,7 3,10l0 1 0 0c0,2 1,4 1,5l0 2 0 0c0,2 1,3 1,5l0 2 0 0c0,2 1,4 1,6l0 1 0 0c1,6 2,12 3,17l0 3 0 0c0,3 1,7 1,10l0 2 0 0c0,3 0,5 1,8 0,6 0,11 1,17l0 4c0,14 -1,27 -2,40l0 0 0 1c-1,6 -2,12 -3,18l0 0 0 0c-4,22 -10,44 -18,65l0 0 0 0c-1,2 -2,5 -3,7l0 0 0 0c-5,13 -11,25 -18,37l0 0 0 0 -1 2 0 0 0 0c-3,5 -5,9 -8,14l0 0 0 0 -3 4 0 0 0 0c-3,4 -5,8 -8,12l0 0 0 0c-1,2 -3,4 -4,6l0 0 0 0c-5,7 -11,14 -17,21l0 0 0 0c-4,5 -9,10 -14,15l0 0 0 0 -1 1 0 0 0 0 -1 1 0 0 0 0c-1,1 -3,3 -4,4l0 0 0 0c-8,7 -15,14 -23,21l0 0 0 0c-2,2 -5,4 -7,5l0 0 0 0c-2,1 -4,3 -6,4l0 0 0 0c-5,3 -9,7 -14,10 10,-25 18,-46 24,-62 52,-63 81,-144 77,-231 -11,-192 -172,-338 -362,-327z"/>
  <path class="fil6" d="M2818 312c6,56 45,98 87,94 42,-4 70,-52 63,-108 -7,-56 -46,-98 -87,-94 -42,4 -70,52 -63,108z"/>
  <path class="fil8" d="M3063 529c10,-128 18,-220 18,-220 -139,265 -389,45 -389,45 0,1 1,3 1,5 23,88 69,207 120,329 76,183 165,370 210,462 3,7 7,14 9,19 2,3 3,7 5,10 2,-12 4,-29 6,-49 -7,-123 0,-309 11,-473 -5,-49 -13,-96 -25,-141l14 -7c0,0 7,9 20,19z"/>
  <path class="fil6" d="M2818 312c6,56 45,98 87,94 42,-4 70,-52 63,-108 -7,-56 -46,-98 -87,-94 -42,4 -70,52 -63,108z"/>
  <path class="fil6" d="M3061 548c-4,-3 -8,-5 -11,-8 3,14 6,28 8,43 39,224 8,494 -6,591 83,-134 155,-282 208,-402 6,-13 11,-25 16,-38 14,-32 26,-62 37,-88 7,-16 13,-31 18,-44 9,-23 16,-40 20,-52 -157,60 -247,27 -290,-3z"/>
 </g>
</svg>
