<svg width="473" height="182" xmlns="http://www.w3.org/2000/svg" xmlns:svg="http://www.w3.org/2000/svg">
 <g>
  <title>Layer 1</title>
  <g id="svg_1">
   <g id="svg_43">
    <path d="m460.70001,28.9c-5.90002,0 -10.70004,4.8 -10.70004,10.7c0,5.9 4.80002,10.7 10.70004,10.7c5.90002,0 10.70001,-4.8 10.70001,-10.7c-0.10004,-6 -4.80008,-10.7 -10.70001,-10.7m0,19.8c-5,0 -9,-4.10001 -9,-9.2c0,-5.1 4,-9.2 9,-9.2c5,0 9,4.1 9,9.2c0,5.1 -4,9.2 -9,9.2" fill="#0b7abf" id="svg_2"/>
    <path d="m465.59995,36.9c0,-2.4 -1.39999,-3.5 -4.09998,-3.5l-4.69998,0l0,12.2l1.5,0l0,-5.39999l2.59998,0l3.5,5.39999l1.79999,0l-3.69998,-5.39999c1.90005,-0.3 3.09998,-1.60001 3.09998,-3.3m-7.29996,2l0,-4.2l2.60007,0c2.19989,0 3.19989,0.6 3.19989,2.1c0,1.5 -1,2.1 -3.19989,2.1l-2.60007,0" fill="#0b7abf" id="svg_3"/>
    <path d="m44.59999,82.8c0,7.8 -3.39998,12.09998 -12.39998,12.09998l-7.70001,0l0,-23.89999c1,-0.10001 4.20001,-0.19999 5.20001,-0.19999l2.60001,0c9.20001,0.1 12.3,4.2 12.3,12m18.29999,29.8c0,-11.8 -9.60004,-16 -21.2,-16.3l0,-0.4c9.89995,-0.8 17.99996,-5 17.99996,-15c0,-11.1 -9.19999,-13.2 -19.49996,-13.2c-12.40002,0 -26.90002,0.30001 -39.20001,0l0,3.10001c2.60002,-0.2 8.90001,0.2 8.90001,3.5l0,48.89999c0,3.2 -6.5,3.7 -8.90001,3.7l0,2.99999c12,-0.39999 26.10002,0 38.10002,0c12.5,0 23.80002,-4.3 23.80002,-17.3m-15.80002,-1c0,10.1 -3.39999,14.90001 -15.2,14.90001l-7.4,0l0,-28.30001l7.79998,0c10.80001,0 14.80001,3.80001 14.80001,13.4" fill="#0b7abf" id="svg_4"/>
    <path d="m142.7,129.79999c-5.5,0 -11.10001,-0.10001 -16.60001,0.10001l0,-3.09998c2.5,0 9.5,-0.2 9.5,-3.60004l0,-45.5l-0.19998,0l-25.40003,52.90004l-2.59997,0l-24.80002,-52.90004l-0.19998,0l0,45.5c0,3.5 7.29999,3.60004 9.89999,3.60004l0.10001,3.09998c-6.90003,-0.29999 -16.30002,-0.5 -23.10001,0l0,-3.09998c2.60001,0 8.89999,-0.30001 8.89999,-3.60004l0,-48.79998c0,-3.29999 -6.5,-3.5 -8.89999,-3.5l-0.10001,-3.10001c7.89993,0.30003 16.29998,0.30003 24.20001,0l21.19992,44.40002l21.60007,-44.3c7.60001,0.3 15.7,0.2 23.29999,-0.10001l0,3.10001c-2.5,0 -9.09999,0.2 -9.09999,3.5l0,48.8c0,3.39999 6.5,3.59999 9.09999,3.59999l0,3.10001c-5.60002,-0.2 -11.29999,-0.10001 -16.79999,-0.10001" fill="#0b7abf" id="svg_5"/>
    <path d="m217.7,98.7c0,12.10001 -1.20001,29.00002 -18.70001,29.00002c-17.59998,0 -18.79999,-16.90001 -18.79999,-29.00002c0,-12.1 1.29999,-28.89999 18.79999,-28.89999c17.5,0 18.70001,16.89999 18.70001,28.89999m16.5,0c0,-20.5 -12.5,-32 -35.20001,-32c-22.59998,0 -35.29999,11.4 -35.29999,32c0,20.60001 12.5,32.09999 35.29999,32.09999c22.70001,0 35.20001,-11.39999 35.20001,-32.09999" fill="#0b7abf" id="svg_6"/>
    <path d="m361.79999,1c-49.5,0 -89.70001,40.2 -89.70001,89.7c0,49.59999 40.20001,89.7 89.70001,89.7c49.59998,0 89.69998,-40.2 89.69998,-89.7c0,-49.5 -40.19998,-89.7 -89.69998,-89.7" fill="#e2231a" id="svg_7"/>
    <path d="m359,63.4l-15.59998,-20.3c-0.60004,-0.8 -1.60004,-1.39999 -2.80005,-1.39999c-1.09998,0 -2.09998,0.5 -2.69995,1.30001l-18.5,23.39998l0,36.60001l18.39996,-23.60001c0.70001,-0.8 1.70001,-1.39999 2.79999,-1.39999c1.20001,0 2.20001,0.59999 2.80005,1.39999l15.69995,20.5c0.60004,0.79999 1.5,1.29999 2.60004,1.29999c1.09998,0 2,-0.5 2.59998,-1.29999l15.60004,-20.5c0.69992,-0.8 1.69992,-1.39999 2.79999,-1.39999c1.09998,0 2.20001,0.5 2.79996,1.39999l18.40005,23.60001l0,-36.60001l-18.5,-23.39998c-0.60004,-0.80001 -1.60004,-1.30001 -2.70001,-1.30001c-1.10007,0 -2.10007,0.5 -2.79999,1.39999l-15.40005,20.3c-0.59995,0.8 -1.59995,1.3 -2.69998,1.3c-1.20001,0 -2.20001,-0.5 -2.79999,-1.3m45.09995,66.49999l-84.69989,0l0.10022,-0.10002l-0.10022,0.10002l0,-26.89999l84.69989,0l-0.09998,0.09999l0.09998,-0.09999l0,26.89999z" fill="#ffffff" id="svg_8"/>
    <path d="m460.49997,28.9c-5.90002,0 -10.69998,4.8 -10.69998,10.7c0,5.9 4.79996,10.7 10.69998,10.7c5.90005,0 10.70004,-4.8 10.70004,-10.7c0,-6 -4.79999,-10.7 -10.70004,-10.7m0,19.8c-5,0 -9,-4.10001 -9,-9.2s4,-9.2 9,-9.2c5,0 9,4.1 9,9.2s-4,9.2 -9,9.2" fill="#0b7abf" id="svg_27"/>
    <path d="m465.49997,36.9c0,-2.4 -1.40002,-3.5 -4.09995,-3.5l-4.70001,0l0,12.2l1.5,0l0,-5.39999l2.59998,0l3.5,5.39999l1.79996,0l-3.69992,-5.39999c1.89996,-0.3 3.09995,-1.60001 3.09995,-3.3m-7.29996,2l0,-4.2l2.59998,0c2.19998,0 3.19998,0.6 3.19998,2.1c0,1.5 -1,2.1 -3.19998,2.1l-2.59998,0" fill="#0b7abf" id="svg_28"/>
   </g>
  </g>
 </g>
</svg>