<?xml version="1.0" encoding="UTF-8"?>
<!DOCTYPE svg PUBLIC "-//W3C//DTD SVG 1.1//EN" "http://www.w3.org/Graphics/SVG/1.1/DTD/svg11.dtd">
<!-- Creator: CorelDRAW X6 -->
<svg xmlns="http://www.w3.org/2000/svg" xml:space="preserve" width="3.01389in" height="0.59722in" version="1.1" style="shape-rendering:geometricPrecision; text-rendering:geometricPrecision; image-rendering:optimizeQuality; fill-rule:evenodd; clip-rule:evenodd"
viewBox="0 0 3014 597"
 xmlns:xlink="http://www.w3.org/1999/xlink">
 <defs>
  <style type="text/css">
   <![CDATA[
    .fil0 {fill:#373435;fill-rule:nonzero}
    .fil1 {fill:#D69535;fill-rule:nonzero}
   ]]>
  </style>
 </defs>
 <g id="Layer_x0020_1">
  <metadata id="CorelCorpID_0Corel-Layer"/>
  <path class="fil0" d="M61 296c0,81 17,116 74,116 46,0 80,-25 93,-71l14 0c-13,58 -52,87 -115,87 -72,0 -127,-55 -127,-124 0,-77 57,-138 129,-138 67,0 108,38 114,111l-183 0c0,7 0,13 0,19zm124 -37c0,-2 0,-4 0,-7 0,-51 -16,-74 -56,-74 -40,0 -63,27 -66,81l122 0z"/>
  <path class="fil0" d="M285 337l16 0c13,49 46,76 89,76 38,0 63,-22 63,-52 0,-30 -29,-31 -83,-42 -56,-12 -84,-27 -84,-74 0,-44 33,-78 83,-78 29,0 50,8 63,22l13 -17 9 0 0 72 -14 0c-9,-42 -34,-64 -71,-64 -35,0 -58,19 -58,46 0,29 31,31 93,43 50,9 75,34 75,75 0,53 -37,86 -95,86 -27,0 -52,-10 -71,-30l-15 22 -13 0 0 -84z"/>
  <path class="fil0" d="M551 186l-37 0 0 -14 37 0 0 -79c6,1 12,1 17,1 11,0 22,-1 32,-3l0 81 58 0 0 14 -58 0 0 184c0,25 3,36 25,36 12,0 23,-8 35,-23l10 8c-20,27 -38,38 -68,38 -36,0 -51,-17 -51,-53l0 -190z"/>
  <path class="fil0" d="M690 406l34 0 0 -400 -33 0 0 -13c31,-1 59,-3 84,-7l0 250c19,-46 51,-71 96,-71 45,0 72,25 72,70l0 171 34 0 0 15 -121 0 0 -15 37 0 0 -173c0,-33 -13,-48 -40,-48 -40,0 -78,48 -78,108l0 113 34 0 0 15 -119 0 0 -15z"/>
  <path class="fil0" d="M1070 296c0,81 17,116 74,116 46,0 80,-25 93,-71l14 0c-13,58 -51,87 -115,87 -72,0 -127,-55 -127,-124 0,-77 57,-138 129,-138 67,0 108,38 114,111l-183 0c0,7 0,13 0,19zm124 -37c0,-2 0,-4 0,-7 0,-51 -16,-74 -56,-74 -40,0 -63,27 -66,81l122 0z"/>
  <path class="fil0" d="M1280 406l43 0 0 -220 -42 0 0 -14c34,0 65,-2 92,-6l0 64c22,-42 47,-62 76,-62 24,0 37,12 37,33 0,16 -10,27 -27,27 -16,0 -27,-13 -27,-27 0,-5 1,-8 1,-10 0,-3 -1,-5 -3,-5 -22,0 -56,48 -56,93l0 126 48 0 0 15 -142 0 0 -15z"/>
  <path class="fil0" d="M1902 406l35 0 0 15c-33,0 -61,1 -85,6l0 -46c-18,31 -48,48 -82,48 -66,0 -119,-57 -119,-132 0,-74 52,-130 119,-130 38,0 65,17 80,48l0 -209 -42 0 0 -13c3,0 7,0 10,0 30,0 57,-3 83,-7l0 420zm-50 -149c0,-40 -35,-76 -76,-76 -48,0 -65,35 -65,115 0,81 15,119 66,119 38,0 74,-35 74,-70l0 -87z"/>
  <path class="fil0" d="M2030 296c0,81 17,116 74,116 46,0 80,-25 93,-71l14 0c-13,58 -51,87 -115,87 -72,0 -127,-55 -127,-124 0,-77 57,-138 129,-138 67,0 108,38 114,111l-183 0c0,7 0,13 0,19zm124 -37c0,-2 0,-4 0,-7 0,-51 -16,-74 -56,-74 -40,0 -63,27 -66,81l122 0z"/>
  <path class="fil0" d="M2240 406l43 0 0 -220 -42 0 0 -14c34,0 65,-2 92,-6l0 64c22,-42 47,-62 76,-62 24,0 37,12 37,33 0,16 -10,27 -27,27 -16,0 -27,-13 -27,-27 0,-5 1,-8 1,-10 0,-3 -1,-5 -3,-5 -22,0 -56,48 -56,93l0 126 48 0 0 15 -142 0 0 -15z"/>
  <path class="fil0" d="M2451 407l37 0 0 -402 -35 0 0 -12c33,-1 61,-4 85,-7l0 229c16,-33 42,-48 80,-48 63,0 117,55 117,130 0,76 -52,131 -119,131 -37,0 -65,-16 -81,-48l0 48c-26,-3 -53,-5 -83,-6l0 -14zm86 -69c0,44 33,76 74,76 52,0 65,-38 65,-119 0,-80 -13,-113 -65,-113 -40,0 -74,35 -74,85l0 72z"/>
  <path class="fil0" d="M2790 186l-31 0 0 -14 125 0 0 14 -41 0 69 166 64 -166 -42 0 0 -14 91 0 0 14 -33 0 -117 308c-18,47 -37,70 -65,70 -20,0 -35,-13 -35,-30 0,-15 10,-26 25,-26 23,0 23,23 32,23 7,0 15,-14 25,-41l27 -70 -96 -234z"/>
  <path class="fil1" d="M1300 471c10,-6 21,-10 35,-10 30,0 43,15 43,44l0 44c0,12 0,18 1,21l-18 0 0 -14 0 0c-5,6 -15,16 -33,16 -23,0 -39,-10 -39,-33 0,-27 29,-35 49,-35 8,0 13,0 21,0 0,-18 -7,-28 -26,-28 -11,0 -23,4 -31,11l-1 -17zm58 48c-4,0 -8,0 -13,0 -11,0 -37,2 -37,20 0,11 11,17 20,17 19,0 30,-12 30,-28l0 -9z"/>
  <path class="fil1" d="M1401 549c8,5 19,8 24,8 9,0 20,-4 20,-15 0,-19 -46,-18 -46,-48 0,-22 16,-33 38,-33 9,0 17,2 24,4l-2 17c-4,-3 -16,-5 -21,-5 -10,0 -19,4 -19,13 0,22 46,15 46,49 0,23 -18,33 -37,33 -10,0 -20,-1 -29,-6l1 -18z"/>
  <path class="fil1" d="M1480 549c8,5 19,8 24,8 9,0 20,-4 20,-15 0,-19 -46,-18 -46,-48 0,-22 16,-33 38,-33 9,0 17,2 24,4l-2 17c-4,-3 -16,-5 -21,-5 -10,0 -19,4 -19,13 0,22 46,15 46,49 0,23 -18,33 -37,33 -10,0 -20,-1 -29,-6l1 -18z"/>
  <path class="fil1" d="M1614 461c32,0 54,23 54,56 0,30 -22,56 -54,56 -32,0 -54,-25 -54,-56 0,-32 22,-56 54,-56zm0 96c23,0 33,-21 33,-40 0,-20 -12,-40 -33,-40 -21,0 -33,20 -33,40 0,19 10,40 33,40z"/>
  <path class="fil1" d="M1760 481c-8,-3 -15,-5 -21,-5 -22,0 -34,20 -34,40 0,19 10,40 35,40 7,0 15,-2 21,-6l1 18c-8,4 -18,4 -25,4 -32,0 -54,-25 -54,-56 0,-32 22,-56 54,-56 8,0 18,2 24,4l-2 16z"/>
  <polygon class="fil1" points="1785,569 1805,569 1805,463 1785,463 "/>
  <path class="fil1" d="M1843 471c10,-6 21,-10 35,-10 30,0 43,15 43,44l0 44c0,12 0,18 1,21l-18 0 0 -14 0 0c-5,6 -15,16 -33,16 -23,0 -39,-10 -39,-33 0,-27 29,-35 49,-35 8,0 13,0 21,0 0,-18 -7,-28 -26,-28 -11,0 -23,4 -31,11l-1 -17zm58 48c-4,0 -8,0 -13,0 -11,0 -37,2 -37,20 0,11 11,17 20,17 19,0 30,-12 30,-28l0 -9z"/>
  <path class="fil1" d="M1981 463l28 0 0 16 -28 0 0 58c0,12 8,19 16,19 6,0 10,-2 13,-4l0 17c-4,1 -10,3 -17,3 -20,0 -33,-10 -33,-31l0 -62 -24 0 0 -16 24 0 0 -25 20 25z"/>
  <path class="fil1" d="M2113 565c-8,3 -16,7 -34,7 -38,0 -55,-23 -55,-58 0,-32 20,-54 50,-54 35,0 47,26 47,60l-76 0c0,21 16,35 35,35 13,0 28,-7 33,-11l0 20zm-13 -59c0,-16 -10,-30 -26,-30 -19,0 -27,16 -29,30l55 0z"/>
  <path class="fil1" d="M2137 549c8,5 19,8 24,8 9,0 20,-4 20,-15 0,-19 -46,-18 -46,-48 0,-22 16,-33 38,-33 9,0 17,2 24,4l-2 17c-4,-3 -16,-5 -21,-5 -10,0 -19,4 -19,13 0,22 46,15 46,49 0,23 -18,33 -37,33 -10,0 -20,-1 -29,-6l1 -18z"/>
  <polygon class="fil1" points="2225,546 2248,546 2231,597 2212,597 "/>
  <polygon class="fil1" points="2339,569 2358,569 2358,463 2339,463 "/>
  <path class="fil1" d="M2392 463l19 0 0 17 0 0c6,-12 20,-19 35,-19 28,0 40,17 40,46l0 63 -20 0 0 -55c0,-25 -5,-37 -23,-38 -22,0 -32,18 -32,44l0 49 -20 0 0 -106z"/>
  <path class="fil1" d="M2585 481c-7,-3 -15,-5 -21,-5 -22,0 -34,20 -34,40 0,19 10,40 35,40 7,0 15,-2 21,-6l1 18c-8,4 -18,4 -25,4 -32,0 -54,-25 -54,-56 0,-32 22,-56 54,-56 8,0 18,2 24,4l-2 16z"/>
  <polygon class="fil1" points="2609,569 2632,569 2632,546 2609,546 "/>
 </g>
</svg>
