<svg xmlns="http://www.w3.org/2000/svg" xmlns:xlink="http://www.w3.org/1999/xlink" width="179.2" height="98.85" viewBox="0 0 179.2 98.85"><defs><style>.a{fill:none;}.b{clip-path:url(#a);}.c{fill:#231f20;}.d{clip-path:url(#b);}.e{fill:#fff;}.f{fill:#fff200;}.g{fill:#ffdf1c;}.h{fill:#fec057;}</style><clipPath id="a" transform="translate(-18.24 -15.48)"><rect class="a" x="18.25" y="15.48" width="179.18" height="98.85"/></clipPath><clipPath id="b" transform="translate(-18.24 -15.48)"><rect class="a" width="223.08" height="129.8"/></clipPath></defs><title>asdfAsset 1asdf</title><g class="b"><path class="c" d="M166.25,37.79s22.62,4.44,27.59,5.18l-1.16,6,4.76.85-12.59,64.49-62.06-12,.54-3.06-5-1.06S96.25,102.45,88,104.81c-8.45,2.43-20.51,6.13-25.05,8l-2.22-6.45-6.24,4.12s-11.73-35-36.26-50.21c0,0,12-9.52,16.17-12.48,0,0-2-4.23-10.36-12.16,0,0,24-3.49,40.07-7.82,18.58-5,34.36-10.57,39.33-12.37l3.38,12.26.74-11.31s22.2,9.3,61.85,14.91c0,0-2.64,5.07-3.17,6.45" transform="translate(-18.24 -15.48)"/></g><g class="d"><path class="e" d="M161.46,32.22c-32-4.75-49.36-11.48-49.54-11.54l-2.31-.91-.21,2.48-5.46,64.91,2.1-.1c.28,0,28.49-1.16,46,2.21l2.18.42,0-2.23c.3-34.77,4.36-43.48,7.94-51.16l.69-1.47,1-2.25-2.46-.36m-9.07,55.23C134.46,84,106,85.22,106,85.22l5.29-62.82s17.3,6.81,49.95,11.65c-3.84,8.36-8.48,16-8.81,53.4" transform="translate(-18.24 -15.48)"/><path class="e" d="M88.86,88.06c-.13-.3-13.49-29.93-25.89-52.17l-.85-1.52-1.59.72C42,43.4,24.59,58.34,23.86,59l-2,1.69L24.09,62c.18.11,17.24,11.12,29.75,41.33l.92,2.2,2-1.37C68.84,95.64,87.42,90.74,87.6,90.69l2.19-.57ZM55.6,102.64C42.66,71.39,25.1,60.42,25.1,60.42s17.73-15.3,36.21-23.6c12.5,22.42,25.81,52,25.81,52S68.18,93.77,55.6,102.64" transform="translate(-18.24 -15.48)"/><path class="f" d="M161.2,34.05c-3.84,8.36-8.48,16-8.81,53.4C134.46,84,106,85.22,106,85.22l5.29-62.82s17.3,6.81,49.95,11.65" transform="translate(-18.24 -15.48)"/><path class="f" d="M25.1,60.42s17.56,11,30.51,42.22c12.57-8.87,31.51-13.8,31.51-13.8s-13.31-29.6-25.81-52C42.83,45.12,25.1,60.42,25.1,60.42" transform="translate(-18.24 -15.48)"/><path class="e" d="M115.31,92.44c0-.4-3.25-40.58-13.91-72l-.63-1.87-1.85.7C71.53,29.5,32.61,36.64,32.21,36.71l-3.55.65,2.53,2.57c.18.17,16.68,17.42,32.08,66l.64,2,1.94-.84c10-4.33,47.58-12.53,48-12.62l1.63-.35ZM65.09,105.32C49.32,55.6,32.55,38.59,32.55,38.59S71.72,31.47,99.6,21c10.7,31.62,13.8,71.59,13.8,71.59s-38,8.27-48.31,12.73" transform="translate(-18.24 -15.48)"/><path class="g" d="M32.55,38.59s16.77,17,32.54,66.73c10.27-4.46,48.31-12.73,48.31-12.73s-3.1-40-13.8-71.59c-27.88,10.47-67,17.59-67,17.59" transform="translate(-18.24 -15.48)"/><path class="e" d="M189.47,44.5,132.93,33.86l-1.83-.34-.34,1.82L119.83,93.79l1.81.34,56.55,10.64,1.82.34.34-1.82L191,46.66l.34-1.82ZM178.53,103,122,92.31l10.61-56.62,56.54,10.63L178.53,103" transform="translate(-18.24 -15.48)"/><rect class="h" x="126.75" y="40.55" width="57.61" height="57.54" transform="matrix(0.18, -0.98, 0.98, 0.18, 40.44, 193.9)"/><path class="c" d="M45.71,77.75V47.46h14.6c8.7,0,12.91,4,12.91,10.23,0,6.51-3.87,10.64-12.58,10.64h-5v9.42Zm13.76-16c2.27,0,3.92-.91,3.92-3.47,0-2.76-3.13-3.13-5.2-3.13H55.43v6.6h4" transform="translate(-18.24 -15.48)"/><rect class="c" x="120.81" y="47.68" width="11.27" height="7.65"/><path class="c" d="M152.2,55.71H161v22H152.2Zm0-9.05H161v6.23H152.2Z" transform="translate(-18.24 -15.48)"/><path class="c" d="M178.07,77.75c-11.49.63-12.87-.17-12.87-7.78V60.75h-3.12v-5h3.24V48.85H174v6.86h4.2v5H174v8c0,2,.29,2.73,2.73,2.73h1.39v6.27" transform="translate(-18.24 -15.48)"/><path class="c" d="M85.54,55.07c7.79,0,12.59,4.59,12.59,11.45,0,8.08-5.48,11.86-12.54,11.86S73.05,74.51,73.05,67s5-11.91,12.49-11.91m-4,11.66c0,4.16,1.56,6,3.79,6s3.78-1.81,3.78-6c0-3.24-1.43-5.69-3.7-5.55-3,0-3.87,3.06-3.87,5.55" transform="translate(-18.24 -15.48)"/><path class="c" d="M107.24,70.86a2.45,2.45,0,0,0,.93,2,3.5,3.5,0,0,0,2.14.67c1.35,0,2.78-.42,2.78-2,0-3.53-13.51-.71-13.51-9.25,0-5.64,5.85-7.28,10.44-7.28,4.79,0,10.43,1.09,10.93,6.94h-8a2.27,2.27,0,0,0-.84-1.59,2.74,2.74,0,0,0-1.76-.55c-1.52,0-2.49.46-2.49,1.55,0,3.08,13.93,1,13.93,9.26,0,4.59-3.79,7.7-11.87,7.7-5,0-10.6-1.56-11.06-7.49h8.33" transform="translate(-18.24 -15.48)"/><path class="c" d="M137.71,77.75c-11.49.63-12.88-.17-12.88-7.78V60.75h-3.11v-5H125V48.85h8.62v6.86h4.22v5h-4.22v8c0,2,.3,2.73,2.74,2.73h1.39v6.27" transform="translate(-18.24 -15.48)"/><path class="c" d="M177.3,51a3.46,3.46,0,1,1,3.47,3.47A3.46,3.46,0,0,1,177.3,51m6.5,0a3,3,0,1,0-3,3,3,3,0,0,0,3-3m-1.31,1.94h-.56l-1.11-1.79H180v1.79h-.47V49.05h1.69a1.72,1.72,0,0,1,.94.2.94.94,0,0,1,.44.83c0,.76-.54,1-1.23,1.06Zm-1.81-2.16c.54,0,1.38.09,1.38-.7,0-.6-.52-.67-1-.67H180v1.37h.73" transform="translate(-18.24 -15.48)"/><path class="c" d="M151.34,88.19l-.09-7.52,2.72,0c1.76,0,2.47.74,2.48,1.87a1.47,1.47,0,0,1-1.18,1.63v0A1.73,1.73,0,0,1,156.84,86c0,1.57-1,2.13-2.43,2.15Zm.7-.61,1.8,0c1.57,0,2.3-.23,2.28-1.54s-.89-1.46-2.23-1.45l-1.89,0ZM152,84l1.8,0c1.48,0,2-.55,1.94-1.45s-.57-1.28-2.13-1.27l-1.64,0L152,84" transform="translate(-18.24 -15.48)"/><path class="c" d="M158.87,88.11h-.63l-.06-5.41h.63v1h0a1.64,1.64,0,0,1,1.75-1.18v.69c-1.41,0-1.77,1-1.76,2.24l0,2.65" transform="translate(-18.24 -15.48)"/><path class="c" d="M164.14,84.9a2.88,2.88,0,0,0,.82-.19c.21-.09.22-.38.22-.56,0-.64-.38-1.09-1.36-1.08s-1.45.29-1.56,1.24h-.63c.07-1.27,1-1.8,2.2-1.81s2,.41,2,1.66l0,2.94c0,.5.14.61.66.42V88a1.7,1.7,0,0,1-.49.11,1.27,1.27,0,0,1-.28,0c-.42-.06-.49-.42-.51-.8a2.67,2.67,0,0,1-2,.92,1.6,1.6,0,0,1-1.82-1.53c0-.92.61-1.48,1.87-1.65Zm1.05.3a4.76,4.76,0,0,1-1.61.32c-1,.09-1.52.44-1.51,1.17s.58,1,1.18,1c1,0,2-.51,1.95-1.6V85.2" transform="translate(-18.24 -15.48)"/><path class="c" d="M168.12,88h-.62l-.06-5.41h.62v.75a2.32,2.32,0,0,1,1.73-.91,1.89,1.89,0,0,1,1.66.75,2.08,2.08,0,0,1,.29,1.24l0,3.54h-.63l0-3.53c0-1-.41-1.46-1.41-1.45a1.57,1.57,0,0,0-1.49,1.07,2.73,2.73,0,0,0-.13,1l0,2.91" transform="translate(-18.24 -15.48)"/><path class="c" d="M177.4,80.39H178l.08,7.52h-.63V87h0a2.18,2.18,0,0,1-1.87,1.12c-1.74,0-2.46-1.22-2.47-2.82s.73-2.87,2.38-2.88a2.24,2.24,0,0,1,1.94,1Zm-1.8,2.55c-1.3,0-1.89,1.12-1.82,2.47a1.88,1.88,0,0,0,1.87,2.11c1.18,0,1.82-1,1.8-2.33s-.71-2.26-1.85-2.25" transform="translate(-18.24 -15.48)"/><polygon class="c" points="29.13 28.8 29.13 21.79 30.17 21.79 32.52 27.97 32.54 27.97 34.86 21.79 35.88 21.79 35.88 28.8 35.2 28.8 35.2 22.55 35.19 22.55 32.83 28.8 32.19 28.8 29.83 22.55 29.81 22.55 29.81 28.8 29.13 28.8"/><path class="c" d="M58.4,42.42c0,1-.94,1.47-1.89,1.47-.56,0-1.11-.29-1.11-.91s.55-1,1.45-1.07a5.22,5.22,0,0,0,1.55-.28Zm-1.84-1c-1.2.16-1.8.68-1.8,1.52s.82,1.45,1.72,1.45a2.58,2.58,0,0,0,1.93-.83c0,.35.08.69.47.75a1.27,1.27,0,0,0,.28,0,1.58,1.58,0,0,0,.46-.1V43.8c-.51.18-.62.07-.62-.39V40.66c0-1.16-.83-1.56-1.88-1.56s-2,.47-2.12,1.66h.61c.11-.87.67-1.14,1.5-1.14s1.29.43,1.29,1c0,.18,0,.44-.22.53a3,3,0,0,1-.79.17Z" transform="translate(-18.24 -15.48)"/><path class="c" d="M61,44.28h-.6V39.23H61v1h0a1.56,1.56,0,0,1,1.68-1.08v.63c-1.34,0-1.7.94-1.7,2.07Z" transform="translate(-18.24 -15.48)"/><path class="c" d="M67.09,41.74c0,1.21-.62,2.15-1.75,2.15a1.77,1.77,0,0,1-1.76-2c0-1.26.53-2.29,1.76-2.29a1.9,1.9,0,0,1,1.75,2.12m0-1.62h0a2.1,2.1,0,0,0-1.8-1c-1.66,0-2.33,1.16-2.33,2.64s.73,2.67,2.3,2.67a2.17,2.17,0,0,0,1.85-.94v2.79h.6v-7h-.6Z" transform="translate(-18.24 -15.48)"/><path class="c" d="M72.09,42c0,1.11-.59,1.91-1.57,1.91a1.18,1.18,0,0,1-1.33-1.35V39.23h-.6v3.32a1.64,1.64,0,0,0,1.84,1.86,2.06,2.06,0,0,0,1.66-.83v.7h.6V39.23h-.6Z" transform="translate(-18.24 -15.48)"/><path class="c" d="M73.91,41.4a1.78,1.78,0,0,1,1.73-1.78,1.6,1.6,0,0,1,1.63,1.78Zm4,.49c0-1.81-.85-2.79-2.27-2.79a2.43,2.43,0,0,0-2.37,2.67c0,1.5.72,2.64,2.37,2.64a2.14,2.14,0,0,0,2.23-1.68h-.66a1.51,1.51,0,0,1-1.57,1.16,1.76,1.76,0,0,1-1.73-2Z" transform="translate(-18.24 -15.48)"/></g></svg>