<svg id="Layer_1" data-name="Layer 1" xmlns="http://www.w3.org/2000/svg" viewBox="0 0 150 150"><defs><style>.cls-1{fill:#231f20;}.cls-2{fill:none;stroke:#231f20;stroke-linecap:round;stroke-miterlimit:10;}</style></defs><title>SA_RegionalGathering_CanadaLogo</title><ellipse class="cls-1" cx="74.85" cy="32.9" rx="13.88" ry="10.46"/><circle class="cls-1" cx="74.85" cy="55.93" r="7.2"/><ellipse class="cls-1" cx="56.03" cy="48.26" rx="6.24" ry="5.41" transform="translate(-16.77 61.2) rotate(-50.82)"/><ellipse class="cls-1" cx="74.85" cy="17.48" rx="4.94" ry="2.47"/><ellipse class="cls-1" cx="74.85" cy="12.36" rx="2.66" ry="0.93"/><ellipse class="cls-1" cx="74.85" cy="10.51" rx="1.12" ry="0.39"/><ellipse class="cls-1" cx="74.9" cy="71.89" rx="4.7" ry="2.98"/><ellipse class="cls-1" cx="46.93" cy="58.8" rx="2.43" ry="3.49" transform="translate(-20.38 25.2) rotate(-24.87)"/><ellipse class="cls-1" cx="43.51" cy="63.31" rx="0.73" ry="1.69" transform="translate(-29.35 38.98) rotate(-37.03)"/><ellipse class="cls-1" cx="60.33" cy="21.95" rx="4.85" ry="2.68" transform="translate(-3.84 24.02) rotate(-21.84)"/><ellipse class="cls-1" cx="54.58" cy="18.68" rx="2.75" ry="0.99" transform="translate(-2.26 28.52) rotate(-28.72)"/><ellipse class="cls-1" cx="52.23" cy="17.58" rx="1.24" ry="0.4" transform="translate(-0.53 33.5) rotate(-35.39)"/><ellipse class="cls-1" cx="51.97" cy="33.7" rx="5.59" ry="3.62" transform="translate(-8.37 47.7) rotate(-46.02)"/><ellipse class="cls-1" cx="42.09" cy="36.03" rx="2.91" ry="1.41" transform="translate(-9.25 56.87) rotate(-62.66)"/><ellipse class="cls-1" cx="38.41" cy="37.24" rx="1.24" ry="0.4" transform="translate(-9.99 60.04) rotate(-69.33)"/><ellipse class="cls-1" cx="97.81" cy="33.7" rx="3.62" ry="5.59" transform="translate(4.02 77.36) rotate(-43.98)"/><ellipse class="cls-1" cx="107.69" cy="36.03" rx="1.41" ry="2.91" transform="translate(-4.52 53.49) rotate(-27.34)"/><ellipse class="cls-1" cx="111.37" cy="37.24" rx="0.4" ry="1.24" transform="translate(-5.98 41.7) rotate(-20.67)"/><ellipse class="cls-1" cx="89.56" cy="21.95" rx="2.68" ry="4.85" transform="translate(35.87 96.92) rotate(-68.16)"/><ellipse class="cls-1" cx="95.32" cy="18.68" rx="0.99" ry="2.75" transform="translate(33.14 93.3) rotate(-61.28)"/><ellipse class="cls-1" cx="97.67" cy="17.58" rx="0.4" ry="1.24" transform="translate(26.77 87.01) rotate(-54.61)"/><ellipse class="cls-1" cx="93.72" cy="48.26" rx="5.41" ry="6.24" transform="translate(-9.41 70.06) rotate(-39.18)"/><ellipse class="cls-1" cx="102.81" cy="58.8" rx="3.49" ry="2.43" transform="translate(6.22 127.35) rotate(-65.13)"/><ellipse class="cls-1" cx="106.23" cy="63.31" rx="1.69" ry="0.73" transform="translate(-8.29 109.98) rotate(-52.97)"/><ellipse class="cls-1" cx="74.9" cy="78.48" rx="2.2" ry="0.91"/><path class="cls-1" d="M84.89,93.61a4.59,4.59,0,0,0,3.17,1.52,2,2,0,0,0,2.16-1.88c0-2.65-6.1-2.24-6.1-6.17,0-1.9,1.66-3.38,4-3.38,1.34,0,3.59.61,3.59,2.32v1H90.11v-.59c0-.66-.95-1.14-1.95-1.14-1.36,0-2.22.75-2.22,1.7,0,2.56,6.08,2,6.08,6.13a3.67,3.67,0,0,1-4,3.59,5.64,5.64,0,0,1-4.18-1.88Z"/><path class="cls-1" d="M99.7,83.7c1.7,0,4.74.71,4.74,2.74v1.23h-1.65V87c0-1.06-1.79-1.59-3.06-1.59a4.48,4.48,0,0,0-4.51,4.76,4.72,4.72,0,0,0,4.56,5,5.6,5.6,0,0,0,4-1.72l1,1.29a6.84,6.84,0,0,1-5,2.11,6.34,6.34,0,0,1-6.4-6.63A6.24,6.24,0,0,1,99.7,83.7Z"/><path class="cls-1" d="M107.14,85.46H106V83.92h5.51a3.51,3.51,0,0,1,3.77,3.7A3.25,3.25,0,0,1,113,91v0a1.38,1.38,0,0,1,.54.57l1.52,3c.18.38.46.41.89.41h.23v1.54h-.88c-1,0-1.34-.12-1.75-.95l-1.72-3.4c-.32-.59-.55-.68-1.25-.68h-1.65v5h-1.79ZM111.26,90a2.06,2.06,0,0,0,2.16-2.29,2,2,0,0,0-2.13-2.24h-2.36V90Z"/><path class="cls-1" d="M118.06,85.85a.35.35,0,0,0-.39-.39h-.77V83.92h1.81c.8,0,1.14.34,1.14,1.14v7a3,3,0,1,0,6,0v-7c0-.8.36-1.14,1.16-1.14h1.79v1.54h-.77a.35.35,0,0,0-.39.39v6.28a4.81,4.81,0,0,1-9.62,0Z"/><path class="cls-1" d="M129.65,95h.61c.25,0,.38-.14.39-.39l.86-10.69h1.84l3,6.69c.3.68.63,1.59.63,1.59h0s.32-.91.63-1.59l3-6.69h1.84l.86,10.69c0,.25.14.39.39.39h.59v1.54h-1.59c-.8,0-1.09-.34-1.14-1.14L141,88.73c-.05-.75,0-1.86,0-1.86h0s-.36,1.18-.66,1.86l-2.56,5.54h-1.5l-2.56-5.54c-.3-.66-.68-1.88-.68-1.88h0s0,1.13,0,1.88l-.5,6.67c-.05.8-.34,1.14-1.16,1.14h-1.59Z"/><path class="cls-1" d="M27.6,103a6.41,6.41,0,0,1,4.51,1.56l-1,1.31a5.55,5.55,0,0,0-3.45-1.22,4.87,4.87,0,0,0,0,9.73,5,5,0,0,0,3.59-1.57V111.5a.36.36,0,0,0-.39-.39h-.77v-1.54h1.66c.8,0,1.14.34,1.14,1.14v5.1H31.34V115c0-.27,0-.54,0-.54h0A5.59,5.59,0,0,1,27.39,116c-3.36,0-6.15-2.65-6.15-6.58A6.33,6.33,0,0,1,27.6,103Z"/><path class="cls-1" d="M34,114.27h.25c.32,0,.48-.07.59-.39l4-10.69h1.88l4,10.69a.52.52,0,0,0,.59.39h.27v1.54h-1c-.89,0-1.18-.21-1.47-1l-.95-2.59H37.41l-.95,2.59a1.27,1.27,0,0,1-1.48,1H34Zm7.62-3.59-1.38-3.84c-.23-.66-.5-1.77-.5-1.77h0s-.25,1.11-.48,1.77l-1.38,3.84Z"/><path class="cls-1" d="M48.91,104.72H46.37a.35.35,0,0,0-.39.39v.8H44.39v-1.66c0-.8.27-1.07,1.07-1.07h8.69c.8,0,1.07.27,1.07,1.07v1.66H53.63v-.8a.35.35,0,0,0-.39-.39H50.7v11.09H48.91Z"/><path class="cls-1" d="M57.34,105.11a.35.35,0,0,0-.39-.39h-.77v-1.54H58c.8,0,1.14.34,1.14,1.14v4.42h6.42v-4.42c0-.8.34-1.14,1.14-1.14H68.5v1.54h-.77a.35.35,0,0,0-.39.39v10.69H65.54v-5.54H59.12v5.54H57.34Z"/><path class="cls-1" d="M71,104.72H69.86v-1.54h7.42c.8,0,1.14.34,1.14,1.14v1.59H76.8v-.8a.35.35,0,0,0-.39-.39H72.81v4h4.42v1.54H72.81v3.67a.36.36,0,0,0,.39.39h3.68a.36.36,0,0,0,.39-.39v-.8h1.64v1.59c0,.8-.34,1.14-1.14,1.14H72.17c-.8,0-1.14-.34-1.14-1.14Z"/><path class="cls-1" d="M81.18,104.72H80v-1.54h5.51a3.51,3.51,0,0,1,3.77,3.7A3.25,3.25,0,0,1,87,110.23v0a1.38,1.38,0,0,1,.54.57l1.52,3c.18.38.46.41.89.41h.23v1.54h-.88c-1,0-1.34-.12-1.75-.95l-1.72-3.4c-.32-.59-.55-.68-1.25-.68H83v5H81.18Zm4.11,4.52A2.06,2.06,0,0,0,87.46,107a2,2,0,0,0-2.13-2.24H83v4.52Z"/><path class="cls-1" d="M91.15,114.27h1.23v-9.55H91.15v-1.54h4.17v1.54H94.08v9.55h1.23v1.54H91.15Z"/><path class="cls-1" d="M96.75,114.27h.77a.36.36,0,0,0,.39-.39V103.18h1.63l5.62,8c.46.68,1.05,1.72,1.05,1.72h0a17.17,17.17,0,0,1-.12-1.72v-6.85c0-.8.34-1.14,1.16-1.14h1.79v1.54h-.77a.35.35,0,0,0-.39.39v10.69H106.3l-5.63-8c-.46-.68-1-1.72-1-1.72h0s.11,1,.11,1.72v6.85c0,.8-.34,1.14-1.14,1.14H96.75Z"/><path class="cls-1" d="M116.74,103a6.41,6.41,0,0,1,4.51,1.56l-1,1.31a5.55,5.55,0,0,0-3.45-1.22,4.87,4.87,0,0,0,0,9.73,5,5,0,0,0,3.59-1.57V111.5a.36.36,0,0,0-.39-.39h-.77v-1.54h1.66c.8,0,1.14.34,1.14,1.14v5.1h-1.57V115c0-.27,0-.54,0-.54h0a5.6,5.6,0,0,1-3.93,1.54,6.22,6.22,0,0,1-6.15-6.58A6.33,6.33,0,0,1,116.74,103Z"/><path class="cls-1" d="M126.06,102.71a2.93,2.93,0,1,1-2.85,2.93A2.89,2.89,0,0,1,126.06,102.71Zm0,5.31a2.39,2.39,0,1,0-2.26-2.38A2.3,2.3,0,0,0,126.06,108Zm-1-3.48h-.27v-.43h1.44a.89.89,0,0,1,1,.92.8.8,0,0,1-.55.8v0a.3.3,0,0,1,.17.16l.31.6a.19.19,0,0,0,.19.1h.09v.42h-.3c-.22,0-.33,0-.43-.22l-.42-.79A.25.25,0,0,0,126,106h-.33v1.17h-.57Zm1.05,1a.47.47,0,0,0,.49-.51.45.45,0,0,0-.49-.49h-.48v1Z"/><path class="cls-1" d="M6.9,85.67H5.74V84.13h5.49A3.5,3.5,0,0,1,15,87.83a3.24,3.24,0,0,1-2.27,3.34v0a1.37,1.37,0,0,1,.54.57l1.52,3c.18.37.46.41.89.41h.23v1.53H15c-1,0-1.34-.13-1.75-.95l-1.71-3.39c-.32-.59-.55-.68-1.25-.68H8.68v5H6.9ZM11,90.18a2.05,2.05,0,0,0,2.16-2.28A2,2,0,0,0,11,85.67H8.68v4.51Z"/><path class="cls-1" d="M21.13,87.49c2.53,0,3.89,1.89,3.89,4.23,0,.23-.05.71-.05.71H18.39a3,3,0,0,0,3.1,3,4.15,4.15,0,0,0,2.64-1.05l.75,1.23a5.28,5.28,0,0,1-3.48,1.32,4.6,4.6,0,0,1-4.8-4.73A4.44,4.44,0,0,1,21.13,87.49Zm2.1,3.67a2.14,2.14,0,0,0-2.12-2.3,2.6,2.6,0,0,0-2.66,2.3Z"/><path class="cls-1" d="M30.43,87.49a3,3,0,0,1,2.89,1.41h0v-.29c0-.53.29-.91,1-.91H36v1.48h-.71a.35.35,0,0,0-.39.36v6.81c0,3-2.27,4.12-4.55,4.12a7.09,7.09,0,0,1-3.09-.75l.59-1.39a5.68,5.68,0,0,0,2.46.61c1.57,0,2.85-.7,2.85-2.52v-.61a5.32,5.32,0,0,1,0-.57h0a2.88,2.88,0,0,1-2.69,1.37c-2.5,0-4-2-4-4.62S27.91,87.49,30.43,87.49ZM33.24,92c0-2.35-1.16-3-2.55-3-1.57,0-2.46,1.14-2.46,3s1,3.16,2.6,3.16C32.08,95.12,33.24,94.37,33.24,92Z"/><path class="cls-1" d="M38,89.57a.35.35,0,0,0-.39-.39H36.9V87.7H38.6c.8,0,1.14.34,1.14,1.14v6a.35.35,0,0,0,.39.39h.73v1.48H39.17c-.8,0-1.14-.34-1.14-1.14Zm0-5.44h1.55v1.8H38.06Z"/><path class="cls-1" d="M46.82,87.49A4.73,4.73,0,1,1,42,92.2,4.71,4.71,0,0,1,46.82,87.49Zm0,8a3.23,3.23,0,1,0-3.09-3.25A3.12,3.12,0,0,0,46.82,95.44Z"/><path class="cls-1" d="M53.85,89.57a.35.35,0,0,0-.39-.39h-.73V87.7h1.66c.77,0,1.14.34,1.14,1V89a3.77,3.77,0,0,1,0,.52h0a3.67,3.67,0,0,1,3.39-2.07c2.14,0,3.1,1.16,3.1,3.46v3.91a.35.35,0,0,0,.39.39h.73v1.48H61.43c-.8,0-1.14-.34-1.14-1.14V91.34c0-1.27-.25-2.26-1.69-2.26a2.92,2.92,0,0,0-2.85,2.21,3.71,3.71,0,0,0-.16,1.21v4.23H53.85Z"/><path class="cls-1" d="M69.6,91.11H70V91c0-1.59-.59-2.16-2-2.16-.43,0-1.48.11-1.48.7v.52H64.89v-.89c0-1.48,2.25-1.69,3.12-1.69,2.93,0,3.71,1.53,3.71,3.53v3.83a.35.35,0,0,0,.39.39h.73v1.48H71.22c-.8,0-1.12-.39-1.12-1a3.94,3.94,0,0,1,0-.54h0a3.08,3.08,0,0,1-2.87,1.78,2.82,2.82,0,0,1-3.07-2.75C64.16,91.28,68.08,91.11,69.6,91.11Zm-2,4.44C69.06,95.55,70,94,70,92.68v-.3h-.45c-1.3,0-3.66.07-3.66,1.73A1.5,1.5,0,0,0,67.6,95.55Z"/><path class="cls-1" d="M74.68,86a.35.35,0,0,0-.39-.39h-.73V84.13h1.71c.8,0,1.14.34,1.14,1.14v9.58a.35.35,0,0,0,.39.39h.73v1.48H75.82c-.8,0-1.14-.34-1.14-1.14Z"/><line class="cls-2" x1="20.81" y1="122.15" x2="129.43" y2="121.82"/><path class="cls-1" d="M56.08,134.65l1.54.39a5.18,5.18,0,0,1-1.74,2.89,4.8,4.8,0,0,1-3.08,1,5.53,5.53,0,0,1-3.06-.77,4.78,4.78,0,0,1-1.79-2.22,7.92,7.92,0,0,1-.62-3.12,6.86,6.86,0,0,1,.69-3.17,4.76,4.76,0,0,1,2-2.06,5.77,5.77,0,0,1,2.82-.7,4.77,4.77,0,0,1,2.94.89,4.62,4.62,0,0,1,1.66,2.5l-1.52.36a3.6,3.6,0,0,0-1.17-1.85,3.13,3.13,0,0,0-1.94-.58,3.76,3.76,0,0,0-2.24.64,3.4,3.4,0,0,0-1.27,1.73,7,7,0,0,0-.37,2.24,7.1,7.1,0,0,0,.43,2.59,3.22,3.22,0,0,0,1.35,1.66,3.78,3.78,0,0,0,2,.55,3.31,3.31,0,0,0,2.19-.75A3.82,3.82,0,0,0,56.08,134.65Z"/><path class="cls-1" d="M64.84,137.69a5.32,5.32,0,0,1-1.53,1,4.43,4.43,0,0,1-1.58.28,3.07,3.07,0,0,1-2.14-.68,2.24,2.24,0,0,1-.75-1.74,2.35,2.35,0,0,1,1-2,3.47,3.47,0,0,1,1-.47,10.13,10.13,0,0,1,1.27-.21,13,13,0,0,0,2.55-.49c0-.2,0-.32,0-.37a1.58,1.58,0,0,0-.41-1.23,2.39,2.39,0,0,0-1.63-.48,2.53,2.53,0,0,0-1.49.35,2.16,2.16,0,0,0-.71,1.25l-1.4-.19a3.47,3.47,0,0,1,.63-1.45A2.76,2.76,0,0,1,61,130.4a5.64,5.64,0,0,1,1.91-.3,5,5,0,0,1,1.75.25,2.31,2.31,0,0,1,1,.64,2.25,2.25,0,0,1,.44,1,8.09,8.09,0,0,1,.07,1.32v1.91a20.29,20.29,0,0,0,.09,2.52,3.19,3.19,0,0,0,.36,1H65.12A3,3,0,0,1,64.84,137.69Zm-.12-3.19a10.48,10.48,0,0,1-2.33.54,5.38,5.38,0,0,0-1.25.29,1.24,1.24,0,0,0-.56.46,1.26,1.26,0,0,0,.23,1.63,1.86,1.86,0,0,0,1.27.38,3,3,0,0,0,1.47-.36,2.22,2.22,0,0,0,.94-1,3.45,3.45,0,0,0,.23-1.43Z"/><path class="cls-1" d="M68.38,138.73V130.3h1.29v1.2a3,3,0,0,1,2.68-1.39,3.52,3.52,0,0,1,1.4.27,2.2,2.2,0,0,1,1,.72,2.76,2.76,0,0,1,.44,1.06,8.15,8.15,0,0,1,.08,1.39v5.19H73.8V133.6a3.84,3.84,0,0,0-.17-1.31,1.37,1.37,0,0,0-.59-.69,1.88,1.88,0,0,0-1-.26,2.32,2.32,0,0,0-1.58.58,2.86,2.86,0,0,0-.66,2.2v4.61Z"/><path class="cls-1" d="M82.92,137.69a5.32,5.32,0,0,1-1.53,1,4.43,4.43,0,0,1-1.58.28,3.07,3.07,0,0,1-2.14-.68,2.24,2.24,0,0,1-.75-1.74,2.31,2.31,0,0,1,.28-1.13,2.34,2.34,0,0,1,.74-.82,3.46,3.46,0,0,1,1-.47,10.09,10.09,0,0,1,1.27-.21,13,13,0,0,0,2.55-.49c0-.2,0-.32,0-.37a1.58,1.58,0,0,0-.41-1.23,2.39,2.39,0,0,0-1.63-.48,2.52,2.52,0,0,0-1.49.35,2.16,2.16,0,0,0-.71,1.25l-1.4-.19a3.47,3.47,0,0,1,.63-1.45,2.76,2.76,0,0,1,1.26-.85,5.64,5.64,0,0,1,1.91-.3,5.05,5.05,0,0,1,1.75.25,2.31,2.31,0,0,1,1,.64,2.24,2.24,0,0,1,.44,1,8,8,0,0,1,.07,1.32v1.91a20.33,20.33,0,0,0,.09,2.52,3.18,3.18,0,0,0,.36,1H83.21A3,3,0,0,1,82.92,137.69Zm-.12-3.19a10.5,10.5,0,0,1-2.33.54,5.37,5.37,0,0,0-1.25.29,1.24,1.24,0,0,0-.56.46,1.26,1.26,0,0,0,.23,1.63,1.86,1.86,0,0,0,1.27.38,3,3,0,0,0,1.47-.36,2.23,2.23,0,0,0,.95-1,3.45,3.45,0,0,0,.23-1.43Z"/><path class="cls-1" d="M91.94,138.73v-1.06a2.62,2.62,0,0,1-2.36,1.25,3.31,3.31,0,0,1-1.85-.56,3.64,3.64,0,0,1-1.31-1.55,5.37,5.37,0,0,1-.46-2.29,6,6,0,0,1,.42-2.29,3.32,3.32,0,0,1,1.26-1.58,3.38,3.38,0,0,1,1.88-.55,2.81,2.81,0,0,1,2.33,1.16v-4.18h1.42v11.64Zm-4.52-4.21a3.66,3.66,0,0,0,.68,2.42,2.06,2.06,0,0,0,1.61.8,2,2,0,0,0,1.59-.77,3.53,3.53,0,0,0,.66-2.34,4,4,0,0,0-.67-2.54,2.05,2.05,0,0,0-1.64-.81,2,2,0,0,0-1.59.78A3.84,3.84,0,0,0,87.42,134.52Z"/><path class="cls-1" d="M101,137.69a5.32,5.32,0,0,1-1.53,1,4.43,4.43,0,0,1-1.58.28,3.07,3.07,0,0,1-2.14-.68,2.24,2.24,0,0,1-.75-1.74,2.31,2.31,0,0,1,.28-1.13,2.34,2.34,0,0,1,.74-.82,3.46,3.46,0,0,1,1-.47,10.09,10.09,0,0,1,1.27-.21,13,13,0,0,0,2.55-.49c0-.2,0-.32,0-.37a1.58,1.58,0,0,0-.41-1.23,2.39,2.39,0,0,0-1.63-.48,2.52,2.52,0,0,0-1.49.35,2.16,2.16,0,0,0-.71,1.25l-1.4-.19a3.47,3.47,0,0,1,.63-1.45,2.76,2.76,0,0,1,1.26-.85,5.64,5.64,0,0,1,1.91-.3,5.05,5.05,0,0,1,1.75.25,2.31,2.31,0,0,1,1,.64,2.24,2.24,0,0,1,.44,1,8,8,0,0,1,.07,1.32v1.91a20.33,20.33,0,0,0,.09,2.52,3.18,3.18,0,0,0,.36,1H101.3A3,3,0,0,1,101,137.69Zm-.12-3.19a10.5,10.5,0,0,1-2.33.54,5.37,5.37,0,0,0-1.25.29,1.24,1.24,0,0,0-.56.46,1.26,1.26,0,0,0,.23,1.63,1.86,1.86,0,0,0,1.27.38,3,3,0,0,0,1.47-.36,2.23,2.23,0,0,0,.95-1,3.45,3.45,0,0,0,.23-1.43Z"/></svg>