<?xml version="1.0" encoding="UTF-8" standalone="no"?>
<svg
   xmlns:dc="http://purl.org/dc/elements/1.1/"
   xmlns:cc="http://creativecommons.org/ns#"
   xmlns:rdf="http://www.w3.org/1999/02/22-rdf-syntax-ns#"
   xmlns:svg="http://www.w3.org/2000/svg"
   xmlns="http://www.w3.org/2000/svg"
   viewBox="0 0 239.56 113.32"
   height="113.32"
   width="239.56"
   xml:space="preserve"
   id="svg2"
   version="1.1"><metadata
     id="metadata8"><rdf:RDF><cc:Work
         rdf:about=""><dc:format>image/svg+xml</dc:format><dc:type
           rdf:resource="http://purl.org/dc/dcmitype/StillImage" /></cc:Work></rdf:RDF></metadata><defs
     id="defs6" /><g
     transform="matrix(1.3333333,0,0,-1.3333333,0,113.32)"
     id="g10"><g
       transform="scale(0.1)"
       id="g12"><path
         id="path14"
         style="fill:#e4a612;fill-opacity:1;fill-rule:nonzero;stroke:none"
         d="m 323.438,429.277 c 0,14.805 -12.012,26.817 -26.817,26.817 -14.824,0 -26.836,-12.012 -26.836,-26.817 0,-14.836 12.012,-26.836 26.836,-26.836 14.805,0 26.817,12 26.817,26.836" /><path
         id="path16"
         style="fill:#be5020;fill-opacity:1;fill-rule:nonzero;stroke:none"
         d="m 390.398,441.727 c 0,13.644 -11.074,24.738 -24.734,24.738 -13.672,0 -24.746,-11.094 -24.746,-24.738 0,-13.672 11.074,-24.747 24.746,-24.747 13.66,0 24.734,11.075 24.734,24.747" /><path
         id="path18"
         style="fill:#d99325;fill-opacity:1;fill-rule:nonzero;stroke:none"
         d="m 454.004,422.656 c 0,12.461 -10.109,22.567 -22.586,22.567 -12.473,0 -22.57,-10.106 -22.57,-22.567 0,-12.488 10.097,-22.578 22.57,-22.578 12.477,0 22.586,10.09 22.586,22.578" /><path
         id="path20"
         style="fill:#f68b11;fill-opacity:1;fill-rule:nonzero;stroke:none"
         d="m 245.898,315.613 c 0,16.711 -13.562,30.285 -30.312,30.285 -16.719,0 -30.281,-13.574 -30.281,-30.285 0,-16.734 13.562,-30.3 30.281,-30.3 16.75,0 30.312,13.566 30.312,30.3" /><path
         id="path22"
         style="fill:#e45b1c;fill-opacity:1;fill-rule:nonzero;stroke:none"
         d="m 271.379,385.117 c 0,15.899 -12.883,28.778 -28.781,28.778 -15.899,0 -28.789,-12.879 -28.789,-28.778 0,-15.906 12.89,-28.808 28.789,-28.808 15.898,0 28.781,12.902 28.781,28.808" /><path
         id="path24"
         style="fill:#f79010;fill-opacity:1;fill-rule:nonzero;stroke:none"
         d="m 500,374.316 c 0,10.887 -8.84,19.727 -19.727,19.727 -10.898,0 -19.726,-8.84 -19.726,-19.727 0,-10.925 8.828,-19.746 19.726,-19.746 10.887,0 19.727,8.821 19.727,19.746" /><path
         id="path26"
         style="fill:#f68b11;fill-opacity:1;fill-rule:nonzero;stroke:none"
         d="m 519.258,313.254 c 0,10.113 -8.203,18.309 -18.32,18.309 -10.118,0 -18.321,-8.196 -18.321,-18.309 0,-10.109 8.203,-18.313 18.321,-18.313 10.117,0 18.32,8.204 18.32,18.313" /><path
         id="path28"
         style="fill:#e45b1c;fill-opacity:1;fill-rule:nonzero;stroke:none"
         d="m 507.988,251.25 c 0,8.563 -6.941,15.508 -15.5,15.508 -8.562,0 -15.496,-6.945 -15.496,-15.508 0,-8.555 6.934,-15.496 15.496,-15.496 8.559,0 15.5,6.941 15.5,15.496" /><path
         id="path30"
         style="fill:#e4a612;fill-opacity:1;fill-rule:nonzero;stroke:none"
         d="m 473.938,195.82 c 0,7.403 -6,13.391 -13.391,13.391 -7.383,0 -13.391,-5.988 -13.391,-13.391 0,-7.39 6.008,-13.398 13.391,-13.398 7.391,0 13.391,6.008 13.391,13.398" /><path
         id="path32"
         style="fill:#be5020;fill-opacity:1;fill-rule:nonzero;stroke:none"
         d="m 423.438,164.824 c 0,7.012 -5.684,12.676 -12.676,12.676 -7.012,0 -12.688,-5.664 -12.688,-12.676 0,-7.019 5.676,-12.695 12.688,-12.695 6.992,0 12.676,5.676 12.676,12.695" /><path
         id="path34"
         style="fill:#e4a612;fill-opacity:1;fill-rule:nonzero;stroke:none"
         d="m 292.168,661.125 c -1.602,10.918 5.977,21.094 16.934,22.676 10.937,1.59 21.101,-5.988 22.683,-16.926 1.594,-10.93 -5.972,-21.094 -16.93,-22.703 -10.949,-1.606 -21.105,5.996 -22.687,16.953" /><path
         id="path36"
         style="fill:#be5020;fill-opacity:1;fill-rule:nonzero;stroke:none"
         d="m 240.273,663.145 c -1.464,10.097 5.528,19.46 15.618,20.925 10.105,1.477 19.468,-5.515 20.945,-15.625 1.465,-10.097 -5.535,-19.453 -15.625,-20.918 -10.098,-1.472 -19.473,5.52 -20.938,15.618" /><path
         id="path38"
         style="fill:#d99325;fill-opacity:1;fill-rule:nonzero;stroke:none"
         d="m 193.262,640.684 c -1.348,9.207 5.051,17.773 14.258,19.101 9.21,1.348 17.773,-5.051 19.101,-14.25 1.348,-9.234 -5.039,-17.793 -14.238,-19.109 -9.231,-1.348 -17.774,5.019 -19.121,14.258" /><path
         id="path40"
         style="fill:#f68b11;fill-opacity:1;fill-rule:nonzero;stroke:none"
         d="m 363.145,583.906 c -1.797,12.356 6.777,23.848 19.121,25.653 12.375,1.789 23.847,-6.754 25.664,-19.129 1.797,-12.375 -6.778,-23.86 -19.153,-25.645 -12.339,-1.808 -23.836,6.778 -25.632,19.121" /><path
         id="path42"
         style="fill:#e45b1c;fill-opacity:1;fill-rule:nonzero;stroke:none"
         d="m 336.27,633.547 c -1.7,11.734 6.433,22.652 18.183,24.344 11.738,1.726 22.656,-6.426 24.363,-18.164 1.711,-11.758 -6.406,-22.657 -18.171,-24.375 -11.739,-1.7 -22.637,6.425 -24.375,18.195" /><path
         id="path44"
         style="fill:#f79010;fill-opacity:1;fill-rule:nonzero;stroke:none"
         d="m 164.641,600.254 c -1.184,8.215 4.5,15.832 12.722,17.031 8.203,1.192 15.84,-4.504 17.032,-12.695 1.203,-8.235 -4.493,-15.867 -12.696,-17.051 -8.222,-1.199 -15.859,4.481 -17.058,12.715" /><path
         id="path46"
         style="fill:#f68b11;fill-opacity:1;fill-rule:nonzero;stroke:none"
         d="m 156.824,552.09 c -1.109,7.637 4.184,14.715 11.797,15.832 7.641,1.101 14.719,-4.184 15.832,-11.797 1.113,-7.629 -4.172,-14.73 -11.808,-15.832 -7.625,-1.094 -14.715,4.172 -15.821,11.797" /><path
         id="path48"
         style="fill:#e45b1c;fill-opacity:1;fill-rule:nonzero;stroke:none"
         d="m 172.117,506.57 c -0.933,6.446 3.528,12.453 9.992,13.391 6.446,0.93 12.442,-3.527 13.399,-9.973 0.937,-6.465 -3.543,-12.437 -10,-13.379 -6.453,-0.957 -12.442,3.52 -13.391,9.961" /><path
         id="path50"
         style="fill:#c0145a;fill-opacity:1;fill-rule:nonzero;stroke:none"
         d="m 203.879,468.523 c -0.813,5.579 3.055,10.743 8.621,11.567 5.586,0.801 10.762,-3.07 11.563,-8.637 0.82,-5.555 -3.047,-10.738 -8.614,-11.551 -5.586,-0.832 -10.761,3.059 -11.57,8.621" /><path
         id="path52"
         style="fill:#c02b27;fill-opacity:1;fill-rule:nonzero;stroke:none"
         d="m 245.359,450.676 c -0.781,5.281 2.883,10.191 8.176,10.972 5.274,0.762 10.176,-2.898 10.938,-8.171 0.769,-5.286 -2.891,-10.207 -8.164,-10.965 -5.274,-0.785 -10.196,2.879 -10.95,8.164" /><path
         id="path54"
         style="fill:#059fe5;fill-opacity:1;fill-rule:nonzero;stroke:none"
         d="m 491.328,488.309 h 24.649 l -2.95,-16.043 c -3.222,-18.086 17.149,-24.219 35.371,-24.219 24.915,0 42.598,15.469 42.598,37.637 0,43.183 -82.793,26.843 -82.793,88.398 0,39.973 34.297,60.977 72.07,60.977 22.247,0 57.082,-9.629 51.993,-36.172 l -4.297,-22.176 H 603.32 l 2.41,14.297 c 2.688,14.004 -15.535,18.379 -28.933,18.379 -22.774,0 -40.996,-12.832 -40.996,-33.547 0,-41.145 82.793,-24.512 82.793,-88.41 0,-40.836 -34.024,-65.352 -73.684,-65.352 -24.383,0 -63.23,11.098 -57.344,45.813 l 3.762,20.418" /><path
         id="path56"
         style="fill:#059fe5;fill-opacity:1;fill-rule:nonzero;stroke:none"
         d="m 731.152,576.711 c 19.571,0 51.993,-8.457 47.696,-34.719 l -3.211,-16.926 h -23.039 l 1.875,9.922 c 1.875,11.965 -13.133,17.219 -25.996,17.219 -29.473,0 -57.071,-29.18 -57.071,-63.312 0,-25.672 15.274,-42.301 40.457,-42.301 27.063,0 46.36,19.254 46.36,19.254 l 7.5,-21.883 c 0,0 -20.625,-21.887 -56.27,-21.887 -39.648,0 -64.57,26.262 -64.57,64.777 0,47.84 38.32,89.856 86.269,89.856" /><path
         id="path58"
         style="fill:#059fe5;fill-opacity:1;fill-rule:nonzero;stroke:none"
         d="m 823.086,544.91 c 0.535,3.496 -0.273,6.418 -4.824,6.418 h -16.875 l 4.277,21.887 h 30.547 c 10.449,0 14.473,-4.082 14.473,-12.551 0,-3.789 -2.676,-18.086 -4.825,-25.09 h 0.536 c 9.113,21.008 27.335,39.387 48.761,39.387 3.496,0 6.438,-0.293 8.047,-0.586 l -5.098,-28.008 c -1.328,0.293 -3.75,0.879 -7.226,0.879 -24.922,0 -47.434,-32.969 -53.32,-66.808 l -9.649,-54.852 h -25.996 l 21.172,119.324" /><path
         id="path60"
         style="fill:#059fe5;fill-opacity:1;fill-rule:nonzero;stroke:none"
         d="m 931.355,479.559 12.59,71.769 h -22.5 l 4.024,21.887 h 48.496 l -15.547,-87.824 c -1.34,-6.125 -2.148,-12.246 -2.148,-16.914 0,-12.84 5.097,-20.711 20.371,-20.711 27.059,0 49.029,30.332 53.859,58.336 l 8.04,45.226 h -22.51 l 4.02,21.887 h 48.49 l -18.75,-104.453 c -0.53,-3.207 -0.81,-6.418 -0.81,-9.043 0,-10.5 5.37,-12.832 12.06,-12.832 4.02,0 6.43,0.586 6.43,0.586 l -4.01,-21.887 c 0,0 -5.9,-0.586 -12.33,-0.586 -18.22,0 -28.94,10.215 -27.07,32.383 h -0.52 c -8.85,-15.164 -27.602,-35.305 -56.013,-35.305 -20.632,0 -38.047,11.098 -38.047,38.813 0,5.543 0.54,11.961 1.875,18.668" /><path
         id="path62"
         style="fill:#059fe5;fill-opacity:1;fill-rule:nonzero;stroke:none"
         d="m 1122.97,545.207 c 0.53,3.785 -0.55,6.121 -4.83,6.121 h -16.88 l 4.01,21.887 h 30.55 c 10.72,0 14.75,-4.375 14.75,-12.258 0,-3.508 -2.15,-14.883 -4.03,-20.125 h 0.54 c 6.44,13.125 28.4,35.879 53.86,35.879 21.7,0 32.68,-12.539 34.02,-35.879 h 0.54 c 10.45,20.125 30.81,35.879 53.32,35.879 23.05,0 37.24,-14.004 37.24,-39.094 0,-17.512 -11.78,-66.23 -11.78,-77.898 0,-11.086 5.35,-12.832 12.05,-12.832 3.75,0 6.43,0.586 6.43,0.586 l -4.01,-21.887 c 0,0 -5.1,-0.586 -11.52,-0.586 -12.06,0 -29.75,2.629 -29.75,27.715 0,13.719 11.52,63.015 11.52,77.019 0,12.844 -4.28,21.301 -19.82,21.301 -25.2,0 -44.48,-29.758 -49.31,-58.058 l -12.06,-67.391 h -25.98 l 15.81,88.398 c 0.8,5.84 1.87,11.668 1.87,16.629 0,11.965 -4.29,20.422 -19.3,20.422 -25.98,0 -45.54,-30.344 -50.9,-59.512 l -11.79,-65.937 h -26 l 21.45,119.621" /><path
         id="path64"
         style="fill:#4f4c4c;fill-opacity:1;fill-rule:nonzero;stroke:none"
         d="m 674.871,246.113 -12.859,84.024 c -1.074,6.711 -1.074,13.125 -1.074,13.125 h -0.528 c 0,0 -1.875,-6.414 -5.097,-13.125 L 611.914,246.113 Z M 537.422,176.094 h 19.023 l 96.993,188.172 h 20.898 l 29.746,-188.172 h 19.023 l -2.949,-16.922 h -59.48 l 2.945,16.922 h 21.699 l -8.308,52.801 h -73.407 l -27.062,-52.801 h 21.426 l -3.203,-16.922 h -60.293 l 2.949,16.922" /><path
         id="path66"
         style="fill:#4f4c4c;fill-opacity:1;fill-rule:nonzero;stroke:none"
         d="m 751.27,195.93 27.07,152 h -24.121 l 2.949,16.336 h 42.336 L 770.027,198.262 c -0.535,-3.496 -1.062,-7.293 -1.062,-9.629 0,-12.246 6.426,-13.125 12.851,-13.125 4.563,0 6.7,0.586 6.7,0.586 l -2.95,-16.922 c 0,0 -5.086,-0.879 -9.375,-0.879 -10.449,0 -26.257,3.504 -26.257,26.551 0,2.922 0.535,7.004 1.336,11.086" /><path
         id="path68"
         style="fill:#4f4c4c;fill-opacity:1;fill-rule:nonzero;stroke:none"
         d="m 822.832,195.93 27.051,152 H 825.77 l 2.953,16.336 h 42.332 L 841.582,198.262 c -0.535,-3.496 -1.074,-7.293 -1.074,-9.629 0,-12.246 6.433,-13.125 12.871,-13.125 4.551,0 6.687,0.586 6.687,0.586 l -2.937,-16.922 c 0,0 -5.098,-0.879 -9.387,-0.879 -10.445,0 -26.258,3.504 -26.258,26.551 0,2.922 0.536,7.004 1.348,11.086" /><path
         id="path70"
         style="fill:#4f4c4c;fill-opacity:1;fill-rule:nonzero;stroke:none"
         d="m 929.746,364.266 h 20.637 l -4.563,-24.793 h -20.625 z m -29.199,-169.207 17.148,94.519 h -24.121 l 2.949,16.34 h 42.332 l -19.824,-108.82 c -0.535,-3.211 -0.808,-6.129 -0.808,-8.465 0,-12.246 6.433,-13.711 12.871,-13.711 4.551,0 6.699,0.586 6.699,0.586 l -2.949,-16.336 c 0,0 -5.625,-0.586 -9.375,-0.586 -10.196,0 -26.27,2.625 -26.27,25.672 0,2.922 0.813,6.711 1.348,10.801" /><path
         id="path72"
         style="fill:#4f4c4c;fill-opacity:1;fill-rule:nonzero;stroke:none"
         d="m 1004.25,172.004 c 25.18,0 46.36,30.348 52.24,55.73 l 1.34,6.414 h -7.76 c -22.51,0 -71.281,-2.625 -71.281,-38.804 0,-12.539 7.5,-23.34 25.461,-23.34 z m 47.43,77.027 h 8.84 c 0,0 2.14,11.379 2.14,16.621 0,15.473 -6.97,26.262 -27.6,26.262 -22.24,0 -40.458,-13.711 -40.458,-13.711 l -5.625,16.047 c 0,0 20.893,15.176 49.033,15.176 25.72,0 43.14,-12.551 43.14,-40.852 0,-17.219 -13.4,-67.683 -13.4,-79.941 0,-12.246 6.43,-13.711 12.59,-13.711 4.56,0 6.96,0.586 6.96,0.586 l -2.93,-16.336 c 0,0 -5.37,-0.586 -10.19,-0.586 -15.8,0 -25.72,9.043 -24.38,28.594 h -0.54 c 0.27,0 -17.68,-31.504 -49.572,-31.504 -21.7,0 -39.383,13.125 -39.383,36.754 0,46.972 54.395,56.601 91.375,56.601" /><path
         id="path74"
         style="fill:#4f4c4c;fill-opacity:1;fill-rule:nonzero;stroke:none"
         d="m 1142.54,283.164 c 0.53,3.496 -0.55,6.414 -4.83,6.414 h -18.22 l 2.95,16.34 h 25.72 c 10.18,0 13.67,-4.375 13.67,-11.965 0,-3.199 -2.14,-17.203 -4.56,-23.34 h 0.54 c 5.35,12.551 26.79,38.813 60.02,38.813 23.58,0 36.7,-13.43 36.7,-37.641 0,-18.086 -12.59,-71.48 -12.59,-83.152 0,-12.539 6.44,-13.711 12.86,-13.711 4.29,0 6.7,0.586 6.7,0.586 l -2.95,-16.336 c 0,0 -5.36,-0.586 -9.91,-0.586 -9.65,0 -25.72,2.918 -25.72,25.094 0,13.125 12.59,66.222 12.59,82.558 0,16.633 -8.3,24.516 -23.3,24.516 -28.95,0 -55.75,-29.77 -61.64,-64.191 l -12.05,-67.391 h -18.23 l 22.25,123.992" /><path
         id="path76"
         style="fill:#4f4c4c;fill-opacity:1;fill-rule:nonzero;stroke:none"
         d="m 1373.8,309.426 c 18.22,0 48.76,-8.469 44.74,-32.383 l -2.68,-15.473 h -16.88 l 1.88,10.805 c 2.15,13.711 -16.07,19.246 -29.2,19.246 -31.35,0 -64.04,-30.93 -64.04,-70.891 0,-29.468 18.22,-47.261 44.47,-47.261 28.14,0 47.43,20.418 47.43,20.418 l 5.89,-16.336 c 0,0 -20.35,-21.875 -54.65,-21.875 -36.72,0 -61.89,24.5 -61.89,63.883 0,49.894 40.18,89.867 84.93,89.867" /><path
         id="path78"
         style="fill:#4f4c4c;fill-opacity:1;fill-rule:nonzero;stroke:none"
         d="m 1545.04,246.98 c 0,0 1.07,5.254 1.07,11.094 0,23.344 -13.12,34.719 -30.82,34.719 -22.22,0 -45.01,-16.043 -54.65,-45.813 z m -28.94,62.446 c 33.23,0 48.5,-22.473 48.5,-53.11 0,-11.375 -3.75,-23.914 -3.75,-23.914 h -103.43 c 0,0 -1.34,-6.132 -1.34,-13.429 0,-25.379 14.74,-45.504 43.14,-45.504 24.38,0 44.22,17.793 44.22,17.793 l 5.62,-16.34 c 0,0 -22.24,-19.246 -50.64,-19.246 -36.97,0 -61.1,24.793 -61.1,61.844 0,47.839 33.23,91.906 78.78,91.906" /><path
         id="path80"
         style="fill:#4f4c4c;fill-opacity:1;fill-rule:nonzero;stroke:none"
         d="m 1607.12,312.523 c 2.97,0 4.9,2.102 4.9,5.598 0,3.406 -1.93,5.332 -4.9,5.332 h -4.82 v -10.93 z m -10.51,15.657 h 11.63 c 5.7,0 9.55,-3.938 9.55,-10.059 0,-5.07 -3.04,-8.047 -5.53,-8.742 v -0.176 c 0,0 0.32,-0.351 1.04,-1.836 l 5.77,-12.156 h -6.25 l -5.62,12.762 h -4.9 v -12.762 h -5.69 z m 9.79,-42.59 c 12.92,0 22.87,11.367 22.87,25.969 0,14.609 -9.95,25.976 -22.87,25.976 -12.77,0 -22.64,-11.367 -22.64,-25.976 0,-14.602 9.87,-25.969 22.64,-25.969 z m 0,57.883 c 15.97,0 28.73,-14.16 28.73,-31.914 0,-17.746 -12.76,-31.907 -28.73,-31.907 -15.81,0 -28.5,14.161 -28.5,31.907 0,17.754 12.69,31.914 28.5,31.914" /></g></g></svg>