<?xml version="1.0" encoding="UTF-8"?>
<!DOCTYPE svg PUBLIC "-//W3C//DTD SVG 1.1//EN" "http://www.w3.org/Graphics/SVG/1.1/DTD/svg11.dtd">
<!-- Creator: CorelDRAW X6 -->
<svg xmlns="http://www.w3.org/2000/svg" xml:space="preserve" width="2.125in" height="2.63889in" version="1.1" style="shape-rendering:geometricPrecision; text-rendering:geometricPrecision; image-rendering:optimizeQuality; fill-rule:evenodd; clip-rule:evenodd"
viewBox="0 0 2125 2639"
 xmlns:xlink="http://www.w3.org/1999/xlink">
 <defs>
  <style type="text/css">
   <![CDATA[
    .fil0 {fill:#676A8C;fill-rule:nonzero}
    .fil5 {fill:#828486;fill-rule:nonzero}
    .fil2 {fill:url(#id0)}
    .fil3 {fill:url(#id1)}
    .fil1 {fill:url(#id2)}
    .fil4 {fill:url(#id3)}
   ]]>
  </style>
  <linearGradient id="id0" gradientUnits="userSpaceOnUse" x1="622.689" y1="521.051" x2="1063.09" y2="521.051">
   <stop offset="0" style="stop-color:#676A8C"/>
   <stop offset="0.529412" style="stop-color:#7D7E9D"/>
   <stop offset="1" style="stop-color:#A1A3B9"/>
  </linearGradient>
  <linearGradient id="id1" gradientUnits="userSpaceOnUse" xlink:href="#id0" x1="1027.09" y1="503.071" x2="1503.47" y2="503.071">
  </linearGradient>
  <linearGradient id="id2" gradientUnits="userSpaceOnUse" x1="622.689" y1="1011.53" x2="1099.12" y2="1011.53">
   <stop offset="0" style="stop-color:#A1A3B9"/>
   <stop offset="0.529412" style="stop-color:#7D7E9D"/>
   <stop offset="1" style="stop-color:#676A8C"/>
  </linearGradient>
  <linearGradient id="id3" gradientUnits="userSpaceOnUse" xlink:href="#id2" x1="1063.09" y1="993.535" x2="1503.47" y2="993.535">
  </linearGradient>
 </defs>
 <g id="Layer_x0020_1">
  <metadata id="CorelCorpID_0Corel-Layer"/>
  <path class="fil0" d="M1126 1633l-45 -107 -45 107 91 0zm21 49l-132 0 -36 85 -54 0 133 -304 49 0 133 304 -56 0 -36 -85zm-484 -220l-63 0 119 171 0 134 54 0 0 -134 120 -171 -63 0 -84 128 -85 -128zm1112 49l102 0 0 -49 -258 0 0 49 103 0 0 255 53 0 0 -255zm-334 0l102 0 0 -49 -258 0 0 49 103 0 0 255 53 0 0 -255zm-1137 121l0 134 -53 0 0 -304 53 0 0 121 144 0 0 -121 53 0 0 304 -53 0 0 -134 -144 0zm0 0l0 134 -53 0 0 -304 53 0 0 121 144 0 0 -121 53 0 0 304 -53 0 0 -134 -144 0z"/>
  <path class="fil0" d="M268 1998l0 -89 67 0c35,0 56,16 56,42l0 3c0,27 -22,44 -57,44l-66 0zm84 14c36,-6 58,-28 58,-59l0 -2c0,-35 -29,-59 -73,-59l-86 0 0 204 18 0 0 -81 64 0 64 81 0 1 23 0 -67 -84z"/>
  <polygon class="fil0" points="513,2079 513,2002 628,2002 628,1985 513,1985 513,1909 641,1909 641,1892 495,1892 495,2096 642,2096 642,2079 "/>
  <path class="fil0" d="M812 1985l0 17 67 0 0 60c-13,11 -36,22 -63,22 -51,0 -85,-36 -85,-89l0 -1c0,-50 36,-88 81,-88 32,0 50,12 64,24l1 1 12 -13 -1 -1c-23,-19 -45,-27 -74,-27 -63,0 -101,54 -101,105l0 1c0,62 42,105 103,105 41,0 70,-21 80,-31l1 0 0 -84 -85 0z"/>
  <polygon class="fil0" points="1005,2079 1005,2002 1120,2002 1120,1985 1005,1985 1005,1909 1133,1909 1133,1892 987,1892 987,2096 1134,2096 1134,2079 "/>
  <polygon class="fil0" points="1369,1892 1369,2064 1233,1893 1233,1892 1216,1892 1216,2096 1234,2096 1234,1920 1373,2096 1373,2096 1387,2096 1387,1892 "/>
  <path class="fil0" d="M1633 2051l-1 1c-22,22 -42,31 -68,31 -47,0 -83,-39 -83,-89l0 -1c0,-50 36,-88 83,-88 32,0 52,15 67,29l1 1 13 -13 -1 -1c-21,-20 -43,-33 -79,-33 -57,0 -102,46 -102,105l0 1c0,60 44,105 101,105 40,0 63,-18 81,-35l1 -1 -12 -12z"/>
  <polygon class="fil0" points="1854,1892 1781,1999 1707,1893 1707,1892 1685,1892 1772,2016 1772,2096 1790,2096 1790,2015 1876,1892 "/>
  <path class="fil0" d="M1940 1912l-1 0 -8 -13 0 19 -5 0 0 -26 5 0 8 12 8 -12 5 0 0 26 -5 0 0 -19 -8 13zm-27 6l-5 0 0 -22 -8 0 0 -5 21 0 0 5 -8 0 0 22z"/>
  <path class="fil1" d="M1063 942c-38,-81 -103,-146 -184,-184 -49,23 -104,36 -162,36 -33,0 -64,-4 -94,-12l0 230 440 254c0,0 0,0 0,0 23,-49 36,-104 36,-162 0,-58 -13,-113 -36,-162z"/>
  <path class="fil2" d="M1063 249c0,0 0,0 0,0l-440 254 0 278c30,8 62,12 94,12 58,0 113,-13 162,-36 81,-38 146,-103 184,-184 -23,-49 -36,-104 -36,-162 0,-58 13,-113 36,-162z"/>
  <path class="fil3" d="M1063 249c0,0 0,0 0,0 -23,49 -36,104 -36,162 0,58 13,113 36,162 38,81 103,146 184,184 49,-23 104,-36 162,-36 33,0 64,4 94,12l0 -230 -440 -254z"/>
  <path class="fil4" d="M1409 721c-58,0 -113,13 -162,36 -81,38 -146,103 -184,184 23,49 36,104 36,162 0,58 -13,113 -36,162 0,0 0,0 0,0l440 -254 0 -279c-30,-8 -62,-12 -94,-12z"/>
  <polygon class="fil5" points="728,2308 699,2308 699,2293 774,2293 774,2308 745,2308 745,2386 728,2386 "/>
  <path class="fil5" d="M868 2340l0 0c0,-18 -13,-33 -31,-33 -18,0 -31,15 -31,33l0 0c0,18 13,33 31,33 18,0 31,-15 31,-33zm-80 0l0 0c0,-26 20,-48 48,-48 28,0 48,22 48,48l0 0c0,26 -20,48 -48,48 -28,0 -48,-22 -48,-48z"/>
  <path class="fil5" d="M947 2339c12,0 19,-6 19,-15l0 0c0,-10 -7,-15 -19,-15l-24 0 0 31 24 0zm-40 -46l41 0c12,0 21,3 27,9 5,5 8,12 8,20l0 0c0,15 -9,24 -22,28l25 35 -19 0 -23 -32 -20 0 0 32 -16 0 0 -92z"/>
  <path class="fil5" d="M1084 2340l0 0c0,-18 -13,-33 -31,-33 -18,0 -31,15 -31,33l0 0c0,18 13,33 31,33 18,0 31,-15 31,-33zm-80 0l0 0c0,-26 20,-48 48,-48 28,0 48,22 48,48l0 0c0,26 -20,48 -48,48 -28,0 -48,-22 -48,-48z"/>
  <polygon class="fil5" points="1125,2293 1140,2293 1190,2357 1190,2293 1206,2293 1206,2386 1192,2386 1141,2320 1141,2386 1125,2386 "/>
  <polygon class="fil5" points="1260,2308 1231,2308 1231,2293 1306,2293 1306,2308 1276,2308 1276,2386 1260,2386 "/>
  <path class="fil5" d="M1401 2340l0 0c0,-18 -13,-33 -31,-33 -18,0 -31,15 -31,33l0 0c0,18 13,33 31,33 18,0 31,-15 31,-33zm-80 0l0 0c0,-26 20,-48 48,-48 28,0 48,22 48,48l0 0c0,26 -20,48 -48,48 -28,0 -48,-22 -48,-48z"/>
 </g>
</svg>
