<?xml version="1.0" encoding="UTF-8"?>
<!DOCTYPE svg PUBLIC "-//W3C//DTD SVG 1.1//EN" "http://www.w3.org/Graphics/SVG/1.1/DTD/svg11.dtd">
<!-- Creator: CorelDRAW X6 -->
<svg xmlns="http://www.w3.org/2000/svg" xml:space="preserve" width="3.95833in" height="1.72222in" version="1.1" style="shape-rendering:geometricPrecision; text-rendering:geometricPrecision; image-rendering:optimizeQuality; fill-rule:evenodd; clip-rule:evenodd"
viewBox="0 0 3958 1722"
 xmlns:xlink="http://www.w3.org/1999/xlink">
 <defs>
  <style type="text/css">
   <![CDATA[
    .fil0 {fill:#676A8C;fill-rule:nonzero}
    .fil5 {fill:#828486;fill-rule:nonzero}
    .fil2 {fill:url(#id0)}
    .fil3 {fill:url(#id1)}
    .fil1 {fill:url(#id2)}
    .fil4 {fill:url(#id3)}
   ]]>
  </style>
  <linearGradient id="id0" gradientUnits="userSpaceOnUse" x1="263.504" y1="524.413" x2="703.909" y2="524.413">
   <stop offset="0" style="stop-color:#676A8C"/>
   <stop offset="0.529412" style="stop-color:#7D7E9D"/>
   <stop offset="1" style="stop-color:#A1A3B9"/>
  </linearGradient>
  <linearGradient id="id1" gradientUnits="userSpaceOnUse" xlink:href="#id0" x1="667.909" y1="506.425" x2="1144.29" y2="506.425">
  </linearGradient>
  <linearGradient id="id2" gradientUnits="userSpaceOnUse" x1="263.504" y1="1014.88" x2="739.933" y2="1014.88">
   <stop offset="0" style="stop-color:#A1A3B9"/>
   <stop offset="0.529412" style="stop-color:#7D7E9D"/>
   <stop offset="1" style="stop-color:#676A8C"/>
  </linearGradient>
  <linearGradient id="id3" gradientUnits="userSpaceOnUse" xlink:href="#id2" x1="703.909" y1="996.898" x2="1144.29" y2="996.898">
  </linearGradient>
 </defs>
 <g id="Layer_x0020_1">
  <metadata id="CorelCorpID_0Corel-Layer"/>
  <path class="fil0" d="M3772 900c18,0 33,-14 33,-33 0,-18 -14,-33 -33,-33 -18,0 -33,14 -33,33 0,18 14,33 33,33zm0 -60c15,0 27,12 27,27 0,15 -12,27 -27,27 -15,0 -27,-12 -27,-27 0,-15 12,-27 27,-27z"/>
  <path class="fil0" d="M3774 866c4,0 7,-2 7,-5l0 0c0,-3 -3,-5 -7,-5l-8 0 0 11 8 0zm-15 -17l15 0c4,0 8,1 10,4 2,2 3,4 3,7l0 0c0,5 -3,9 -8,10l9 13 -8 0 -8 -12 -7 0 0 12 -7 0 0 -34z"/>
  <polygon class="fil0" points="1464,555 1464,701 1408,701 1408,384 1464,384 1464,503 1615,503 1615,384 1671,384 1671,701 1615,701 1615,555 "/>
  <polygon class="fil0" points="2662,701 2606,701 2606,435 2497,435 2497,383 2769,383 2769,435 2662,435 "/>
  <polygon class="fil0" points="3014,701 2957,701 2957,435 2849,435 2849,383 3121,383 3121,435 3014,435 "/>
  <path class="fil0" d="M1932 531c0,0 1,-4 2,-8 5,-12 86,-139 86,-139l66 0 -126 193 0 125 -57 0 0 -125 -126 -193 66 0c0,0 81,127 86,139 2,6 2,8 2,8l1 0z"/>
  <path class="fil0" d="M2235 560l48 -112 48 112 -96 0zm155 141l59 0 -140 -320 -52 0 -140 320 57 0 38 -89 140 0 38 89z"/>
  <path class="fil0" d="M1435 994l0 -134 100 0c53,0 84,24 84,64l0 4c0,40 -34,66 -85,66l-99 0zm125 20c54,-9 86,-41 86,-88l0 -4c0,-52 -44,-88 -110,-88l-129 0 0 305 27 0 0 -122 95 0 95 121 1 1 34 0 -100 -126z"/>
  <polygon class="fil0" points="1775,1115 1775,999 1947,999 1947,974 1775,974 1775,860 1967,860 1967,835 1748,835 1748,1140 1969,1140 1969,1115 "/>
  <path class="fil0" d="M2195 973l0 25 101 0 0 89c-20,16 -54,33 -93,33 -76,0 -127,-54 -127,-134l0 -1c0,-74 54,-132 122,-132 48,0 75,18 95,36l2 1 18 -20 -2 -1c-34,-28 -67,-40 -111,-40 -94,0 -151,80 -151,158l0 1c0,92 63,157 154,157 62,0 104,-32 120,-46l1 -1 0 -126 -126 0z"/>
  <polygon class="fil0" points="2458,1115 2458,999 2630,999 2630,974 2458,974 2458,860 2650,860 2650,835 2431,835 2431,1140 2652,1140 2652,1115 "/>
  <polygon class="fil0" points="2992,835 2992,1092 2788,836 2787,835 2763,835 2763,1140 2789,1140 2789,877 2997,1139 2997,1140 3018,1140 3018,835 "/>
  <path class="fil0" d="M3360 1073l-2 2c-33,33 -63,46 -102,46 -70,0 -125,-58 -125,-133l0 -1c0,-75 54,-132 125,-132 48,0 77,22 100,44l2 2 19 -20 -2 -2c-32,-29 -64,-49 -118,-49 -86,0 -153,69 -153,158l0 1c0,89 65,157 152,157 59,0 94,-27 121,-53l2 -2 -18 -18z"/>
  <polygon class="fil0" points="3673,835 3563,995 3452,836 3452,835 3418,835 3549,1020 3549,1140 3576,1140 3576,1019 3705,835 "/>
  <path class="fil1" d="M704 945c-38,-81 -103,-146 -184,-184 -49,23 -104,36 -162,36 -32,0 -64,-4 -94,-12l0 230 440 254c0,0 0,0 0,0 23,-49 36,-104 36,-162 0,-58 -13,-113 -36,-162z"/>
  <path class="fil2" d="M704 252c0,0 0,0 0,0l-440 254 0 278c30,8 62,12 94,12 58,0 113,-13 162,-36 81,-38 146,-103 184,-184 -23,-49 -36,-104 -36,-162 0,-58 13,-113 36,-162z"/>
  <path class="fil3" d="M704 252c0,0 0,0 0,0 -23,49 -36,104 -36,162 0,58 13,113 36,162 38,81 103,146 184,184 49,-23 104,-36 162,-36 33,0 64,4 94,12l0 -230 -440 -254z"/>
  <path class="fil4" d="M1050 725c-58,0 -113,13 -162,36 -81,38 -146,103 -184,184 23,49 36,104 36,162 0,58 -13,113 -36,162 0,0 0,0 0,0l440 -254 0 -279c-30,-8 -62,-12 -94,-12z"/>
  <polygon class="fil5" points="1435,1366 1400,1366 1400,1348 1490,1348 1490,1366 1455,1366 1455,1459 1435,1459 "/>
  <path class="fil5" d="M1613 1404l0 0c0,-22 -16,-40 -38,-40 -22,0 -37,18 -37,39l0 0c0,22 16,40 38,40 22,0 37,-18 37,-39zm-96 0l0 0c0,-31 24,-57 58,-57 34,0 58,26 58,57l0 0c0,31 -24,57 -58,57 -34,0 -58,-26 -58,-57z"/>
  <path class="fil5" d="M1717 1403c14,0 23,-7 23,-19l0 0c0,-12 -9,-18 -23,-18l-28 0 0 37 29 0zm-48 -55l50 0c14,0 25,4 32,11 6,6 9,14 9,24l0 0c0,18 -11,29 -27,34l30 42 -23 0 -27 -39 -24 0 0 39 -20 0 0 -111z"/>
  <path class="fil5" d="M1891 1404l0 0c0,-22 -16,-40 -38,-40 -22,0 -37,18 -37,39l0 0c0,22 16,40 38,40 22,0 37,-18 37,-39zm-96 0l0 0c0,-31 24,-57 58,-57 34,0 58,26 58,57l0 0c0,31 -24,57 -58,57 -34,0 -58,-26 -58,-57z"/>
  <polygon class="fil5" points="1948,1348 1966,1348 2026,1424 2026,1348 2045,1348 2045,1459 2029,1459 1967,1380 1967,1459 1948,1459 "/>
  <polygon class="fil5" points="2122,1366 2087,1366 2087,1348 2177,1348 2177,1366 2142,1366 2142,1459 2122,1459 "/>
  <path class="fil5" d="M2302 1404l0 0c0,-22 -16,-40 -38,-40 -22,0 -37,18 -37,39l0 0c0,22 16,40 38,40 22,0 37,-18 37,-39zm-96 0l0 0c0,-31 24,-57 58,-57 34,0 58,26 58,57l0 0c0,31 -24,57 -58,57 -34,0 -58,-26 -58,-57z"/>
 </g>
</svg>
